/* XPM */
static char *barrel[] = {
/* columns rows colors chars-per-pixel */
"64 64 256 2 ",
"   c #000000",
".  c #0B0601",
"X  c #0D0905",
"o  c #0B0B0B",
"O  c #130A02",
"+  c #150E0A",
"@  c #16110B",
"#  c #1C130C",
"$  c #1A1614",
"%  c #24170D",
"&  c #3D1F00",
"*  c #33190C",
"=  c #231B12",
"-  c #2B1C12",
";  c #3A1F12",
":  c #321C12",
">  c #3F2100",
",  c #2E2216",
"<  c #2E2419",
"1  c #332214",
"2  c #3B2516",
"3  c #322519",
"4  c #352A1D",
"5  c #3C2C1B",
"6  c #3A2817",
"7  c #3F3222",
"8  c #332E2A",
"9  c #412201",
"0  c #462807",
"q  c #442A1A",
"w  c #462918",
"e  c #43311E",
"r  c #5A331D",
"t  c #56361D",
"y  c #572E1E",
"u  c #7C3E00",
"i  c #60331F",
"p  c #443322",
"a  c #4A3622",
"s  c #4D3925",
"d  c #4E3C29",
"f  c #523521",
"g  c #533A24",
"h  c #533D2A",
"j  c #5C3B24",
"k  c #693C24",
"l  c #733F27",
"z  c #006D00",
"x  c #7F4100",
"c  c #5B442B",
"v  c #57422B",
"b  c #584432",
"n  c #694B2E",
"m  c #66462A",
"M  c #78492A",
"N  c #7A522D",
"B  c #644B33",
"V  c #6B4D32",
"C  c #654B37",
"Z  c #774E31",
"A  c #6C5135",
"S  c #6A533A",
"D  c #735433",
"F  c #7A5434",
"G  c #7A5A37",
"H  c #72553B",
"J  c #7A553A",
"K  c #7C5B3B",
"L  c #70593C",
"P  c #7F6038",
"I  c #474746",
"U  c #555554",
"Y  c #795D42",
"T  c #6F5B41",
"R  c #7E6343",
"E  c #61605F",
"W  c #7E7D7B",
"Q  c #6B6A6A",
"!  c #814201",
"~  c #87490B",
"^  c #915318",
"/  c #854A2A",
"(  c #844D36",
")  c #835434",
"_  c #845C3C",
"`  c #885936",
"'  c #915B34",
"]  c #955935",
"[  c #8F562A",
"{  c #AA5835",
"}  c #AF593C",
"|  c #83613C",
" . c #8A643C",
".. c #8C683D",
"X. c #9C6537",
"o. c #A3622B",
"O. c #A8673A",
"+. c #B3643C",
"@. c #B26B3D",
"#. c #B9693B",
"$. c #BA723E",
"%. c #A6733F",
"&. c #C2763F",
"*. c #8C5E42",
"=. c #836442",
"-. c #8E6A45",
";. c #896848",
":. c #936D42",
">. c #976B46",
",. c #9B7346",
"<. c #9B744C",
"1. c #96754E",
"2. c #987855",
"3. c #8D714E",
"4. c #A76944",
"5. c #B26A41",
"6. c #BD6C42",
"7. c #B76946",
"8. c #A4794D",
"9. c #A67648",
"0. c #BB7244",
"q. c #BB754B",
"w. c #BB7A4C",
"e. c #B67747",
"r. c #A37C54",
"t. c #A87C55",
"y. c #B77954",
"u. c #807F7D",
"i. c #BF7D60",
"p. c #B05E40",
"a. c #C06A44",
"s. c #C2754A",
"d. c #C37C4B",
"f. c #C67845",
"g. c #C57D52",
"h. c #C27050",
"j. c #C26F53",
"k. c #00AB00",
"l. c #00CA00",
"z. c #00FF00",
"x. c #00F300",
"c. c #00E700",
"v. c #9E815B",
"b. c #B7844D",
"n. c #AC8255",
"m. c #A68658",
"M. c #BD8C5C",
"N. c #B78657",
"B. c #AB814E",
"V. c #81817F",
"C. c #A78564",
"Z. c #BC8C62",
"A. c #B68B62",
"S. c #BD9367",
"D. c #C3824C",
"F. c #C7854B",
"G. c #D1874E",
"H. c #C38552",
"J. c #CD8B54",
"K. c #C58C5A",
"L. c #CA8C5B",
"P. c #C88758",
"I. c #D48C57",
"U. c #CC9354",
"Y. c #C4925C",
"T. c #CD945C",
"R. c #CC995D",
"E. c #D49155",
"W. c #D3965D",
"Q. c #DB955C",
"!. c #D49B5C",
"~. c #DB985A",
"^. c #DCA35F",
"/. c #C78D63",
"(. c #C49363",
"). c #CA9262",
"_. c #CC9A63",
"`. c #CC946B",
"'. c #CD9C69",
"]. c #C49766",
"[. c #D39563",
"{. c #D39C64",
"}. c #DB9C63",
"|. c #D39C6A",
" X c #DB9D6B",
".X c #D69365",
"XX c #CA9C72",
"oX c #D59C71",
"OX c #D08E60",
"+X c #E09C64",
"@X c #CDA268",
"#X c #D4A165",
"$X c #DBA265",
"%X c #D4A26C",
"&X c #DBA36B",
"*X c #DDA96C",
"=X c #D5AB64",
"-X c #CBA275",
";X c #D4A372",
":X c #DBA473",
">X c #D5AA74",
",X c #DDAA74",
"<X c #DDAC7A",
"1X c #D6AA78",
"2X c #DFB07B",
"3X c #E2A56B",
"4X c #E3AB6C",
"5X c #E5A767",
"6X c #E3AC74",
"7X c #E2AD7A",
"8X c #E4A773",
"9X c #E3B175",
"0X c #E4B37D",
"qX c #E8B47A",
"wX c #F0BB7F",
"eX c #858482",
"rX c #898887",
"tX c #8D8C8A",
"yX c #908F8D",
"uX c #91908E",
"iX c #949391",
"pX c #9D9C9B",
"aX c #999896",
"sX c #A09F9E",
"dX c #A1A09F",
"fX c #A4A3A2",
"gX c #A8A7A6",
"hX c #ADACAB",
"jX c #A9A8A7",
"kX c #B5B4B3",
"lX c #B9B8B7",
"zX c #BCBCBB",
"xX c #B8B7B6",
"cX c #B0AFAE",
"vX c #DDB383",
"bX c #E8B984",
"nX c #EAB085",
"mX c #C0BFBE",
"MX c #F4C691",
"NX c #C0C0BF",
"BX c #C5C4C3",
"VX c #CBCACA",
"CX c #C8C8C7",
"ZX c #D0D0CF",
"AX c #D5D4D4",
"SX c #D8D8D7",
"DX c #DDDDDC",
"FX c #D8D7D7",
"GX c #E0E0DF",
"HX c #E4E3E3",
"JX c #ECECEC",
"KX c #E8E8E7",
"LX c #F2F2F2",
"PX c #FCFCFC",
"IX c #F0F0EF",
"UX c None",
/* pixels */
"z.z.z.z.z.z.z.z.z.z.z.z.z.z.z.z.z.z.z.z.z.z.z.z.z.z.z.z.z.z.z.z.z.z.z.z.z.z.z.z.z.z.z.z.z.z.z.z.z.z.z.z.z.z.z.z.z.z.z.z.z.z.z.z.",
"z.z.z.z.z.z.z.z.z.z.z.z.z.z.z.z.z.z.z.z.z.z.z.                              z.z.z.z.z.z.z.z.z.z.z.z.z.z.z.z.z.z.z.z.z.z.z.z.z.z.",
"z.z.z.z.z.z.z.z.z.z.z.z.z.z.z.z.z.          (.%.                          = %X          z.z.z.z.z.z.z.z.z.z.z.z.z.z.z.z.z.z.z.z.",
"z.z.z.z.z.z.z.z.z.z.z.z.z.z.z.    |. X        c |  .:.:.~ ,.8.9.,.,.:... ...        X ).    UXz.z.z.z.z.z.z.z.z.z.z.z.z.z.z.z.z.",
"z.z.z.z.z.z.z.z.z.z.z.z.z.  c _.    c & D F K _ |  ...:.! ,.9.,.,.:.:... .| K K F D B       Y.  z.z.z.z.z.z.z.z.z.z.z.z.z.z.z.z.",
"z.z.z.z.z.z.z.z.z.z.z.z.  (.    V B n 9 D V     + Q.|.u #X*X{.6.b.~ :X<XS.      J A V n n c   (.  z.z.z.z.z.z.z.z.z.z.z.z.z.z.z.",
"z.z.z.z.z.z.z.z.z.z.z.z.  x   D A p . ^ b.U.W.{.{.x &Xf.9XqXu oX7X9X'.0.! }.U.@X'.u 3.  n A @ '.  z.z.z.z.z.z.z.z.z.z.z.z.z.z.z.",
"z.z.z.z.z.z.z.z.z.z.z.z.        a.u -XL.'.g.W.! |.p..X}.u .X&X0X%X_.x >X@X$.{.%Xo.P.oX/.u     ).    z.z.z.z.z.z.z.z.z.z.z.z.z.z.",
"z.z.z.z.z.z.z.z.z.z.z.            | #X`.u o.|.p.g.F.! :XE.oX6X&X! %X&.-X{ '.u R.Y.y.2X    X     .   z.z.z.z.z.z.z.z.z.z.z.z.z.z.",
"z.z.z.z.z.z.z.z.z.z.z.      -     <.      . }.7.u ;XG.~.G.3Xx |.#X0.b.0.x %Xd         r           I z.z.z.z.z.z.z.z.z.z.z.z.z.z.",
"z.z.z.z.z.z.z.z.z.z.z.  JXPX    a ,         -.                            K =         . H     PXIXGX  z.z.z.z.z.z.z.z.z.z.z.z.z.",
"z.z.z.z.z.z.z.z.z.z.  KXJXPXLXHXBX        4.n.                              >.y.w       U HXLXPXIXHX  z.z.z.z.z.z.z.z.z.z.z.z.z.",
"z.z.z.z.z.z.z.z.z.z.    JXPXLXHXAXBXxXgXaXiX                                  U yXfXcXBXAXDXIXPXIXHX  z.z.z.z.z.z.z.z.z.z.z.z.z.",
"z.z.z.z.z.z.z.z.z.z.  ,     LXHXFXCXxXgXaXrXeXyXdXcXmXVXDXJXPXLXHXAXBXkXgXiXeXV.iXdXcXNXZXDXIXPX      z.z.z.z.z.z.z.z.z.z.z.z.z.",
"z.z.z.z.z.z.z.z.z.z.  - 5 p       BXxXjXaXrXV.yXpXcXmXVXDXJXPXLXHXAXBXkXfXiXrXeXiXdXcXNXZXhX    7 - =   z.z.z.z.z.z.z.z.z.z.z.z.",
"z.z.z.z.z.z.z.z.z.z.  # 5 s v S t         yXW yXdXcXNXVXDXJXPXLXHXAXBXkXgXiXrXV.pX        c c a p . -   z.z.z.z.z.z.z.z.z.z.z.z.",
"z.z.z.z.z.z.z.z.z.z.X . 6 p v S > | 1.' 8.b.                                  . y.<.*.l Y A f h p . %   z.z.z.z.z.z.z.z.z.z.z.z.",
"z.z.z.z.z.z.z.z.z.  # , 5 s c V 0 | r.] y.(.K. X7XbX!.s.0.6XD.,X{.`.I.y. XK.u 0./.i.( Z K V y b p - =   z.z.z.z.z.z.z.z.z.z.z.z.",
"z.z.z.z.z.z.z.z.z.  % , 5 p c V V ) r.] K.(.u {.}.8X5X@.s.P.{.,X&XF.D.H.#X}.y.7.A.t.( ( =.t f d p < - @ z.z.z.z.z.z.z.z.z.z.z.z.",
"z.z.z.z.z.z.z.z.z.  # , 5 a c A n N <.>.N.(.x 7X}.qXT.+.$.d.[.8X3Xg.I.0.%X X}.@.`.9.*.2._ 9 B b p < = @   z.z.z.z.z.z.z.z.z.z.z.",
"z.z.z.z.z.z.z.z.z.  . , 5 d c D H M >.C.9.Y.x ,XI.3X7Xq.f.OX3Xb.$X6.d.d. X3X#Xg.Y.4.( 2.F & B h p 3 - $   z.z.z.z.z.z.z.z.z.z.z.",
"z.z.z.z.z.z.z.z.z.    , 6 p c & A M ,.n.e.K.^ 7XF.9X3X5.$.[.}.#.J.H.f.#.+XQ.[.H.S.4.) -.F D B b p : + #   z.z.z.z.z.z.z.z.z.z.z.",
"z.z.z.z.z.z.z.z.z.  % - 5 a c 9 G F <.t.4.Y.6.7Xa.*X Xq.0.:X{.+.}.{.@.g.5X+X;Xo.`.X.>.1.J V S b a : . +   z.z.z.z.z.z.z.z.z.z.z.",
"z.z.z.z.z.z.z.z.  HX    6 s v 0 K Z <.r.O.U.q.}.d.%X8X0.L.:XE.}.W.T.:X).~.I.Y.u /.9.( r.F H B g d 3 .     z.z.z.z.z.z.z.z.z.z.z.",
"z.z.z.z.z.z.z.z.  HXIXPX    a V =.Z ,.n.4.b.:X$X{ #X$XL.OX:XJ.:XD.b.}.$X}.Q.3Xx (.n./ 1.) G B h     Q HX  z.z.z.z.z.z.z.z.z.z.z.",
"z.z.z.z.z.z.z.z.  HXIXPXLXHXhX        Z.4.D.oX+Xo.~.}.q.{.qXf.!.f.Q. X*XJ.G.wXx `.b.` 1.#       LXPXLXHX8 z.z.z.z.z.z.z.z.z.z.z.",
"z.z.z.z.z.z.z.z.  HXIXPXLXKXFXVXzXcXdXtX                  5 k ;.l j X                 I lXCXAXHXLXPXLXHX  z.z.z.z.z.z.z.z.z.z.z.",
"z.z.z.z.z.z.z.z.      PXLXHXFXVXzXcXdXiXeXV.yXpXhXxXCXAXGXPXPXPXLXHXVXlXcXdXiXeXeXyXpXhXzXCXAXHXLXPXLX    z.z.z.z.z.z.z.z.z.z.z.",
"z.z.z.z.z.z.z.z.    % @     HXVXzXcXdXiXeXV.yXpXhXxXBXAXHXIXPXLXHXFXVXmXhXsXiXeXeXyXpXhXzXBXAXHXDX    @ X x.z.z.z.z.z.z.z.z.z.z.",
"z.z.z.z.z.z.z.z.  . = 4 5 2 .       hXiXrXu.yXpXhXxXBXAXGXIXPXLXHXFXVXmXcXsXiXeXeXyXpXgXI       4 7 < # X c.z.z.z.z.z.z.z.z.z.z.",
"z.z.z.z.z.z.z.z.  . = < e s 9 F | =.t.            8 BXHXHXLXPXPXPXFXQ X               5 Z K n f s 6 < @ X x.z.z.z.z.z.z.z.z.z.z.",
"z.z.z.z.z.z.z.z.    % , 5 s 9 m G  .8.9.N.! ;X6.%X5XH.f @   X - K oX5X$.f.Q.5Xs.'.O.' r.` J H g 5 p = % X z.z.z.z.z.z.z.z.z.z.z.",
"z.z.z.z.z.z.z.z.  . = < p s > k N | <.e.S.x !.a.}.|.+Xq.:XE.7XP.^.9X*X6XK.f.Q.q.M.e.M v.M K A f q 6 % # . z.z.z.z.z.z.z.z.z.z.z.",
"z.z.z.z.z.z.z.z.  . = 4 5 s & r G _ ,.X.M.u $X$.&X3XP.T.*XQ.$XP.E.7X$X9X;Xf.+X:X].e.] r.l D L f 2 2 @ #   z.z.z.z.z.z.z.z.z.z.z.",
"z.z.z.z.z.z.z.z.    % : e g 9 r G  .,.] N.~ }.d.:XbXE.:X{.P.}.g.E.qX9X3X:XH.+X[.S.e./ 1.k F n g w 1 O O   z.z.z.z.z.z.z.z.z.z.z.",
"z.z.z.z.z.z.z.z.  . # : 5 g 9 c m )  .<./.^  X6.Y.9X5X|.K.0.:X.XF.,X&XMX@X0.3X[.XXy./ >.l F c c q 6 . #   z.z.z.z.z.z.z.z.z.z.z.",
"z.z.z.z.z.z.z.z.    # : e g 9 B l ` ,.9.R.o.W.6.bX6X8X;XU.q.&X|.E.:X2X3XqX0.;X X].,./ 2.N P m g s 6 . #   z.z.z.z.z.z.z.z.z.z.z.",
"z.z.z.z.z.z.z.z.  @ # % ; g > H i ) 9.B.n.] 6Xf.6XqX{.;Xw.p.Q.%X}.>X9X%X0XbX8X/.].y.{ >.G R c f s 2 . $   z.z.z.z.z.z.z.z.z.z.z.",
"z.z.z.z.z.z.z.z.z.  % 4 : s > S J / 9.A.Z.X.T.J.7X7X&XvXD.4.{.,XW.,X9X#XbXqX7X9X].M.>.( -.=.n g a 1 . %   z.z.z.z.z.z.z.z.z.z.z.",
"z.z.z.z.z.z.z.z.z.  = 4 * d > V G M >.8.S.o.7X0.;X{. X{.K.5.}.@X!.W.3X}.%X<XL.|.;XZ.t.M 3.;.V v a 6 . =   z.z.z.z.z.z.z.z.z.z.z.",
"z.z.z.z.z.z.z.z.z.  - 4 2 g > n Y M ' 8./.[ 6X#.<X:X.X<XT.#.1X{.U.}.T.f.F.bX5.:XS.S.m.` 3.R L v a 6 , = k.z.z.z.z.z.z.z.z.z.z.z.",
"z.z.z.z.z.z.z.z.z.  @ 4 ; s > n =.K [ t.Z.^ |.+. X,XOX:XK.5.:X*XF.}.R.#.s.7XnX:XK.-Xn.-.;.J S B d e <   z.z.z.z.z.z.z.z.z.z.z.z.",
"z.z.z.z.z.z.z.z.z.  . 4 ; f j m J ;.] 8./.u *XO.9X7Xq.:XW.0.|.>Xh.{.|.j.h.{.>X;X].S.8.r.3.D 0 B d p <   z.z.z.z.z.z.z.z.z.z.z.z.",
"z.z.z.z.z.z.z.z.z.z.. 4 2 w c k K -.[ t.N.u |.nX[.3X{ ;XU.@._._.#.I.I.e.oXU.{.W.K.m.A.r.;.G > c d p <   z.z.z.z.z.z.z.z.z.z.z.z.",
"z.z.z.z.z.z.z.z.z.z.  3 2 w m r K -.M B.S.x [.].|.nXh.{.&X+.U.$X5.^.[.vX7XG.,XK.;X-Xm.C.M R > S b = 3   z.z.z.z.z.z.z.z.z.z.z.z.",
"z.z.z.z.z.z.z.z.z.z.  4 5 q j i ;.| / n.N.x |.>X%X0.`.:XT.5.4XbXD.E.[.*X@Xf.R.6X-XM.S.C. .T c f 5 O   z.z.z.z.z.z.z.z.z.z.z.z.z.",
"z.z.z.z.z.z.z.z.z.z.  O e w y > _ -./ B.M.x R.,X{.5.>X_.g.{ Q.|.d.G.3X6X7XJ.;XvXq.4.m.| 2.K L b q O   z.z.z.z.z.z.z.z.z.z.z.z.z.",
"z.z.z.z.z.z.z.z.z.z.z.  ; w t > J ;.M n.e.~ H.|.{.@.vX@Xh.;Xf.{.|.+.:X$.g..X|.MXX.9.' r.M Y T S p     z.z.z.z.z.z.z.z.z.z.z.z.z.",
"z.z.z.z.z.z.z.z.z.z.z.      j k N 3.>.n.4.vXH.{.R.@.MX%X+.:X{ `.{.q.<Xd.R.vX6.~ Z.-XC.2.-.j k     VX  z.z.z.z.z.z.z.z.z.z.z.z.z.",
"z.z.z.z.z.z.z.z.z.z.z.  PXLX    # ;.,.8.A.oXg.{.|.y._.!.p.).p.@XR.O.&X).T.[.#.x ].]  .8.      KXDX  z.z.z.z.z.z.z.z.z.z.z.z.z.z.",
"z.z.z.z.z.z.z.z.z.z.z.z.  LXHXSXBX        S g.:X:XN.@X|.] %X{ +XvXe.*XU.7Xg.          BXHXLXPXIXDX  z.z.z.z.z.z.z.z.z.z.z.z.z.z.",
"z.z.z.z.z.z.z.z.z.z.z.z.      DXVXlXjXaXtXrX                              E eXuXdXkXBXZXGXIXPX    x.z.z.z.z.z.z.z.z.z.z.z.z.z.z.",
"z.z.z.z.z.z.z.z.z.z.z.z.z.  B       hXpXrXW tXpXhXzXVXDXKXPXLXKXFXBXxXgXaXrXV.yXdXcXmXVX      t   z.z.z.z.z.z.z.z.z.z.z.z.z.z.z.",
"z.z.z.z.z.z.z.z.z.z.z.z.z.  j Z Z Z         iXpXjXxXVXSXKXLXLXKXFXCXxXhXaXrXQ           > | L %   z.z.z.z.z.z.z.z.z.z.z.z.z.z.z.",
"z.z.z.z.z.z.z.z.z.z.z.z.z.z.  m *.& ) 8.4.'.!                             1.qX,XK.(.m.' -.R T   z.z.z.z.z.z.z.z.z.z.z.z.z.z.z.z.",
"z.z.z.z.z.z.z.z.z.z.z.z.z.z.    F 2. .N.e.;X4.oXD.:X:XR.'.{.+.;X{.E._.F.2X$.x vX'.S.m.> *._     z.z.z.z.z.z.z.z.z.z.z.z.z.z.z.z.",
"z.z.z.z.z.z.z.z.z.z.z.z.z.z.z.    2.& 8.y.@XO.<Xe.%XoXD.R.K.7.;XP.W.Y.&XX.[.x >Xq.(.r.J 1   o z.z.z.z.z.z.z.z.z.z.z.z.z.z.z.z.z.",
"z.z.z.z.z.z.z.z.z.z.z.z.z.z.z.  KX      8.].O.M.w.1X*XD._.I.6.R.w.{.R.@Xf.<X1X=X`.XX    Q PX  z.z.z.z.z.z.z.z.z.z.z.z.z.z.z.z.z.",
"z.z.z.z.z.z.z.z.z.z.z.z.z.z.z.z.  PXLXDX        T.,X).T.Y.J.#.'.$.Y.@Xw.U.1X@       VXDXIX  l.z.z.z.z.z.z.z.z.z.z.z.z.z.z.z.z.z.",
"z.z.z.z.z.z.z.z.z.z.z.z.z.z.z.z.  $ LXDXVXzXgXiX$                           eXyXfXxXBXDXU   z.z.z.z.z.z.z.z.z.z.z.z.z.z.z.z.z.z.",
"z.z.z.z.z.z.z.z.z.z.z.z.z.z.z.z.z.    HXVXzXhXiXeXrXpXcXBXFXKXPXJXDXVXxXfXyXu.tXfXkXBX    z.z.z.z.z.z.z.z.z.z.z.z.z.z.z.z.z.z.z.",
"z.z.z.z.z.z.z.z.z.z.z.z.z.z.z.z.z.z.z.    BXjXiXeXrXpXcXzXAXHXPXLXDXVXxXfXiXu.tXjX    z.z.z.z.z.z.z.z.z.z.z.z.z.z.z.z.z.z.z.z.z.",
"z.z.z.z.z.z.z.z.z.z.z.z.z.z.z.z.z.z.z.z.z.z       E iXcXBXAXHXPXLXDXVXBX$       l.x.z.z.z.z.z.z.z.z.z.z.z.z.z.z.z.z.z.z.z.z.z.z.",
"z.z.z.z.z.z.z.z.z.z.z.z.z.z.z.z.z.z.z.z.z.z.z.z.z.z.                    z.z.z.z.z.z.z.z.z.z.z.z.z.z.z.z.z.z.z.z.z.z.z.z.z.z.z.z."
};
