/* XPM */
static char *chest[] = {
/* columns rows colors chars-per-pixel */
"64 64 157 2 ",
"   c #1B1714",
".  c #1E1A17",
"X  c #271B0F",
"o  c #281B0E",
"O  c #231B14",
"+  c #2A1C11",
"@  c #231E1B",
"#  c #2F2113",
"$  c #26201E",
"%  c #28201C",
"&  c #352312",
"*  c #33251B",
"=  c #37291D",
"-  c #3C2B1C",
";  c #272322",
":  c #2B2522",
">  c #2D2825",
",  c #2F2B29",
"<  c #342A25",
"1  c #3B2D22",
"2  c #332D2A",
"3  c #382F29",
"4  c #3E3225",
"5  c #35302D",
"6  c #3D342C",
"7  c #373331",
"8  c #3B3633",
"9  c #3D3936",
"0  c #3E3B3A",
"q  c #4A290C",
"w  c #55320D",
"e  c #5B330E",
"r  c #452E13",
"t  c #442D1A",
"y  c #4C2E1A",
"u  c #473114",
"i  c #493216",
"p  c #46321E",
"a  c #543212",
"s  c #5A3612",
"d  c #54331A",
"f  c #58371C",
"g  c #5C3D1B",
"h  c #64360C",
"j  c #693709",
"k  c #66380D",
"l  c #6C3A0D",
"z  c #763D08",
"x  c #783E09",
"c  c #673D17",
"v  c #6B3B12",
"b  c #6A3F18",
"n  c #433223",
"m  c #4F3723",
"M  c #42362C",
"N  c #473A2C",
"B  c #4C3D2D",
"V  c #523A22",
"C  c #583B24",
"Z  c #513E2C",
"A  c #443C35",
"S  c #4A3E33",
"D  c #423E3C",
"F  c #77430B",
"G  c #7C420D",
"H  c #6A4114",
"J  c #64431D",
"K  c #6C471D",
"L  c #67481F",
"P  c #6B481E",
"I  c #744516",
"U  c #7E4210",
"Y  c #7E4B10",
"T  c #724A1E",
"R  c #7C4F1B",
"E  c #56412F",
"W  c #4F4337",
"Q  c #44413E",
"!  c #4B433C",
"~  c #534333",
"^  c #5E4B37",
"/  c #554A3E",
"(  c #5D4B3B",
")  c #634527",
"_  c #634E3C",
"`  c #464442",
"'  c #494644",
"]  c #4D4945",
"[  c #4D4B4A",
"{  c #524A43",
"}  c #524E4B",
"|  c #55514E",
" . c #5B534C",
".. c #545352",
"X. c #595654",
"o. c #5C5956",
"O. c #5D5C5C",
"+. c #635C53",
"@. c #6D5E52",
"#. c #615E5D",
"$. c #61605E",
"%. c #77695D",
"&. c #616161",
"*. c #686867",
"=. c #696968",
"-. c #796F61",
";. c #747373",
":. c #7A7876",
">. c #7C7A79",
",. c #81460D",
"<. c #82490F",
"1. c #804611",
"2. c #834B12",
"3. c #8A4D15",
"4. c #814F19",
"5. c #8C5114",
"6. c #87561E",
"7. c #88511C",
"8. c #935415",
"9. c #965916",
"0. c #9B5C17",
"q. c #965719",
"w. c #945A1B",
"e. c #9B5B1A",
"r. c #A35D17",
"t. c #A35E1E",
"y. c #9E621C",
"u. c #A4631B",
"i. c #AC651C",
"p. c #AD691E",
"a. c #B0671C",
"s. c #B1681E",
"d. c #BB711F",
"f. c #875822",
"g. c #985F22",
"h. c #A36422",
"j. c #A76920",
"k. c #AD6B21",
"l. c #B36D20",
"z. c #BA6F20",
"x. c #B37225",
"c. c #BC7122",
"v. c #B3732A",
"b. c #BF792F",
"n. c #BF7D33",
"m. c #C07322",
"M. c #C2782A",
"N. c #C57E33",
"B. c #847F7C",
"V. c green",
"C. c #838282",
"Z. c #8D8988",
"A. c #C5C4C3",
"S. c #CECCCA",
"D. c #D4D3D3",
"F. c #D8D8D8",
"G. c None",
/* pixels */
"V.V.V.V.V.V.V.V.V.V.V.V.V.V.V.V.V.V.V.V.V.V.V.V.V.V.V.V.V.V.V.V.V.V.V.V.V.V.V.V.V.V.V.V.V.V.V.V.V.V.V.V.V.V.V.V.V.V.V.V.V.V.V.V.",
"V.V.V.V.V.V.V.V.V.V.V.V.V.V.V.V.V.V.V.V.V.V.V.V.V.V.V.V.V.V.V.V.V.V.V.V.V.V.V.V.V.V.V.V.V.V.V.V.V.V.V.V.V.V.V.V.V.V.V.V.V.V.V.V.",
"V.V.V.V.V.V.V.V.V.V.V.V.V.V.V.V.V.V.V.V.V.V.V.V.V.V.V.V.V.V.V.V.V.V.V.V.V.V.V.V.V.V.V.V.V.V.V.V.V.V.V.V.V.V.V.V.V.V.V.V.V.V.V.V.",
"V.V.V.V.V.V.V.V.V.V.V.V.V.V.V.V.V.V.V.V.V.V.V.V.V.V.V.V.V.V.V.V.V.V.V.V.V.V.V.V.V.V.V.V.V.V.V.V.V.V.V.V.V.V.V.V.V.V.V.V.V.V.V.V.",
"V.V.V.V.V.V.V.V.V.V.V.V.V.V.V.V.V.V.V.V.V.V.V.V.V.V.V.V.V.V.V.V.V.V.V.V.V.V.V.V.V.V.V.V.V.V.V.V.V.V.V.V.V.V.V.V.V.V.V.V.V.V.V.V.",
"V.V.V.V.V.V.V.V.V.V.V.V.V.V.V.V.V.V.V.V.V.V.V.V.V.V.V.V.V.V.V.V.V.V.V.V.V.V.V.V.V.V.V.V.V.V.V.V.V.V.V.V.V.V.V.V.V.V.V.V.V.V.V.V.",
"V.V.V.V.V.V.V.V.V.V.V.V.V.V.V.V.V.V.V.V.V.V.V.V.V.V.V.V.V.V.V.V.V.V.V.V.V.V.V.V.V.V.V.V.V.V.V.V.V.V.V.V.V.V.V.V.V.V.V.V.V.V.V.V.",
"V.V.V.V.V.V.V.V.V.V.V.V.V.V.V.V.V.V.V.V.V.V.V.V.V.V.V.V.V.V.V.V.V.V.V.V.V.V.V.V.V.V.V.V.V.V.V.V.V.V.V.V.V.V.V.V.V.V.V.V.V.V.V.V.",
"V.V.V.V.V.V.V.V.V.V.V.V.V.V.V.V.V.V.V.V.V.V.V.V.V.V.V.V.V.V.V.V.V.V.V.V.V.V.V.V.V.V.V.V.V.V.V.V.V.V.V.V.V.V.V.V.V.V.V.V.V.V.V.V.",
"V.V.V.V.V.V.V.V.V.V.V.V.V.V.V.V.V.V.V.V.V.V.V.V.V.V.V.V.V.V.V.V.V.V.V.V.V.V.V.V.V.V.V.V.V.V.V.V.V.V.V.V.V.V.V.V.V.V.V.V.V.V.V.V.",
"V.V.V.V.V.V.V.V.V.V.V.V.V.V.V.V.V.V.V.V.V.V.V.V.V.V.V.V.V.V.V.V.V.V.V.V.V.V.V.V.V.V.V.V.V.V.V.V.V.V.V.V.V.V.V.V.V.V.V.V.V.V.V.V.",
"V.V.V.V.V.V.V.V.V.V.V.V.V.V.V.V.V.V.V.V.V.V.V.V.V.V.V.V.V.V.V.V.V.V.V.V.V.V.V.V.V.V.V.V.V.V.V.V.V.V.V.V.V.V.V.V.V.V.V.V.V.V.V.V.",
"V.V.V.V.V.V.V.V.V.V.V.V.V.V.V.V.V.V.V.V.V.V.V.V.V.V.V.V.V.V.V.V.V.V.V.V.V.V.V.V.V.V.V.V.V.V.V.V.V.V.V.V.V.V.V.V.V.V.V.V.V.V.V.V.",
"V.V.V.V.V.V.V.V.V.V.V.V.V.V.V.V.V.V.V.V.V.V.V.V.V.V.V.V.V.V.V.V.V.V.V.V.V.V.V.V.V.V.V.V.V.V.V.V.V.V.V.V.V.V.V.V.V.V.V.V.V.V.V.V.",
"V.V.V.V.V.V.V.V.V.V.V.V.V.V.V.V.V.V.V.V.V.V.V.V.V.V.V.V.V.V.V.V.V.V.V.V.V.V.V.V.V.V.V.V.V.V.V.V.V.V.V.V.V.V.V.V.V.V.V.V.V.V.V.V.",
"V.V.V.V.V.V.V.V.V.V.V.V.V.V.V.V.V.V.V.V.V.V.V.V.V.V.V.V.V.V.V.V.V.V.V.V.V.V.V.V.V.V.V.V.V.V.V.V.V.V.V.V.V.V.V.V.V.V.V.V.V.V.V.V.",
"V.V.V.V.V.V.V.V.V.V.V.V.V.V.V.V.V.V.V.V.V.V.V.V.V.V.V.V.V.V.V.V.V.V.V.V.V.V.V.V.V.V.V.V.V.V.V.V.V.V.V.V.V.V.V.V.V.V.V.V.V.V.V.V.",
"V.V.V.V.V.V.V.V.V.V.V.V.V.V.V.V.V.V.V.V.V.V.V.V.V.V.V.V.V.V.V.V.V.V.V.V.V.V.V.V.V.V.V.V.V.V.V.V.V.V.V.V.V.V.V.V.V.V.V.V.V.V.V.V.",
"V.V.V.V.V.V.V.V.V.V.V.V.V.V.V.V.V.V.V.V.V.V.V.V.V.V.V.V.V.V.V.V.V.V.V.V.V.V.V.V.V.V.V.V.V.V.V.V.V.V.V.V.V.V.V.V.V.V.V.V.V.V.V.V.",
"V.V.V.V.V.V.V.V.V.V.V.V.V.V.V.V.V.V.V.V.V.V.V.V.V.V.V.V.V.V.V.V.V.V.V.V.V.V.V.V.V.V.V.V.V.V.V.V.V.V.V.V.V.V.V.V.V.V.V.V.V.V.V.V.",
"V.V.V.V.V.V.V.V.V.V.V.V.V.V.V.V.V.V.V.V.V.V.V.V.V.V.V.V.V.V.V.V.V.V.V.V.V.V.V.V.V.V.V.V.V.V.V.V.V.V.V.V.V.V.V.V.V.V.V.V.V.V.V.V.",
"V.V.V.V.V.V.V.V.V.V.V.V.V.V.V.V.V.V.V.V.V.V.V.V.V.V.V.V.V.V.V.V.V.V.V.V.V.V.V.V.V.V.V.V.V.V.V.V.V.V.V.V.V.V.V.V.V.V.V.V.V.V.V.V.",
"V.V.V.V.V.V.V.V.V.V.V.V.V.V.V.G.G.G.G.G.G.G.G.G.G.G.G.G.G.G.G.G.G.G.G.G.G.G.G.G.%.%.@.n p ( ^ n ! ] ! G.V.V.V.V.V.V.V.V.V.V.V.V.",
"V.V.V.V.V.V.V.V.V.V.V.V.V.V.G. .:.+.4 f.y.t.t.i.p.k.k.x.v.v.m.m.m.m.m.m.c.c.c.c.c.m.m.m.m.x.x.w. .B.B.] G.V.V.V.V.V.V.V.V.V.V.V.",
"V.V.V.V.V.V.V.V.V.V.V.V.V.G.X.>. .g p.c.l.x.l.s.s.p.p.p.i.s.i.i.s.s.i.i.s.i.i.s.i.i.r.i.u.r.i.0.H o.=.&.} G.V.V.V.V.V.V.V.V.V.V.",
"V.V.V.V.V.V.V.V.V.V.V.V.G.` &.+.g U <.<.<.<.1.,.U U ,.,.2.3.3.3.3.3.3.7.3.U 1.1.1.1.,.,.2.2.,.,.,.g o.&.$.S V.V.V.V.V.V.V.V.V.V.",
"V.V.V.V.V.V.V.V.V.V.V.V.{ &.#.C 5.n.N.N.N.N.N.N.n.N.N.M.N.N.N.N.N.N.N.N.N.M.N.N.N.N.N.N.N.N.M.N.N.,.~ &.&.| N V.V.V.V.V.V.V.V.V.",
"V.V.V.V.V.V.V.V.V.V.V.N o.O.^ G v.N.N.N.N.N.N.N.N.N.N.N.N.N.N.N.N.N.N.N.N.N.N.N.N.N.N.N.N.N.N.N.N.j.l o.&.$.W G.V.V.V.V.V.V.V.V.",
"V.V.V.V.V.V.V.V.V.V.G.{ &.$.b g.N.N.N.N.N.N.N.N.N.N.N.N.N.N.N.N.N.N.N.N.N.N.N.N.N.N.N.N.N.N.N.N.N.N.G ^ $.&.X.G.V.V.V.V.V.V.V.V.",
"V.V.V.V.V.V.V.V.V.V.G.#.$._ 1.N.N.N.N.N.N.N.N.N.N.N.N.N.N.N.N.N.N.N.N.N.N.N.N.N.N.N.N.N.N.N.N.N.N.N.w.b $.&.O. .V.V.V.V.V.V.V.V.",
"V.V.V.V.V.V.V.V.V.V.$.$.o.H j.N.N.N.N.N.N.N.N.N.N.N.N.N.N.N.M.M.N.m.M.M.M.M.N.N.N.N.N.N.N.N.N.N.N.N.v.v X.&.$./ V.V.V.V.V.V.V.V.",
"V.V.V.V.V.V.V.V.V.G.} $.( F 2.3.2.<.<.<.2.2.2.2.1.2.<.2.2.1.1.2.1.3.1.3.1.1.1.1.U 2.1.1.2.2.2.2.<.<.,.z W &.&.} G.V.V.V.V.V.V.V.",
"V.V.V.V.V.V.V.V.V.-.#.#.) q.c.m.m.m.m.m.m.m.m.m.m.m.m.m.m.m.m.m.m.m.m.m.m.m.m.m.m.m.m.m.m.m.m.m.m.m.c.x f O.&.| G.V.V.V.V.V.V.V.",
"V.V.V.V.V.V.V.V.V.~ #.#.H z.m.m.m.m.m.m.m.m.m.m.m.m.m.m.m.m.m.m.m.m.m.m.m.m.m.m.m.m.m.m.m.m.m.m.m.m.m.,.v X.&.o.B V.V.V.V.V.V.V.",
"V.V.V.V.V.V.V.V.G.{ &.#.I m.m.m.m.m.m.m.m.m.m.m.m.m.m.m.m.m.c.h.Z B g.c.m.m.m.m.c.m.m.m.m.m.m.m.m.m.m.5.l } &.o.B V.V.V.V.V.V.V.",
"V.V.V.V.V.V.V.V.G.{ &.| 2.m.m.m.m.m.m.m.m.m.m.c.m.m.m.m.m.m.j.M S.A.M 4.r.r.r.u.i.i.i.s.k.k.l.l.m.m.c.9.z { &.O.A G.V.V.V.V.V.V.",
"V.V.V.V.V.V.V.V.G. .&.[ U w.8.8.8.3.2.5.2.<.<.Y <.G G G s w w Z.F.;.o.- h e j G ,.,.,.,.,.U Y U U U x x x W &.&.6 G.V.V.V.V.V.V.",
"V.V.V.V.V.V.V.V.G. .&.` z x z z F G 2.2.2.3.5.5.5.e.t.J [ [ * D.;.&.&.9 2 ' : w.d.d.d.d.d.z.d.c.d.z.s.u.x ! &.&.5 G.V.V.V.V.V.V.",
"V.V.V.V.V.V.V.V.G. .&.D l k.l.m.m.m.m.m.m.m.m.m.m.m.x.4 &.$.] C.&.&.&.' O.&.| ) m.m.m.m.m.m.m.m.c.m.m.l.x ! &.&.M G.V.V.V.V.V.V.",
"V.V.V.V.V.V.V.V.G.| #.{ l m.m.m.m.m.m.m.m.m.m.m.m.m.k.A &.&.&.&.&.&.&.&.&.&.| g m.m.m.m.m.m.m.m.m.m.m.l.x ! &.&.6 G.V.V.V.V.V.V.",
"V.V.V.V.V.V.V.V.G.{ #.} v k.m.m.m.m.m.m.m.m.m.m.c.m.c.n &.&.&.&.&.&.&.&.&.O.> 6.c.m.m.m.c.m.m.c.m.m.m.s.z ` &.O.3 G.V.V.V.V.V.V.",
"V.V.V.V.V.V.V.V.G.D &...s w.m.m.m.m.m.d.m.c.m.c.c.c.c.f...&.&.&.&.&.&.&.&.0 r y.u.u.u.u.u.u.u.u.u.u.u.y.l D &.O.3 G.V.V.V.V.V.V.",
"V.V.V.V.V.V.V.V.G.A o.} E c T T P P P L L L L L L L J g Q &.&.O.` [ &.&.&.' 1 _ _ _ _ _ _ _ _ _ _ _ ( ( / X.' o.9 G.V.V.V.V.V.V.",
"V.V.V.V.V.V.V.V.G.! } ] O.O.o...X.X...X.X.X.X.X...X...} D &.&.O.@ : O.&.&.| ; #.&.&.&.&.&.&.&.&.&.&.&.&.&.&.O.o.> G.V.V.V.V.V.V.",
"V.V.V.V.V.V.V.V.V.4 9 | } | X.......| } } | } } [ { ' 8 0 &.&.o.; : &.&.&.o.  ' ..} } } ..[ [ ....} } ....| | 9 6 V.V.V.V.V.V.V.",
"V.V.V.V.V.V.V.V.V.G.3 , 2 < - - - t - t - = = - t - t % ` &.&.&., ..*.&.&.O.. = - = - - 1 < = - - - - * : ; ; > G.V.V.V.V.V.V.V.",
"V.V.V.V.V.V.V.V.V.V.4 8 Q 2 l z z z z z z z F z z z z q ` &.&.O.@ 0 *.&.&.&.@ h z x x x z z z z z z z s 2 Q , G.V.V.V.V.V.V.V.V.",
"V.V.V.V.V.V.V.V.V.V.G.7 ' 2 j <.0.u.u.u.u.u.i.u.s.p.k.* ' &.&.o.5 0 &.&.&.&., 7.k.k.s.s.p.p.s.p.i.0.F a o.&.9 G.V.V.V.V.V.V.V.V.",
"V.V.V.V.V.V.V.V.V.V.G.8 &.[ s k.m.m.m.m.m.m.m.m.m.m.s.O [ &.&.&.&.&.&.#.&.&.Q R m.m.m.m.m.m.m.m.c.p.F d O.&., G.V.V.V.V.V.V.V.V.",
"V.V.V.V.V.V.V.V.V.V.G.: O...a p.m.m.m.m.m.m.m.m.m.m.k.O | O.O.O.O.O.O.O.O...8 P m.m.m.m.m.m.m.m.m.i.x V &.O.$ V.V.V.V.V.V.V.V.V.",
"V.V.V.V.V.V.V.V.V.V.V.: ..&.t 0.s.s.a.a.s.a.l.s.s.s.t.& # # # # o X o o X X X I u.i.i.i.a.i.p.i.a.8.x Z O...< V.V.V.V.V.V.V.V.V.",
"V.V.V.V.V.V.V.V.V.V.V.n ' #.n x ,.,.3.3.2.2.2.3.2.2.2.2.2.2.2.2.2.2.R 2.Y Y Y 2.<.U U U 1.x G G x x x ! &.[ 1 V.V.V.V.V.V.V.V.V.",
"V.V.V.V.V.V.V.V.V.V.V.+.0 &.M 1.z.m.m.m.m.m.m.m.m.m.m.m.m.m.m.m.c.m.m.m.m.m.m.m.m.m.m.m.m.m.m.m.m.0.x { &.D G.V.V.V.V.V.V.V.V.V.",
"V.V.V.V.V.V.V.V.V.V.V.G.8 &.9 G z.m.m.m.m.m.m.m.m.m.m.m.m.m.m.m.m.m.m.m.m.m.m.m.m.m.m.m.m.m.m.m.m.5.z ..&.9 G.V.V.V.V.V.V.V.V.V.",
"V.V.V.V.V.V.V.V.V.V.V.G.6 &.` k a.m.m.m.m.m.m.m.m.m.m.m.m.m.m.m.m.m.m.m.m.m.m.m.m.m.m.m.c.m.m.c.m.,.j ..&.6 V.V.V.V.V.V.V.V.V.V.",
"V.V.V.V.V.V.V.V.V.V.V.V.1 #.[ d x U U U U U U U ,.U U G 1.U U x G F F F F F F F F F F F F F G G G z e O.#.2 V.V.V.V.V.V.V.V.V.V.",
"V.V.V.V.V.V.V.V.V.V.V.V.< X.o.t 3.3.q.q.8.9.q.9.9.9.9.9.9.9.9.q.w.w.9.9.9.9.9.9.9.9.9.9.9.9.9.0.e.x m &...1 V.V.V.V.V.V.V.V.V.V.",
"V.V.V.V.V.V.V.V.V.V.V.V.4 [ O.- e.m.m.m.m.m.m.m.m.m.m.m.m.m.m.m.m.m.m.m.m.m.m.m.m.m.m.m.m.m.m.m.x.z B &.` G.V.V.V.V.V.V.V.V.V.V.",
"V.V.V.V.V.V.V.V.V.V.V.V.} 0 &.6 8.m.m.m.m.m.m.m.m.m.d.d.m.m.m.m.m.m.m.d.m.m.m.m.d.m.m.c.m.m.m.m.l.z ! &.7 G.V.V.V.V.V.V.V.V.V.V.",
"V.V.V.V.V.V.V.V.V.V.V.V.G.5 &.A U a.i.i.a.a.i.i.i.i.i.i.i.i.i.i.i.i.i.i.a.r.i.i.i.i.i.i.i.p.i.a.0.k | &.2 G.V.V.V.V.V.V.V.V.V.V.",
"V.V.V.V.V.V.V.V.V.V.V.V.G.> O.{ l x x x x x x l l l l l k k k e s y y y y y y y y y y u i i i i i 1 o.&.> G.V.V.V.V.V.V.V.V.V.V.",
"V.V.V.V.V.V.V.V.V.V.V.V.G.> o... .} ..........| | | ..| ..| ..........|  .| o.O.o.O.O.O.O.&.#.O.O.O.} o.< V.V.V.V.V.V.V.V.V.V.V.",
"V.V.V.V.V.V.V.V.V.V.V.V.G.% [ D &.&.&.#.#.O.#.#.O.O.#.#.#.#.#.#.#.#.#.#.O.O.O.O.O.O.&.&.#.&.&.&.&.O...[ 4 V.V.V.V.V.V.V.V.V.V.V.",
"V.V.V.V.V.V.V.V.V.V.V.V.V.M A Q ! 2 2 2 < < < < < < < < < < < < < < < < < < < < < , 4 4 M 8 6 6 6 A ` 8 G.V.V.V.V.V.V.V.V.V.V.V."
};
