/* XPM */
static char *chest[] = {
/* columns rows colors chars-per-pixel */
"64 64 248 2 ",
"   c #160500",
".  c #1B0500",
"X  c #1E0900",
"o  c #1D1400",
"O  c #200700",
"+  c #240B00",
"@  c #2A0E00",
"#  c #251000",
"$  c #2D1200",
"%  c #251B00",
"&  c #2C1B01",
"*  c #331400",
"=  c #391700",
"-  c #351A00",
";  c #3C1A00",
":  c #1F3400",
">  c #282A00",
",  c #3C2301",
"<  c #352901",
"1  c #3D2A01",
"2  c #253600",
"3  c #2E3400",
"4  c #421D00",
"5  c #452100",
"6  c #492200",
"7  c #442C03",
"8  c #4A2D02",
"9  c #502E02",
"0  c #473204",
"q  c #4C3303",
"w  c #4D3804",
"e  c #523503",
"r  c #543B04",
"t  c #593D04",
"y  c #513908",
"u  c #154900",
"i  c #1C5600",
"p  c #1C5900",
"a  c #264500",
"s  c #334700",
"d  c #295500",
"f  c #1D7E00",
"g  c #216100",
"h  c #236900",
"j  c #5C4304",
"k  c #5E4904",
"l  c #564308",
"z  c #5C440A",
"x  c #614404",
"c  c #664B06",
"v  c #6A4D06",
"b  c #644C0B",
"n  c #6A4E09",
"m  c #6C5105",
"M  c #66520A",
"N  c #6C540A",
"B  c #6E590A",
"V  c #735506",
"C  c #745A06",
"Z  c #745608",
"A  c #745D0B",
"S  c #7B5D09",
"D  c #7C6106",
"F  c #76610D",
"G  c #7B630C",
"H  c #657D06",
"J  c #7A6413",
"K  c #836806",
"L  c #8B6D02",
"P  c #84650A",
"I  c #856C0B",
"U  c #8B6C0B",
"Y  c #8B710A",
"T  c #94750C",
"R  c #99760C",
"E  c #9B7C0D",
"W  c #836E10",
"Q  c #857113",
"!  c #8C7614",
"~  c #8C7914",
"^  c #A17E0E",
"/  c #0E8B00",
"(  c #168300",
")  c #158800",
"_  c #109200",
"`  c #159B00",
"'  c #0BA500",
"]  c #12A500",
"[  c #09BC00",
"{  c #33A105",
"}  c #24BD01",
"|  c #3ABA03",
" . c #798205",
".. c #699E07",
"X. c #7F9A0F",
"o. c #52A704",
"O. c #49B805",
"+. c #56BB07",
"@. c #69A807",
"#. c #76A90C",
"$. c #64B107",
"%. c #67B90B",
"&. c #74B30F",
"*. c #6DB611",
"=. c #05C500",
"-. c #0BC400",
";. c #03CE00",
":. c #1ACE01",
">. c #06D500",
",. c #1BDD01",
"<. c #2AC902",
"1. c #37C303",
"2. c #35CF04",
"3. c #3CCD03",
"4. c #25D301",
"5. c #23DC00",
"6. c #2ADF04",
"7. c #32D404",
"8. c #34D807",
"9. c #02E600",
"0. c #0BE500",
"q. c #0CEE00",
"w. c #16E400",
"e. c #1BE502",
"r. c #14EC01",
"t. c #03F400",
"y. c #0BF300",
"u. c #00FF00",
"i. c #12F101",
"p. c #24E202",
"a. c #4DC404",
"s. c #47C807",
"d. c #4FC309",
"f. c #56C609",
"g. c #46DA06",
"h. c #50DE05",
"j. c #6BCF0F",
"k. c #7CCA08",
"l. c #888B0A",
"z. c #9F8B06",
"x. c #9C820C",
"c. c #849A09",
"v. c #8B9B0C",
"b. c #99930C",
"n. c #9B8213",
"m. c #9F8B14",
"M. c #9D8B1A",
"N. c #A08A06",
"B. c #A4830D",
"V. c #A9860E",
"C. c #A48A0D",
"Z. c #AC8A0F",
"A. c #B08B0F",
"S. c #AA920E",
"D. c #A4990F",
"F. c #AC990E",
"G. c #B59B05",
"H. c #B59A09",
"J. c #B39C0D",
"K. c #B89D0E",
"L. c #A48611",
"P. c #A48914",
"I. c #AC8D12",
"U. c #A18C1A",
"Y. c #B28E10",
"T. c #A79010",
"R. c #AC9413",
"E. c #A59C15",
"W. c #AB9B15",
"Q. c #A4921A",
"!. c #A49C18",
"~. c #AE9D1B",
"^. c #B59211",
"/. c #B99312",
"(. c #B69B13",
"). c #BB9C15",
"_. c #B29B1A",
"`. c #BB9E18",
"'. c #82A80F",
"]. c #9AA30F",
"[. c #8AA510",
"{. c #94A512",
"}. c #9BA213",
"|. c #95AD13",
" X c #8AB715",
".X c #A4A60E",
"XX c #BBA609",
"oX c #BCA50B",
"OX c #AFA015",
"+X c #A3A914",
"@X c #AAA718",
"#X c #BCA313",
"$X c #BDAA12",
"%X c #B6A41C",
"&X c #BDA31B",
"*X c #BDAA1E",
"=X c #B3BA1A",
"-X c #AE9F23",
";X c #B09E20",
":X c #B9A622",
">X c #B5BA24",
",X c #C2AA0A",
"<X c #C3AC0C",
"1X c #C7B10A",
"2X c #CAB50D",
"3X c #CEBA0C",
"4X c #D0BE0D",
"5X c #C0A713",
"6X c #C3AC13",
"7X c #C1A31A",
"8X c #C3AA1D",
"9X c #C7B114",
"0X c #CAB513",
"qX c #C4B916",
"wX c #CEBB13",
"eX c #C7B11A",
"rX c #CAB51C",
"tX c #CDBA1C",
"yX c #D0BD14",
"uX c #D0BE1A",
"iX c #C5AD20",
"pX c #C6B324",
"aX c #C9B223",
"sX c #CCB924",
"dX c #C6B929",
"fX c #CDBC29",
"gX c #D0BF2A",
"hX c #81C318",
"jX c #A4C708",
"kX c #BCC828",
"lX c #D4C30D",
"zX c #D7C80E",
"xX c #D9CA0E",
"cX c #DED00D",
"vX c #D5C414",
"bX c #D8C713",
"nX c #DBCC14",
"mX c #D5C419",
"MX c #D8C819",
"NX c #DED113",
"BX c #E2D50E",
"VX c #E6DA0F",
"CX c #E2D511",
"ZX c #E6DA10",
"AX c #CEC22C",
"SX c #D3C42D",
"DX c #D1C630",
"FX c #D5CA30",
/* pixels */
"u.u.u.u.u.u.u.u.u.u.u.u.u.u.u.u.u.u.u.u.u.u.u.u.u.u.u.u.u.u.9.=.` h s 1 , g t.u.u.u.u.u.u.u.u.u.u.u.u.u.u.u.u.u.u.u.u.u.u.u.u.u.",
"u.u.u.u.u.u.u.u.u.u.u.u.u.u.u.u.u.u.u.u.u.u.u.u.u.u.9.[ ) d s 0 1 - $ @ X - -.u.u.u.u.u.u.u.u.u.u.u.u.u.u.u.u.u.u.u.u.u.u.u.u.u.",
"u.u.u.u.u.u.u.u.u.u.u.u.u.u.u.u.u.u.u.9.>.-.] f d < = ; ; * $ @ + O O . $ $ ` u.u.u.u.u.u.u.u.u.u.u.u.u.u.u.u.u.u.u.u.u.u.u.u.u.",
"u.u.u.u.u.u.u.u.u.u.u.u.u.u.u.;._ g 3 1 , - - * & = = * $ * @ @ @ + O * ; $ g u.u.u.u.u.u.u.u.u.u.u.u.u.u.u.u.u.u.u.u.u.u.u.u.u.",
"u.u.u.u.u.u.u.t.>.[ ] f i 2 $ * * * * * * 4 4 4 4 = = * * * @ @ + X O # ; & < u.u.u.u.u.u.u.u.u.u.u.u.u.u.u.u.u.u.u.u.u.u.u.u.u.",
"u.u.u.u.u.{ > & & % + + + @ $ * * * 4 ; 4 4 4 4 4 ; ; * + X . . .   + + = ; * ;.u.u.u.u.u.u.u.u.u.u.u.u.u.u.u.u.u.u.u.u.u.u.u.u.",
"u.u.u.u.j.fX; . . + + @ @ $ * * = ; ; 4 4 = = * $ @ @ + @ + O O X   + + * = * ( u.u.u.u.u.u.u.u.u.u.u.u.u.u.u.u.u.u.u.u.u.u.u.u.",
"u.u.u.*.FXSXz . . + + @ $ @ * * = * $ @ @ @ * * * $ $ @ @ @ + + X   + + $ = # a u.u.u.u.u.u.u.u.u.u.u.u.u.u.u.u.u.u.u.u.u.u.u.u.",
"u.u.g.FXFXFXJ @ O + + + @ + @ * $ * * * 4 = * = = * * $ @ @ + . . . X + $ * $ 3 9.u.u.u.u.u.u.u.u.u.u.u.u.u.u.u.u.u.u.u.u.u.u.u.",
"u.u.>XDX-XFX-X* . X + + @ * * * * = 4 4 4 4 4 4 = * $ @ O . . .   . X + $ * * % >.u.u.u.u.u.u.u.u.u.u.u.u.u.u.u.u.u.u.u.u.u.u.u.",
"u.*.DXM.N DXDX8 + + @ @ $ * = = 4 4 4 4 4 4 * @ @ @ + + + O . . . . . O + * * # ] u.u.u.u.u.u.u.u.u.u.u.u.u.u.u.u.u.u.u.u.u.u.u.",
"8.kXDX1 5 fXDXQ @ + @ $ * * * = = = * @ + @ @ * $ @ @ + + O . .   . X O O * * + p u.u.u.u.u.u.u.u.u.u.u.u.u.u.u.u.u.u.u.u.u.u.u.",
"hXDX-X5 = Q DX-X- + @ @ @ @ @ * * * = = = = * * * @ @ + O . .       . O @ + * @ % u.u.u.u.u.u.u.u.u.u.u.u.u.u.u.u.u.u.u.u.u.u.u.",
">XFX~ 5 = q fXdXq + + + $ = = 4 4 4 4 4 = = * @ @ @ @ O .   . .   . . . + + * $ @ =.u.u.u.u.u.u.u.u.u.u.u.u.u.u.u.u.u.u.u.u.u.u.",
"fXSXb 5 = 4 -XAXN $ * * = 4 4 4 4 4 4 = = * @ @ + + O O . . . .   . . X + + $ $ + ) u.u.u.u.u.u.u.u.u.u.u.u.u.u.u.u.u.u.u.u.u.u.",
"AXSX0 5 4 = Q fX-X$ * = = = = = = * @ @ @ @ @ @ + + O O . .   .     . . O @ @ * X p u.u.u.u.u.u.u.u.u.u.u.u.u.u.u.u.u.u.u.u.u.u.",
"gXAX, 5 4 $ l gXfX7 @ * * @ @ * * * * * * @ * @ @ + + + . . . . . . . O O + @ $ + : t.u.u.u.u.u.u.u.u.u.u.u.u.u.u.u.u.u.u.u.u.u.",
"fXgX5 * 4 $ = %XaXJ + @ $ ; = = ; 4 ; = * * @ @ @ + O O . O O O . . . O X + + $ $ o 9.u.u.u.u.u.u.u.u.u.u.u.u.u.u.u.u.u.u.u.u.u.",
"dXfX6 $ 4 ; * F gXM.$ = 4 ; 4 4 4 4 = = * @ @ @ @ @ @ @ @ + + + O X . . O + + $ $ . ' u.u.u.u.u.u.u.u.u.u.u.u.u.u.u.u.u.u.u.u.u.",
">XfXy * * ; $ q pX:X; * 4 4 4 4 = * * @ * * * * * * * @ @ @ + O . . . X O O + + $ X u u.u.u.u.u.u.u.u.u.u.u.u.u.u.u.u.u.u.u.u.u.",
" XfXF $ $ ; $ ; ;XaXz $ ; = * $ @ * = = 4 4 = = = * * * @ + X X + @ @ @ X O + + $ + + u.u.u.u.u.u.u.u.u.u.u.u.u.u.u.u.u.u.u.u.u.",
"f.pXU.@ $ = $ $ Q aXU.+ $ $ * = = 4 4 4 4 = 4 * * @ @ @ $ * - - - 5 * $ C J.$Xn.7 + . =.u.u.u.u.u.u.u.u.u.u.u.u.u.u.u.u.u.u.u.u.",
"i.>XiX, + * * @ 7 aXaX, $ * = = 4 4 4 4 4 * @ @ @ ; ; 4 ; ; = = L G.L j VXnXmXtXx.; X / 3.f.6.u.u.u.u.u.u.u.u.u.u.u.u.u.u.u.u.u.",
"u.d.fXQ.$ @ * $ $ U.aXb @ = = = * * * * @ * * 4 4 4 4 4 ; = ; B.yXcXBXG.xXMX9X$XwXlXz.J.nXMXrXk.j.h.i.u.u.u.u.u.u.u.u.u.u.u.u.u.",
"u.u.|.aXJ X $ $ @ B iX! O $ $ + @ @ * * = = ; ; 4 ; ; - * m x.rXmXnXBX1X(.).(.oXwXnXVXxXxXbXeXBXNXMX=Xt.e.a.t.g.jXk.y.u.u.u.u.u.",
"u.u.6.iX*XB $ @ + q 7X;X+ X @ @ @ @ * * * * * * * t J.0X9X0X6XeXtXlXxX(.uXuX#X9X2X1XBX3X4XzX,XCXnXMXuX].qXtX.XBXNXMXtXg.u.u.u.u.",
"u.u.u.O.iXiXM @ + $ _.iXy X + @ @ @ @ * @ $ * = 8 XXZXnXmXsX(.#X<XBXZX0XmXmX<XyXCXBX,X,XZXZXlX2XbXmXeXyXmXmX9XzXNXmXtX}./ ;.9.t.",
"u.u.u.u.*.iX7XA @ + S iXn.O O O O @ @ @ * * = K 4X3XCXnXmXeX(.5X<XnXnXnX4X6X0XMXnXBXH.<XnXnXbX2X1X9X6XnXnXMX<X2X3XuXrXT.0 $ w H ",
"u.u.u.u.u.#.iX8XW $ - &X&X& . + @ @ @ * * = x 0XzXlX,X3X0X#XtXtX6XmXtX#X(.^.rXmXnXlXMX9XmXmXuX2X3X9X9XCXBXxX3XvX0XS.I 1 q E /.b.",
"u.u.u.u.u.t.+.8X8XU.0 n.7Xy X @ @ 9 S 8 4 m E 9X2X1XK.6XwXwXmXMXwX9XeXtXuX6X#X$XyXxXnX9X9XsXrXzXnXmXeXG.3X,XxXD.c q S B./././.c.",
"u.u.u.u.u.u.u.2.+X7X7X_.7XS X + e eXsX`.H.BXzX6X6XsXeX6XmX0XnXCXxXoX9XuXyX9X6XJ.zXNXnXuX(.(.<XCXnXmXeX#XJ.x.0 9 I /./.A.R k /.c.",
"u.u.u.u.u.u.u.u.r.d.W.7X7XI.X O ^.mXuX6XoXtX6X6X9XuXuX0X#X6X2XlX3XwX2XBXnXMXtX#X9X2X<X6XK.<X<XlX2XtXC.z q v ^ Y./.Z.B , # $ /.#.",
"u.u.u.u.u.u.u.u.u.u.t.1.#.+X1 # $XnXwX$X#X6XeX#X9XMXnXvXG.oXZXnXmXiX0XZXNXMXtXeX9XyXvXvXmXnXCXG.z.j 8 S Z./.Y.R v & O + + - ^.@.",
"u.u.u.u.u.u.u.u.u.u.u.u.u.y.} j - l W.uXrX#XmX#X/.nXCXxX4XcXZXnXmXsXK.lXnXmXeX#XmXtX7XrXmXqXK 9 k R Z././.P 7 $ + + + + X , /.$.",
"u.u.u.u.u.u.u.u.u.u.u.u.u.u.e.^.V.x 5 z m.(.bX1XxX4XcX3XxX3XxXvXwX7X6X0X,X<X1XnXMXtX_.x.N 9 c B./.^.V.S 1 + @ @ @ @ + + O 7 /.+.",
"u.u.u.u.u.u.u.u.u.u.u.u.u.u.r.S./.^.Z.I 1 5 K 2XmXyX9XtXMXyX9X<X5X).0XMX2XNX4X1XwXD 8 9 U A././.V.!.~.$ $ * $ @ + + @ + + 0 ^.a.",
"u.u.u.u.u.u.u.u.u.u.u.u.u.u.i.S.V.U I.).(.I e 5 C N.K.tXrX0XuXeXtXuX<XNX3XnXXXD 8 x U /./.V.E ~.pXaX_.* * @ @ @ @ @ @ + + q /.s.",
"u.u.u.u.u.u.u.u.u.u.u.u.u.u.i.D.x.$ - C (.&X`.P.r ; t I.<XtXrXtXmXmXyXxXz.7 , C Z.^.).I.m ; w 8X&X`.C.* $ $ $ * $ $ + + + j /.2.",
"u.u.u.u.u.u.u.u.u.u.u.u.u.u.y.].P.# O + ; N n.&X&XL.n 5 j Y (.9XnX$XU 9 t P A./.(.T c , * * 7 I.G l B.* * * * @ $ @ @ @ @ j /.7.",
"u.u.u.u.u.u.u.u.u.u.u.u.u.u.t.|.Q.- + + + @ * 8 m.7X`.(.V = , G k = e Z././.(.Y 5 * $ ; ; ; ; R L.A U = * * @ $ * @ $ + X c ^.5.",
"u.u.u.u.u.u.u.u.u.u.u.u.u.u.t.|._.* + @ @ @ @ $ * r P I.).Z.D e C ^ /./.E V 8 * = ; 4 4 ; = - e E V.t * * * * * $ @ + + + N ^.p.",
"u.u.u.u.u.u.u.u.u.u.u.u.u.u.u. X&X& X @ @ $ $ $ $ * = , Z Y./.V././.E e 4 = * 5 6 5 4 ; * 4 4 4 ; ; * * = * * * + + + + O C ^.p.",
"u.u.u.u.u.u.u.u.u.u.u.u.u.u.u.&.iX, + + + @ $ * * * * = ; N ).V./.P 5 = ; 4 6 6 5 = = 4 4 4 4 ; = = ; ; = * @ @ @ @ + X O S F.e.",
"u.u.u.u.u.u.u.u.u.u.u.u.u.u.u.%.iX7 + @ @ @ + * * = = = * z 7XV./.D ; 6 6 6 5 ; & 5 6 6 5 5 * ; 5 5 ; = $ $ * @ @ O + + + P F.w.",
"u.u.u.u.u.u.u.u.u.u.u.u.u.u.u.d.pXl + + $ $ * $ $ $ = = ; t 8XI./.Y 5 6 5 - = 5 6 6 6 5 ; ; 4 6 4 = - * * $ @ + + + + + + U F.r.",
"u.u.u.u.u.u.u.u.u.u.u.u.u.u.u.3.iXM + @ @ $ * = = = $ - ; e 8XR./.E 5 ; * 6 6 5 6 6 ; ; 6 6 5 4 * * * * * + @ @ $ @ + X - x.D.q.",
"u.u.u.u.u.u.u.u.u.u.u.u.u.u.u.4.aXJ @ @ $ $ $ $ = ; ; ; ; 5 iX`.Y.I.; 5 6 6 6 5 = 4 4 6 6 5 - = = = * $ @ $ $ $ + + $ Z Z.Z.o.t.",
"u.u.u.u.u.u.u.u.u.u.u.u.u.u.u.w.iX~ O @ $ * * = * - ; 4 5 6 iX8XZ.(.6 6 6 4 ; ; 6 6 6 4 = ; ; ; = $ @ $ * $ @ + $ e B.Y.v.:.u.u.",
"u.u.u.u.u.u.u.u.u.u.u.u.u.u.u.t.&Xm.+ + # $ = = ; ; 4 = 4 6 *XiXZ.).9 4 = 4 5 6 6 4 = 4 ; 4 ; $ $ * * * $ + @ , U Y.C.| t.u.u.u.",
"u.u.u.u.u.u.u.u.u.u.u.u.u.u.u.u._.~.+ + @ @ @ * ; 4 4 5 4 ; OXpXS.7Xq = 6 6 5 4 ; 4 5 4 4 - * = = = * $ $ - v A.T.@.0.u.u.u.u.u.",
"u.u.u.u.u.u.u.u.u.u.u.u.u.u.u.u.}.*X$ + $ $ $ * * - 4 6 5 5 Q.aXR.7Xx 6 6 5 ; 5 5 6 5 ; $ = = = * $ $ $ r V.Y.l.,.t.u.u.u.u.u.u.",
"u.u.u.u.u.u.u.u.u.u.u.u.u.u.u.u.'.8X- @ @ $ $ * * = * 4 4 5 n.aX^.).c 5 ; 4 6 6 6 ; - - 4 ; = * $ * 8 I ^.m.O.t.u.u.u.u.u.u.u.u.",
"u.u.u.u.u.u.u.u.u.u.u.u.u.u.u.u.$.7X7 $ @ * $ $ * = = ; ; = W aXR.7XN 4 6 6 6 5 * ; 4 4 4 = $ * - F `.`...y.u.u.u.u.u.u.u.u.u.u.",
"u.u.u.u.u.u.u.u.u.u.u.u.u.u.u.u.3.(.P.y $ $ * * * * = 4 4 5 A aX_.(.S 6 6 4 = ; 5 5 5 = * * ; b P.8X[.<.u.u.u.u.u.u.u.u.u.u.u.u.",
"u.u.u.u.u.u.u.u.u.u.u.u.u.u.u.u.u.4.F.*Xn.& $ - * - * * 4 5 c aX`./.P 6 = - 5 6 5 5 * * = 0 Q.iX%X| t.u.u.u.u.u.u.u.u.u.u.u.u.u.",
"u.u.u.u.u.u.u.u.u.u.u.u.u.u.u.u.u.u.r.%.%X&XF - * = = ; = ; t iX`.Y.U 4 4 6 6 6 = * = q Q *X8X*.w.u.u.u.u.u.u.u.u.u.u.u.u.u.u.u.",
"u.u.u.u.u.u.u.u.u.u.u.u.u.u.u.u.u.u.u.u.,.E.8X%Xw $ = ; 4 ; 9 7X`.^.T 6 6 6 4 $ 4 4 N iXiX!.:.u.u.u.u.u.u.u.u.u.u.u.u.u.u.u.u.u.",
"u.u.u.u.u.u.u.u.u.u.u.u.u.u.u.u.u.u.u.u.u.t.d.@X*X~ 7 * ; 4 9 (.(.Y.R 6 ; = = 5 n P.iX@Xd.y.u.u.u.u.u.u.u.u.u.u.u.u.u.u.u.u.u.u.",
"u.u.u.u.u.u.u.u.u.u.u.u.u.u.u.u.u.u.u.u.u.u.u.y.'.*X8XN $ = 9 _.(.Y.^ * ; 4 9 n.7X`.X.0.u.u.u.u.u.u.u.u.u.u.u.u.u.u.u.u.u.u.u.u.",
"u.u.u.u.u.u.u.u.u.u.u.u.u.u.u.u.u.u.u.u.u.u.u.u.u.7.{.&XL.k , I./.Y.B.6 e P Y.).v.2.u.u.u.u.u.u.u.u.u.u.u.u.u.u.u.u.u.u.u.u.u.u.",
"u.u.u.u.u.u.u.u.u.u.u.u.u.u.u.u.u.u.u.u.u.u.u.u.u.u.u.+.OX).T I./.V.Z.V A./.S.o.t.u.u.u.u.u.u.u.u.u.u.u.u.u.u.u.u.u.u.u.u.u.u.u.",
"u.u.u.u.u.u.u.u.u.u.u.u.u.u.u.u.u.u.u.u.u.u.u.u.u.u.u.u.e.$.^././.B.Y./.Y...5.u.u.u.u.u.u.u.u.u.u.u.u.u.u.u.u.u.u.u.u.u.u.u.u.u.",
"u.u.u.u.u.u.u.u.u.u.u.u.u.u.u.u.u.u.u.u.u.u.u.u.u.u.u.u.u.u.5.v.Y.x./.b.1.u.u.u.u.u.u.u.u.u.u.u.u.u.u.u.u.u.u.u.u.u.u.u.u.u.u.u.",
"u.u.u.u.u.u.u.u.u.u.u.u.u.u.u.u.u.u.u.u.u.u.u.u.u.u.u.u.u.u.u.y.2. .O.q.u.u.u.u.u.u.u.u.u.u.u.u.u.u.u.u.u.u.u.u.u.u.u.u.u.u.u.u."
};
