/* XPM */
static char *diamond[] = {
/* columns rows colors chars-per-pixel */
"64 64 16 1 ",
"  c #3EC2BC",
". c #54C2BD",
"X c #58C6C2",
"o c #5AC9C5",
"O c #64D0CC",
"+ c #66D4CF",
"@ c #6AD2CE",
"# c #6DD7D3",
"$ c #6CDAD5",
"% c #71DFDA",
"& c #78E3DF",
"* c #7CEAE5",
"= c #81ECE8",
"- c #84F2ED",
"; c #98F2F3",
": c #98FAFA",
/* pixels */
"                                                                ",
"                                                                ",
"  ............................................................  ",
"  ............................................................  ",
"  ..;;;;;;;;;;;;;;;;;;;;;;;;;;;;;;;;;;;;;;;;;;;;;;;;;;;;;;;;..  ",
"  ..;;;;;;;;;;;;;;;;;;;;;;;;;;;;;;;;;;;;;;;;;;;;;;;;;;;;;;;;..  ",
"  ..;;::::::::::::::::::::::::::::::::::::::::::::::::::::;;..  ",
"  ..;;::::::::::::::::::::::::::::::::::::::::::::::::::::;;..  ",
"  ..;;::::::::::::::::::::::::::::::::::::::::::::::::::::;;..  ",
"  ..;;::::::::::::::::::::::::::::::::::::::::::::::::::::;;..  ",
"  ..;;::::::::::::::::::::::::::::::::::::::::::::::::::::;;..  ",
"  ..;;::::::::::::::::::::::::::::::::::::::::::::::::::::;;..  ",
"  ..==----------------------------------------------------==..  ",
"  ..==----------------------------------------------------==..  ",
"  ..==----------------------------------------------------==..  ",
"  ..==----------------------------------------------------==..  ",
"  ..==----------------------------------------------------==..  ",
"  ..==----------------------------------------------------==..  ",
"  ..==----------------------------------------------------==..  ",
"  ..==----------------------------------------------------==..  ",
"  ..&&****************************************************&&..  ",
"  ..&&****************************************************&&..  ",
"  ..&&****************************************************&&..  ",
"  ..&&****************************************************&&..  ",
"  ..&&****************************************************&&..  ",
"  ..&&****************************************************&&..  ",
"  ..&&****************************************************&&..  ",
"  ..&&****************************************************&&..  ",
"  ..##%%%%%%%%%%%%%%%%%%%%%%%%%%%%%%%%%%%%%%%%%%%%%%%%%%%%##..  ",
"  ..##%%%%%%%%%%%%%%%%%%%%%%%%%%%%%%%%%%%%%%%%%%%%%%%%%%%%##..  ",
"  ..##%%%%%%%%%%%%%%%%%%%%%%%%%%%%%%%%%%%%%%%%%%%%%%%%%%%%##..  ",
"  ..##%%%%%%%%%%%%%%%%%%%%%%%%%%%%%%%%%%%%%%%%%%%%%%%%%%%%##..  ",
"  ..##%%%%%%%%%%%%%%%%%%%%%%%%%%%%%%%%%%%%%%%%%%%%%%%%%%%%##..  ",
"  ..##%%%%%%%%%%%%%%%%%%%%%%%%%%%%%%%%%%%%%%%%%%%%%%%%%%%%##..  ",
"  ..##%%%%%%%%%%%%%%%%%%%%%%%%%%%%%%%%%%%%%%%%%%%%%%%%%%%%##..  ",
"  ..##%%%%%%%%%%%%%%%%%%%%%%%%%%%%%%%%%%%%%%%%%%%%%%%%%%%%##..  ",
"  ..@@$$$$$$$$$$$$$$$$$$$$$$$$$$$$$$$$$$$$$$$$$$$$$$$$$$$$@@..  ",
"  ..@@$$$$$$$$$$$$$$$$$$$$$$$$$$$$$$$$$$$$$$$$$$$$$$$$$$$$@@..  ",
"  ..@@$$$$$$$$$$$$$$$$$$$$$$$$$$$$$$$$$$$$$$$$$$$$$$$$$$$$@@..  ",
"  ..@@$$$$$$$$$$$$$$$$$$$$$$$$$$$$$$$$$$$$$$$$$$$$$$$$$$$$@@..  ",
"  ..@@$$$$$$$$$$$$$$$$$$$$$$$$$$$$$$$$$$$$$$$$$$$$$$$$$$$$@@..  ",
"  ..@@$$$$$$$$$$$$$$$$$$$$$$$$$$$$$$$$$$$$$$$$$$$$$$$$$$$$@@..  ",
"  ..@@$$$$$$$$$$$$$$$$$$$$$$$$$$$$$$$$$$$$$$$$$$$$$$$$$$$$@@..  ",
"  ..@@$$$$$$$$$$$$$$$$$$$$$$$$$$$$$$$$$$$$$$$$$$$$$$$$$$$$@@..  ",
"  ..OO++++++++++++++++++++++++++++++++++++++++++++++++++++OO..  ",
"  ..OO++++++++++++++++++++++++++++++++++++++++++++++++++++OO..  ",
"  ..OO++++++++++++++++++++++++++++++++++++++++++++++++++++OO..  ",
"  ..OO++++++++++++++++++++++++++++++++++++++++++++++++++++OO..  ",
"  ..OO++++++++++++++++++++++++++++++++++++++++++++++++++++OO..  ",
"  ..OO++++++++++++++++++++++++++++++++++++++++++++++++++++OO..  ",
"  ..OO++++++++++++++++++++++++++++++++++++++++++++++++++++OO..  ",
"  ..OO++++++++++++++++++++++++++++++++++++++++++++++++++++OO..  ",
"  ..XXooooooooooooooooooooooooooooooooooooooooooooooooooooXX..  ",
"  ..XXooooooooooooooooooooooooooooooooooooooooooooooooooooXX..  ",
"  ..XXooooooooooooooooooooooooooooooooooooooooooooooooooooXX..  ",
"  ..XXooooooooooooooooooooooooooooooooooooooooooooooooooooXX..  ",
"  ..XXooooooooooooooooooooooooooooooooooooooooooooooooooooXX..  ",
"  ..XXooooooooooooooooooooooooooooooooooooooooooooooooooooXX..  ",
"  ..XXXXXXXXXXXXXXXXXXXXXXXXXXXXXXXXXXXXXXXXXXXXXXXXXXXXXXXX..  ",
"  ..XXXXXXXXXXXXXXXXXXXXXXXXXXXXXXXXXXXXXXXXXXXXXXXXXXXXXXXX..  ",
"  ............................................................  ",
"  ............................................................  ",
"                                                                ",
"                                                                "
};
