/* XPM */
static char *_29e00f2f32d4853a2954e9fe15b9187[] = {
/* columns rows colors chars-per-pixel */
"64 64 147 2 ",
"   c black",
".  c #020201",
"X  c gray3",
"o  c #110E0A",
"O  c #001100",
"+  c #14110B",
"@  c #1B150D",
"#  c #1E1911",
"$  c #20190F",
"%  c #231D13",
"&  c #241C11",
"*  c #241E15",
"=  c #002000",
"-  c #003400",
";  c #262212",
":  c #292116",
">  c #2C2315",
",  c #302617",
"<  c #31281B",
"1  c #352919",
"2  c #3B3020",
"3  c #41331F",
"4  c #4D3D25",
"5  c #493C28",
"6  c #19400B",
"7  c #005C00",
"8  c #37581E",
"9  c #1F650E",
"0  c #117108",
"q  c #4E412D",
"w  c #57472F",
"e  c #5F4B2D",
"r  c #5F4D31",
"t  c #604C2D",
"y  c #675231",
"u  c #6F5B3C",
"i  c #745B36",
"p  c #456520",
"a  c #4A6928",
"s  c #6F5E44",
"d  c #7A6546",
"f  c #797642",
"g  c #81653C",
"h  c #84683E",
"j  c #856B41",
"k  c #816A47",
"l  c #866E49",
"z  c #917244",
"x  c #90764E",
"c  c #997948",
"v  c #877151",
"b  c #967B51",
"n  c #997E54",
"m  c #A07F4E",
"M  c #9D6967",
"N  c green",
"B  c #A1814F",
"V  c #AB8650",
"C  c #A28559",
"Z  c #A7895B",
"A  c #B59056",
"S  c #BC9458",
"D  c #BC965D",
"F  c #BD985D",
"G  c #A38962",
"H  c #A78C64",
"J  c #A98F65",
"K  c #AD9168",
"L  c #B29261",
"P  c #BD9961",
"I  c #BC9B67",
"U  c #BE9D68",
"Y  c #C3867E",
"T  c #C8A46D",
"R  c #D0A766",
"E  c #D5A864",
"W  c #D8AA66",
"Q  c #D0A96C",
"!  c #D9AB68",
"~  c #DBAE6B",
"^  c #DCAE69",
"/  c #DCAF6C",
"(  c #DFB06A",
")  c #DDB06C",
"_  c #C2A170",
"`  c #CAA773",
"'  c #D1AC72",
"]  c #DEB270",
"[  c #D3B17F",
"{  c #DDB77D",
"}  c #E0B26C",
"|  c #E1B36D",
" . c #E1B46F",
".. c #E4B56E",
"X. c #E0B470",
"o. c #E3B673",
"O. c #E0B574",
"+. c #E6B870",
"@. c #E7B870",
"#. c #E5B976",
"$. c #E7BA77",
"%. c #E9BB74",
"&. c #ECBD74",
"*. c #E0B87B",
"=. c #E7BB79",
"-. c #E6BB7C",
";. c #E8BC7A",
":. c #EBBE7B",
">. c #EABF7E",
",. c #EFC076",
"<. c #EFC17A",
"1. c #EEC27D",
"2. c #ECC17F",
"3. c #F0C37E",
"4. c #DDBA85",
"5. c #E5A481",
"6. c #EAB682",
"7. c #E1BC84",
"8. c #E3BD84",
"9. c #E2BE88",
"0. c #F3A39B",
"q. c #F3A599",
"w. c #F3A998",
"e. c #F3AE9A",
"r. c #F1B490",
"t. c #F49FA0",
"y. c #E9C083",
"u. c #EEC280",
"i. c #EFC183",
"p. c #EAC184",
"a. c #EEC587",
"s. c #EFC78C",
"d. c #F0C583",
"f. c #F1C087",
"g. c #F1C684",
"h. c #F1C685",
"j. c #F1C786",
"k. c #F1C888",
"l. c #F1C88B",
"z. c #F2C98B",
"x. c #F0C88D",
"c. c #F2C98C",
"v. c #F2CA8D",
"b. c #F2CB8F",
"n. c #F3C094",
"m. c #F2CB91",
"M. c #F3CC92",
/* pixels */
"N N N N N N N N N N N N N N N N N N N N N N N N N N N N N N N N N N N N N N N N N N N N N N N N N N N N N N N N N N N N N N N N ",
"N N N N N N N N N N N N N N N N N N N N N N N N N N N N N N N N N N N N N N N N N N N N N N N N N N N N N N N N N N N N N N N N ",
"N N N N N N N N N N N N N N N N N N N N N N N N N N N N N N N N N N N N N N N N N N N N N N N N N N N N N N N N N N N N N N N N ",
"N N N N N N N N N N N N N N N N N N N N N N N N N N N N N N N N : : N N N N N N N N N N N N N N N N N N N N N N N N N N N N N N ",
"N N N N N N N N N N N N N N N N N N N N N N N N N N N N N N N   &.d.l   N N N N N N N N N N N N N N N N N N N N N N N N N N N N ",
"N N N N N N N N N N N N N N N N N N N N N N N N N N N N N N N   &.,.j   N N N N N N N N N N N N N N N N N N N N N N N N N N N N ",
"N N N N N N N N N N N N N N N N N N N N N N N N N N N N N N N x 1.} A g N N N N N N N N N N N N N N N N N N N N N N N N N N N N ",
"N N N N N N N N N N N N N N N N N N N N N N N N N N N % % % < h.h.) / / * * * N N N N N N N N N N N N N N N N N N N N N N N N N ",
"N N N N N N N N N N N N N N N N N N N N N N N N N N : h.h.h.h.m.M.v.m.v.l.M.M.H X N N N N N N N N N N N N N N N N N N N N N N N ",
"N N N N N N N N N N N N N N N N N N N N N N N N N 5 d.d.M.M.M.m.W W W W W W y.v.d.  N N N N N N N N N N N N N N N N N N N N N N ",
"N N N N N N N N N N N N N N N N N N N N N N N   B <.h.M.M.M.M.m.h.d.$.W W i.v.M.M.d.2 N N N N N N N N N N N N N N N N N N N N N ",
"N N N N N N N N N N N N N N N N N N N N N N N   B <.h.M.M.M.M.M.l.a.6.5.5.i.v.M.M.h.2 N N N N N N N N N N N N N N N N N N N N N ",
"N N N N N N N N N N N N N N N N N N N N N N N   B :.d.M.M.M.M.M.m.d.r.t.t.f.v.M.M.h.2 N N N N N N N N N N N N N N N N N N N N N ",
"N N N N N N N N N N N N N N N N N N N N N N   W %.3.M.M.M.M.9.X X *.r.t.t.f.q X X M.] i N N N N N N N N N N N N N N N N N N N N ",
"N N N N N N N N N N N N N N N N N N N N N N   W %.3.M.M.M.M.M.4.4.d.r.t.t.f.8.4.4.M.} i N N N N N N N N N N N N N N N N N N N N ",
"N N N N N N N N N N N N N N N N N N N N N N   W @.<.h.M.M.M.v.M.M.w.0.t.t.q.n.M.M.l.( i N N N N N N N N N N N N N N N N N N N N ",
"N N N N N N N N N N N N N N N N N N N N N N   W } %.3.v.l.v.M.M.C M Y e.e.e.n.m.v.=.m N N N N N N N N N N N N N N N N N N N N N ",
"N N N N N N N N N N N N N N N N N N N N N N   W W ( ,.h.h.v.M.l.X X s M.M.M.M.v.d.W 1 N N N N N N N N N N N N N N N N N N N N N ",
"N N N N N N N N N N N N N N N N N N N N N N N   z W ~ ,.,.3.d.M.M.M.b.M.M.h.h.=.W   N N N N N N N N N N N N N N N N N N N N N N ",
"N N N N N N N N N N N N N N N N N N N N N N N N N e W ^ ^ $.d.l.j.l.l.j.<.<.} B > N N N N N N N N N N N N N N N N N N N N N N N ",
"N N N N N N N N N N N N N N N N N N N N N N N N N 3 W W W ) o.o.o.d.h.h...| ^ z   N N N N N N N N N N N N N N N N N N N N N N N ",
"N N N N N N N N N N N N N N N N N N N N N N N N N 3 W ] ] ] ] ] ) h.l.h.~ ~ ~ z   N N N N N N N N N N N N N N N N N N N N N N N ",
"N N N N N N N N N N N N N N N N N N N N N N N N N 3 ~ M.M.M.M.M.M.M.M.M.h.h.} z   N N N N N N N N N N N N N N N N N N N N N N N ",
"N N N N N N N N N N N N N N N N N N N N N N N   B <.h.M.M.M.M.M.M.M.M.M.m.h.o.z     N N N N N N N N N N N N N N N N N N N N N N ",
"N N N N N N N N N N N N N N N N N N N N N N N z Q d.v.M.q J M.M.M.M.M.M.M.l.| z   z N N N N N N N N N N N N N N N N N N N N N N ",
"N N N N N N N N N N N N N N N N N N N N N N 3 ( >.l.m.v.3 d K M.M.M.b.l.y.h.( z   } y N N N N N N N N N N N N N N N N N N N N N ",
"N N N N N N N N N N N N N N N N N N N N N 1 W ,.l.M.v.h.W t o M.M.M.l.d.! 1.] z   ,.^ i - N N N N N N N N N N N N N N N N N N N ",
"N N N N N N N N N N N N N N N N N N N N N 1 W ,.j.v.d.h.W t o M.M.M.d.,.W d.( z   ,.^ i - N N N N N N N N N N N N N N N N N N N ",
"N N N N N N N N N N N N N N N N N N N N N N   W y.y.W W   v M.M.M.M.a.,.W 2.] z   W 1 N N N N N N N N N N N N N N N N N N N N N ",
"N N N N N N N N N N N N N N N N N N N N N N N e _ a.R e l _ M.M.M.M.g.,.W i.) z   t N N N N N N N N N N N N N N N N N N N N N N ",
"N N N N N N N N N N N N N N N N N N N N N N N   G l.R   h.l.M.M.M.M.j.,.W 1.] z   O N N N N N N N N N N N N N N N N N N N N N N ",
"N N N N N N N N N N N N N N N N N N N N N N N   G l.R   h.l.b.h.d.d.d.a.W 2.o.z   N N N N N N N N N N N N N N N N N N N N N N N ",
"N N N N N N N N N N N N N N N N N N N N N N N   J z.'   d.l.m.m.M.M.M.M.d.d.| z   N N N N N N N N N N N N N N N N N N N N N N N ",
"N N N N N N N N N N N N N N N N N N N N N N N   H v.'   h.l.M.M.M.M.M.M.d.d.( z   N N N N N N N N N N N N N N N N N N N N N N N ",
"N N N N N N N N N N N N N N N N N N N N N N N   G l.'   d.l.M.M.M.M.v.l.h.j.o.z   N N N N N N N N N N N N N N N N N N N N N N N ",
"N N N N N N N N N N N N N N N N N N N N N N N   G v.'   j.l.M.M.M.M.l.d.d.j.) z   N N N N N N N N N N N N N N N N N N N N N N N ",
"N N N N N N N N N N N N N N N N N N N N N N N   C Z # h.h.v.M.M.M.g.g.d.h.a.| z   N N N N N N N N N N N N N N N N N N N N N N N ",
"N N N N N N N N N N N N N N N N N N N N N N N N N + # d.v.m.M.M.M.g.g.j.d.j.| z   N N N N N N N N N N N N N N N N N N N N N N N ",
"N N N N N N N N N N N N N N N N N N N N N N N N N N # h.M.M.M.M.M.g.d.d.h.h.] z   N N N N N N N N N N N N N N N N N N N N N N N ",
"N N N N N N N N N N N N N N N N N N N N N N N N N N # d.M.M.M.M.M.g.j.d.h.j.( z   N N N N N N N N N N N N N N N N N N N N N N N ",
"N N N N N N N N N N N N N N N N N N N N N N N N N N $ h.M.M.M.M.M.g.g.g.a.h.) z   N N N N N N N N N N N N N N N N N N N N N N N ",
"N N N N N N N N N N N N N N N N N N N N N N N N N N # h.M.M.M.M.M.M.M.M.M.M.O.z   N N N N N N N N N N N N N N N N N N N N N N N ",
"N N N N N N N N N N N N N N N N N N N N N N N N N 8 I h.M.M.M.M.M.M.l.j.] x.o.z   N N N N N N N N N N N N N N N N N N N N N N N ",
"N N N N N N N N N N N N N N N N N N N N N N N N a b d.l.M.M.M.M.M.M.a.$.i 8.%.D u N N N N N N N N N N N N N N N N N N N N N N N ",
"N N N N N N N N N N N N N N N N N N N N N N N < L d.h.M.M.M.M.M.M.b.-.W   [ d.1.h.< N N N N N N N N N N N N N N N N N N N N N N ",
"N N N N N N N N N N N N N N N N N N N N N N   h.d.l.M.M.M.M.M.M.M.d.$.W   [ M.v.d.h.2 N N N N N N N N N N N N N N N N N N N N N ",
"N N N N N N N N N N N N N N N N N N N N N 2 h.d.v.M.M.M.W $.h.M.M.d.l   j.v.M.M.M.d.d.k - N N N N N N N N N N N N N N N N N N N ",
"N N N N N N N N N N N N N N N N N N N N N 2 d.v.m.m.v.O.@.:.d.M.M.v.` n w { M.M.M.o.1.T f 7 N N N N N N N N N N N N N N N N N N ",
"N N N N N N N N N N N N N N N N N N N N N r h.M.M.M.l.W ,.3.d.M.M.M.l.d., Z 8.M.b.^ -.i.U   N N N N N N N N N N N N N N N N N N ",
"N N N N N N N N N N N N N N N N N N N - i ) h.M.M.M.s.~ ,.3.h.M.M.M.l.h.W @ J M.M.,.^ o.U   N N N N N N N N N N N N N N N N N N ",
"N N N N N N N N N N N N N N N N N N N - i / h.M.M.M.m.m.M.M.M.M.M.M.l.d.W @ J v.M.,.^ o.U   N N N N N N N N N N N N N N N N N N ",
"N N N N N N N N N N N N N N N N N N N - i ] h.M.M.M.M.m.M.M.M.M.d.( o.a.W @ Z =.W M.m.v.U   N N N N N N N N N N N N N N N N N N ",
"N N N N N N N N N N N N N N N N N N N - i ) h.M.M.M.M.M.M.M.M.M.d.W o.d.W @ Z :.W M.M.j.P   N N N N N N N N N N N N N N N N N N ",
"N N N N N N N N N N N N N N N N N N N - i ) d.M.M.M.M.M.M.M.M.M.d.~ o.h.W @ Z -.W M.M.j.F   N N N N N N N N N N N N N N N N N N ",
"N N N N N N N N N N N N N N N N N N N - i ) h.M.O.^ ,.d.M.M.M.M.M.M.l.d.W @ J M.M.M.j.%.V   N N N N N N N N N N N N N N N N N N ",
"N N N N N N N N N N N N N N N N N N N - i ) h.M.O.} <.d.M.M.M.M.M.j.d.h.W @ Z h.d.h.<...V   N N N N N N N N N N N N N N N N N N ",
"N N N N N N N N N N N N N N N N N N N N 0 4 ^ h.1.=.) v.M.m.M.v.h.h.-.( $ B o.1.<.,.( h 6 N N N N N N N N N N N N N N N N N N N ",
"N N N N N N N N N N N N N N N N N N N N N 9 g d.h.1.=.l.v.l.v.s.$.$.| W   S o.$.@...c p N N N N N N N N N N N N N N N N N N N N ",
"N N N N N N N N N N N N N N N N N N N N N N   h.h.i.h.h.h.d.d.d.W W W W   S W W W W 1 N N N N N N N N N N N N N N N N N N N N N ",
"N N N N N N N N N N N N N N N N N N N N N N N       $ h.W W W W         N =         N N N N N N N N N N N N N N N N N N N N N N ",
"N N N N N N N N N N N N N N N N N N N N N N N N N N N : % & & % N N N N N N N N N N N N N N N N N N N N N N N N N N N N N N N N ",
"N N N N N N N N N N N N N N N N N N N N N N N N N N N N N N N N N N N N N N N N N N N N N N N N N N N N N N N N N N N N N N N N ",
"N N N N N N N N N N N N N N N N N N N N N N N N N N N N N N N N N N N N N N N N N N N N N N N N N N N N N N N N N N N N N N N N ",
"N N N N N N N N N N N N N N N N N N N N N N N N N N N N N N N N N N N N N N N N N N N N N N N N N N N N N N N N N N N N N N N N "
};
