/* XPM */
static char *_f1948a21ed34fdae721c6d2a0148b55[] = {
/* columns rows colors chars-per-pixel */
"64 64 120 2 ",
"   c black",
".  c gray3",
"X  c #110E0A",
"o  c #001100",
"O  c #14110B",
"+  c #1B150D",
"@  c #1E1911",
"#  c #20190F",
"$  c #231D13",
"%  c #241C11",
"&  c #241E15",
"*  c #002000",
"=  c #003400",
"-  c #292116",
";  c #2C2315",
":  c #302617",
">  c #31281B",
",  c #352919",
"<  c #3B3020",
"1  c #41331F",
"2  c #4D3D25",
"3  c #493C28",
"4  c #4E412D",
"5  c #57472F",
"6  c #5F4B2D",
"7  c #5F4D31",
"8  c #604C2D",
"9  c #675231",
"0  c #6F5B3C",
"q  c #745B36",
"w  c #6F5E44",
"e  c #7A6546",
"r  c #797642",
"t  c #81653C",
"y  c #84683E",
"u  c #856B41",
"i  c #816A47",
"p  c #866E49",
"a  c #917244",
"s  c #90764E",
"d  c #997948",
"f  c #877151",
"g  c #967B51",
"h  c #997E54",
"j  c #A07F4E",
"k  c #9D6967",
"l  c green",
"z  c #A1814F",
"x  c #AB8650",
"c  c #A28559",
"v  c #A7895B",
"b  c #B59056",
"n  c #BC9458",
"m  c #BD985D",
"M  c #A38962",
"N  c #A98F65",
"B  c #AD9168",
"V  c #B29261",
"C  c #BD9961",
"Z  c #BC9B67",
"A  c #BE9D68",
"S  c #C3867E",
"D  c #C8A46D",
"F  c #D0A766",
"G  c #D8AA66",
"H  c #D0A96C",
"J  c #DBAE6B",
"K  c #DCAE69",
"L  c #DCAF6C",
"P  c #DFB06A",
"I  c #DDB06C",
"U  c #C2A170",
"Y  c #CAA773",
"T  c #D1AC72",
"R  c #DEB270",
"E  c #D3B17F",
"W  c #DDB77D",
"Q  c #E0B26C",
"!  c #E1B36D",
"~  c #E4B56E",
"^  c #E3B673",
"/  c #E7B870",
"(  c #E7BA77",
")  c #E9BB74",
"_  c #ECBD74",
"`  c #E0B87B",
"'  c #E7BB79",
"]  c #E6BB7C",
"[  c #EBBE7B",
"{  c #EABF7E",
"}  c #EFC076",
"|  c #EFC17A",
" . c #EEC27D",
".. c #ECC17F",
"X. c #F0C37E",
"o. c #DDBA85",
"O. c #E5A481",
"+. c #EAB682",
"@. c #E3BD84",
"#. c #E2BE88",
"$. c #F3A39B",
"%. c #F3A998",
"&. c #F3AE9A",
"*. c #F1B490",
"=. c #F49FA0",
"-. c #E9C083",
";. c #EFC183",
":. c #EEC587",
">. c #EFC78C",
",. c #F0C583",
"<. c #F1C087",
"1. c #F1C684",
"2. c #F1C685",
"3. c #F1C786",
"4. c #F1C88B",
"5. c #F2CA8D",
"6. c #F2CB8F",
"7. c #F3C094",
"8. c #F2CB91",
"9. c #F3CC92",
/* pixels */
"l l l l l l l l l l l l l l l l l l l l l l l l l l l l l l l l l l l l l l l l l l l l l l l l l l l l l l l l l l l l l l l l ",
"l l l l l l l l l l l l l l l l l l l l l l l l l l l l l l l l l l l l l l l l l l l l l l l l l l l l l l l l l l l l l l l l ",
"l l l l l l l l l l l l l l l l l l l l l l l l l l l l l l l l l l l l l l l l l l l l l l l l l l l l l l l l l l l l l l l l ",
"l l l l l l l l l l l l l l l l l l l l l l l l l l l l l l l l - - l l l l l l l l l l l l l l l l l l l l l l l l l l l l l l ",
"l l l l l l l l l l l l l l l l l l l l l l l l l l l l l l l   _ ,.p   l l l l l l l l l l l l l l l l l l l l l l l l l l l l ",
"l l l l l l l l l l l l l l l l l l l l l l l l l l l l l l l   _ } u   l l l l l l l l l l l l l l l l l l l l l l l l l l l l ",
"l l l l l l l l l l l l l l l l l l l l l l l l l l l l l l l s  .Q b t l l l l l l l l l l l l l l l l l l l l l l l l l l l l ",
"l l l l l l l l l l l l l l l l l l l l l l l l l l l $ $ $ > 2.2.I L L & & & l l l l l l l l l l l l l l l l l l l l l l l l l ",
"l l l l l l l l l l l l l l l l l l l l l l l l l l - 2.2.2.2.8.9.5.8.5.<.9.9.N . l l l l l l l l l l l l l l l l l l l l l l l ",
"l l l l l l l l l l l l l l l l l l l l l l l l l 3 ,.,.9.9.9.8.G G G G G G +.9.,.  l l l l l l l l l l l l l l l l l l l l l l ",
"l l l l l l l l l l l l l l l l l l l l l l l   z | 2.9.9.9.9.8.2.2.) G G <.9.9.9.,.< l l l l l l l l l l l l l l l l l l l l l ",
"l l l l l l l l l l l l l l l l l l l l l l l   z | 2.9.9.9.9.9.4.:.+.O.W ;.5.9.9.2.< l l l l l l l l l l l l l l l l l l l l l ",
"l l l l l l l l l l l l l l l l l l l l l l l   z [ ,.9.9.9.9.9.8.;.*.=.=.<.5.9.9.2.< l l l l l l l l l l l l l l l l l l l l l ",
"l l l l l l l l l l l l l l l l l l l l l l   G ) X.9.9.9.9.#.. . ` *.=.=.<.4 . . 9.R q l l l l l l l l l l l l l l l l l l l l ",
"l l l l l l l l l l l l l l l l l l l l l l   G ) X.9.9.9.9.9.o.o.2.*.=.=.<.@.#.o.9.Q q l l l l l l l l l l l l l l l l l l l l ",
"l l l l l l l l l l l l l l l l l l l l l l   G / | 2.9.9.9.5.9.9.%.$.$.=.$.*.9.9.4.P q l l l l l l l l l l l l l l l l l l l l ",
"l l l l l l l l l l l l l l l l l l l l l l   G Q ) X.5.5.5.9.9.c k S &.&.&.7.8.5.' j l l l l l l l l l l l l l l l l l l l l l ",
"l l l l l l l l l l l l l l l l l l l l l l   G G P } 2.2.5.9.4.. . w 9.9.9.9.5.,.G , l l l l l l l l l l l l l l l l l l l l l ",
"l l l l l l l l l l l l l l l l l l l l l l l   a G J } _ X.,.9.9.9.5.9.9.2.2.' G   l l l l l l l l l l l l l l l l l l l l l l ",
"l l l l l l l l l l l l l l l l l l l l l l l l l 6 G K K ' ,.4.2.5.5.2.| | Q z ; l l l l l l l l l l l l l l l l l l l l l l l ",
"l l l l l l l l l l l l l l l l l l l l l l l l l 1 G G G I ^ ^ ^ ,.2.2.~ Q K a   l l l l l l l l l l l l l l l l l l l l l l l ",
"l l l l l l l l l l l l l l l l l l l l l l l l l 1 G R R R R R L 2.4.2.J J L a   l l l l l l l l l l l l l l l l l l l l l l l ",
"l l l l l l l l l l l l l l l l l l l l l l l l l 1 J 9.9.9.9.9.9.9.9.9.2.2.Q a   l l l l l l l l l l l l l l l l l l l l l l l ",
"l l l l l l l l l l l l l l l l l l l l l l l   z | 2.9.9.9.9.9.9.9.9.9.8.2.^ a     l l l l l l l l l l l l l l l l l l l l l l ",
"l l l l l l l l l l l l l l l l l l l l l l l a H ,.5.9.4 N 9.9.9.9.9.9.9.5.Q a   a l l l l l l l l l l l l l l l l l l l l l l ",
"l l l l l l l l l l l l l l l l l l l l l l 1 P { 4.8.5.1 e B 9.9.9.5.4.-.2.P a   Q 9 l l l l l l l l l l l l l l l l l l l l l ",
"l l l l l l l l l l l l l l l l l l l l l , G } 4.9.5.2.G 8 X 9.9.9.4.,.J  .R a   } K q = l l l l l l l l l l l l l l l l l l l ",
"l l l l l l l l l l l l l l l l l l l l l , G } 2.5.,.2.G 8 X 9.9.9.,.} G ;.P a   } K q = l l l l l l l l l l l l l l l l l l l ",
"l l l l l l l l l l l l l l l l l l l l l l   G -.-.G G   f 9.9.9.9.:.} G  .L a   G , l l l l l l l l l l l l l l l l l l l l l ",
"l l l l l l l l l l l l l l l l l l l l l l l 6 U :.F 6 p U 9.9.9.9.,.} G ;.I a   8 l l l l l l l l l l l l l l l l l l l l l l ",
"l l l l l l l l l l l l l l l l l l l l l l l   M 4.F   2.4.9.9.9.9.4.} G  .R a   o l l l l l l l l l l l l l l l l l l l l l l ",
"l l l l l l l l l l l l l l l l l l l l l l l   M 5.F   2.4.5.2.,.,.2.;.G -.^ a   l l l l l l l l l l l l l l l l l l l l l l l ",
"l l l l l l l l l l l l l l l l l l l l l l l   N 4.T   2.4.8.8.9.9.9.9.,.,.! a   l l l l l l l l l l l l l l l l l l l l l l l ",
"l l l l l l l l l l l l l l l l l l l l l l l   N 5.T   2.4.9.9.9.9.9.9.,.,.Q a   l l l l l l l l l l l l l l l l l l l l l l l ",
"l l l l l l l l l l l l l l l l l l l l l l l   M 4.T   ,.4.9.9.9.9.6.4.,.2.^ a   l l l l l l l l l l l l l l l l l l l l l l l ",
"l l l l l l l l l l l l l l l l l l l l l l l   M 5.T   2.4.9.9.9.9.4.,.2.:.P a   l l l l l l l l l l l l l l l l l l l l l l l ",
"l l l l l l l l l l l l l l l l l l l l l l l   c v @ 2.2.5.9.9.9.1.,.,.,.:.! a   l l l l l l l l l l l l l l l l l l l l l l l ",
"l l l l l l l l l l l l l l l l l l l l l l l l l O @ ,.5.8.9.9.9.,.3.3.,.3.! a   l l l l l l l l l l l l l l l l l l l l l l l ",
"l l l l l l l l l l l l l l l l l l l l l l l l l l @ 2.9.9.9.9.9.1.,.,.,.3.R a   l l l l l l l l l l l l l l l l l l l l l l l ",
"l l l l l l l l l l l l l l l l l l l l l l l l l l @ ,.9.9.9.9.9.1.3.,.3.3.Q a   l l l l l l l l l l l l l l l l l l l l l l l ",
"l l l l l l l l l l l l l l l l l l l l l l l l l l # 2.8.9.9.9.9.1.1.1.;.:.P a   l l l l l l l l l l l l l l l l l l l l l l l ",
"l l l l l l l l l l l l l l l l l l l l l l l l l l @ 2.9.9.9.9.9.9.9.9.9.9.^ a   l l l l l l l l l l l l l l l l l l l l l l l ",
"l l l l l l l l l l l l l l l l l l l l l l l l l l Z 2.9.9.9.9.9.9.4.3.I 6.^ a   l l l l l l l l l l l l l l l l l l l l l l l ",
"l l l l l l l l l l l l l l l l l l l l l l l l l g ,.5.9.9.9.9.9.9.<.) q @.) m 0 l l l l l l l l l l l l l l l l l l l l l l l ",
"l l l l l l l l l l l l l l l l l l l l l l l > V ,.2.9.9.9.9.9.9.9.] G   E ,. .2.> l l l l l l l l l l l l l l l l l l l l l l ",
"l l l l l l l l l l l l l l l l l l l l l l   2.,.5.8.8.9.9.9.9.9.,.( G   E 9.6.2.2.< l l l l l l l l l l l l l l l l l l l l l ",
"l l l l l l l l l l l l l l l l l l l l l < 2.,.5.9.8.8.G ) 2.9.9.,.p   3.6.9.9.8.2.,.i l l l l l l l l l l l l l l l l l l l l ",
"l l l l l l l l l l l l l l l l l l l l l < ,.5.8.8.5.^ / { ,.9.9.6.Y h 5 W 9.9.9.^  .D r l l l l l l l l l l l l l l l l l l l ",
"l l l l l l l l l l l l l l l l l l l l l 7 2.9.9.9.4.G } X.,.9.9.9.4.:.: v @.9.5.K ] ;.A   l l l l l l l l l l l l l l l l l l ",
"l l l l l l l l l l l l l l l l l l l = q I 2.9.9.9.>.K } X.2.9.9.9.4.2.G + N 9.9.} K ^ A   l l l l l l l l l l l l l l l l l l ",
"l l l l l l l l l l l l l l l l l l l = q L 2.9.9.9.8.8.9.9.9.9.9.9.5.;.G + N 5.9.} K ^ A   l l l l l l l l l l l l l l l l l l ",
"l l l l l l l l l l l l l l l l l l l = q R 2.9.9.9.9.8.9.9.9.9.,.Q ^ ;.G + v ' G 9.8.5.A   l l l l l l l l l l l l l l l l l l ",
"l l l l l l l l l l l l l l l l l l l = q I 2.9.9.9.9.9.9.9.9.9.,.G ^ ,.G + v { G 9.9.2.C   l l l l l l l l l l l l l l l l l l ",
"l l l l l l l l l l l l l l l l l l l = q I ,.9.9.9.9.9.9.9.9.9.,.K ^ 2.G + v ] G 9.9.3.m   l l l l l l l l l l l l l l l l l l ",
"l l l l l l l l l l l l l l l l l l l = q I 2.9.^ K | ,.9.9.9.9.9.9.4.,.G + N 9.9.9.3.) x   l l l l l l l l l l l l l l l l l l ",
"l l l l l l l l l l l l l l l l l l l = q I 2.9.R R | ,.9.9.9.9.9.3.,.,.G + v 2.2.2.| ~ x   l l l l l l l l l l l l l l l l l l ",
"l l l l l l l l l l l l l l l l l l l l l 2 K 2. .' L 5.8.8.8.5.3.,.] Q # z ^  .| } P y l l l l l l l l l l l l l l l l l l l l ",
"l l l l l l l l l l l l l l l l l l l l l l t ,.2. .' 4.5.4.5.4.' ) Q G   n ^ ( / ~ d l l l l l l l l l l l l l l l l l l l l l ",
"l l l l l l l l l l l l l l l l l l l l l l   2.2.;.2.2.2.2.,.,.G G G G   n G G G G , l l l l l l l l l l l l l l l l l l l l l ",
"l l l l l l l l l l l l l l l l l l l l l l l       # 2.G G G G         l *         l l l l l l l l l l l l l l l l l l l l l l ",
"l l l l l l l l l l l l l l l l l l l l l l l l l l l - $ $ % $ l l l l l l l l l l l l l l l l l l l l l l l l l l l l l l l l ",
"l l l l l l l l l l l l l l l l l l l l l l l l l l l l l l l l l l l l l l l l l l l l l l l l l l l l l l l l l l l l l l l l ",
"l l l l l l l l l l l l l l l l l l l l l l l l l l l l l l l l l l l l l l l l l l l l l l l l l l l l l l l l l l l l l l l l ",
"l l l l l l l l l l l l l l l l l l l l l l l l l l l l l l l l l l l l l l l l l l l l l l l l l l l l l l l l l l l l l l l l "
};
