/* XPM */
static char *_cf744ff53d84802ca867e68bfab9719[] = {
/* columns rows colors chars-per-pixel */
"64 64 8 1 ",
"  c black",
". c gray3",
"X c green",
"o c #D8AA66",
"O c #EFC076",
"+ c #F49FA0",
"@ c #F1C684",
"# c #F3CC92",
/* pixels */
"XXXXXXXXXXXXXXXXXXXXXXXXXXXXXXXXXXXXXXXXXXXXXXXXXXXXXXXXXXXXXXXX",
"XXXXXXXXXXXXXXXXXXXXXXXXXXXXXXXXXXXXXXXXXXXXXXXXXXXXXXXXXXXXXXXX",
"XXXXXXXXXXXXXXXXXXXXXXXXXXXXXXXXXXXXXXXXXXXXXXXXXXXXXXXXXXXXXXXX",
"XXXXXXXXXXXXXXXXXXXXXXXXXXXXXXXXXXXXXXXXXXXXXXXXXXXXXXXXXXXXXXXX",
"XXXXXXXXXXXXXXXXXXXXXXXXXXXXXXXXXXXXXXXXXXXXXXXXXXXXXXXXXXXXXXXX",
"XXXXXXXXXXXXXXXXXXXXXXXXXXXXXXXXXXXXXXXXXXXXXXXXXXXXXXXXXXXXXXXX",
"XXXXXXXXXXXXXXXXXXXXXXXXXXXXXXXXXXXXXXXXXXXXXXXXXXXXXXXXXXXXXXXX",
"XXXXXXXXXXXXXXXXXXXXXXXXXXXXXXXXXXXXXXXXXXXXXXXXXXXXXXXXXXXXXXXX",
"XXXXXXXXXXXXXXXXXXXXXXXXXXXXXXXXXXXXXXXXXXXXXXXXXXXXXXXXXXXXXXXX",
"XXXXXXXXXXXXXXXXXXXXXXXXXXXXXXXXXXXXXXXXXXXXXXXXXXXXXXXXXXXXXXXX",
"XXXXXXXXXXXXXXXXXXXXXXXXXXXXXXXXXXXXXXXXXXXXXXXXXXXXXXXXXXXXXXXX",
"XXXXXXXXXXXXXXXXXXXXXXXXXXXXXXXXXXXXXXXXXXXXXXXXXXXXXXXXXXXXXXXX",
"XXXXXXXXXXXXXXXXXXXXXXXXXXXXXXXXXXXXXXXXXXXXXXXXXXXXXXXXXXXXXXXX",
"XXXXXXXXXXXXXXXXXXXXXXXXXXXXXXXXXXXXXXXXXXXXXXXXXXXXXXXXXXXXXXXX",
"XXXXXXXXXXXXXXXXXXXXXXXXXXXXXXXXXXXXXXXXXXXXXXXXXXXXXXXXXXXXXXXX",
"XXXXXXXXXXXXXXXXXXXXXXXXXXXXXXXXXXXXXXXXXXXXXXXXXXXXXXXXXXXXXXXX",
"XXXXXXXXXXXXXXXXXXXXXXXXXXXXXXXXXXXXXXXXXXXXXXXXXXXXXXXXXXXXXXXX",
"XXXXXXXXXXXXXXXXXXXXXXXXXXXXXXXXXXXXXXXXXXXXXXXXXXXXXXXXXXXXXXXX",
"XXXXXXXXXXXXXXXXXXXXXXXXXXXXXXXXXXXXXXXXXXXXXXXXXXXXXXXXXXXXXXXX",
"XXXXXXXXXXXXXXXXXXXXXXXXXXXXXXXXXXXXXXXXXXXXXXXXXXXXXXXXXXXXXXXX",
"XXXXXXXXXXXXXXXXXXXXXXXXXXXXXXXXXXXXXXXXXXXXXXXXXXXXXXXXXXXXXXXX",
"XXXXXXXXXXXXXXXXXXXXXXXXXXXXXXXXXXXXXXXXXXXXXXXXXXXXXXXXXXXXXXXX",
"XXXXXXXXXXXXXXXXXXXXXXXXXXXXXXXXXXXXXXXXXXXXXXXXXXXXXXXXXXXXXXXX",
"XXXXXXXXXXXXXXXXXXXXXXXXXXXXXXXXXXXXXXXXXXXXXXXXXXXXXXXXXXXXXXXX",
"XXXXXXXXXXXXXXXXXXXXXXXXXXXXXXXXXXXXXXXXXXXXXXXXXXXXXXXXXXXXXXXX",
"XXXXXXXXXXXXXXXXXXXXXXXXXXXXXXXXXXXXXXXXXXXXXXXXXXXXXXXXXXXXXXXX",
"XXXXXXXXXXXXXXXXXXXXXXXXXXXXXXXXXXXXXXXXXXXXXXXXXXXXXXXXXXXXXXXX",
"XXXXXXXXXXXXXXXXXXXXXXXXXXXXXXXXXXXXXXXXXXXXXXXXXXXXXXXXXXXXXXXX",
"XXXXXXXXXXXXXXXXXXXXXXXXXXXXXXXXXXXXXXXXXXXXXXXXXXXXXXXXXXXXXXXX",
"XXXXXXXXXXXXXXXXXXXXXXXXXXXXXXXXXXXXXXXXXXXXXXXXXXXXXXXXXXXXXXXX",
"XXXXXXXXXXXXXXXXXXXXXXXXXXXXXXXXXXXXXXXXXXXXXXXXXXXXXXXXXXXXXXXX",
"XXXXXXXXXXXXXXXXXXXXXXXXXXXXXXXXXXXXXXXXXXXXXXXXXXXXXXXXXXXXXXXX",
"XXXXXXXXXXXXXXXXXXXXXXXXXXXXXXXXXXXXXXXXXXXXXXXXXXXXXXXXXXXXXXXX",
"XXXXXXXXXXXXXXXXXXXXXXXXXXXXXXXXXXXXXXXXXXXXXXXXXXXXXXXXXXXXXXXX",
"XXXXXXX         XXXXXXXXXXXXXXXXXXXXXXXXXXXXXXXXXXXXXXXXXXXXXXXX",
"XXXXXXX         XXXXXXXXXXXXXXXXXXXXXXXXXXXXXXXXXXXXXXXXXXXXXXXX",
"XXXXX  ooOO@@@@@ XXXXXXXXXXXXXXXXXX  XXXXXXXXX    XXXXXXXXXXXXXX",
"XXXX ooO@###oo@@@ XXXXXXXXXXXXXXXX oo  XXXXXX oooo   XXXXXXXXXXX",
"XXXX ooO@###oo@@@ XXXXXXXXXXXXXXXX oo  XXXXXX oooo   XXXXXXXXXXX",
"XXX oOO@####OOoo@@ XXXXXXXXXXXXX  oOOoo XXXX o@@##@@@ XXXXXXXXXX",
"XXX oOO@#ooo#####@@                         o@### # #@ XXXXXXXXX",
"XXX o@@@#@@@######Oooooooooooooooooooooooooo@##### ####  XXXXXXX",
"XXX o@@@#@@@######Oooooooooooooooooooooooooo@#### # ###  XXXXXXX",
"XXX ooo       @@######@@@@@@@@@@@@@@@@@@@ooO@#++@@@@@o#  XXXXXXX",
"XXXX   ooooooo  @  oo#@@@@@@@@@oooooo###@ooO##+++++ooo#  XXXXXXX",
"XXX ooo@@@@@@@@@ oo@@#@@@@@@###@OOOO@####@@  #+++++ooo#oo  XXXXX",
"XXX o@@@#ooo####@@####@@@@@####@#########@@@#.++@@@@@o#ooO@  XXX",
"XXX o@@@#ooo####@@####@@@@@####@#########@@@#.++##@@@o#ooO@  XXX",
"XXX o@@##@@@###################@#########oo  .#####@@o#@@OO  XXX",
"X  o@##########################@#########oo@##### # ###@@  XXXXX",
"X  o@########@@@@##################  ####oo@@##### ###@  XXXXXXX",
"X  o@########@@@@##################  ####oo@@#### # ##@  XXXXXXX",
"X  o@########OOOo#########@@@@@@@@ oo  ##oooO@########@  XXXXXXX",
"X  @@##@@####ooo###@@@@@@@@       o@@####oooO@#######@@  XXXXXXX",
"XXX @ooOO#########@@@      @@@@OOOo@###@oooooO@@##@@@@ XXXXXXXXX",
"XXX @@@oo########@@  XXXX @##########@@O    ooOOOOOOO XXXXXXXXXX",
"XXX @@@oo########@@  XXXX @##########@@O    ooOOOOOOO XXXXXXXXXX",
"XXX @@@#########@@ XXXXXXX        oOOoo XXXX ooooo   XXXXXXXXXXX",
"XXXX oo@@@@@@@@@@ XXXXXXXXXXXXXXXX oo  XXXXXX     XXXXXXXXXXXXXX",
"XXXXX  ooooooo   XXXXXXXXXXXXXXXXXX  XXXXXXXXXXXXXXXXXXXXXXXXXXX",
"XXXXX  ooooooo   XXXXXXXXXXXXXXXXXX  XXXXXXXXXXXXXXXXXXXXXXXXXXX",
"XXXXXXX       XXXXXXXXXXXXXXXXXXXXXXXXXXXXXXXXXXXXXXXXXXXXXXXXXX",
"XXXXXXXXXXXXXXXXXXXXXXXXXXXXXXXXXXXXXXXXXXXXXXXXXXXXXXXXXXXXXXXX",
"XXXXXXXXXXXXXXXXXXXXXXXXXXXXXXXXXXXXXXXXXXXXXXXXXXXXXXXXXXXXXXXX"
};
