/* XPM */
static char *dickman[] = {
/* columns rows colors chars-per-pixel */
"64 64 8 1 ",
"  c black",
". c gray3",
"X c green",
"o c #D8AA66",
"O c #EFC076",
"+ c #F49FA0",
"@ c #F1C684",
"# c #F3CC92",
/* pixels */
"XXXXXXXXXXXXXXXXXXXXXXXXXXXXXXXXXXXXXXXXXXXXXXXXXXXXXXXXXXXXXXXX",
"XXXXXXXXXXXXXXXXXXXXXXXXXXXXXXXXXXXXXXXXXXXXXXXXXXXXXXXXXXXXXXXX",
"XXXXXXXXXXXXXXXXXXXXXXXXXXXXX   XXXXXXXXXXXXXXXXXXXXXXXXXXXXXXXX",
"XXXXXXXXXXXXXXXXXXXXXXXXXXXXX   XXXXXXXXXXXXXXXXXXXXXXXXXXXXXXXX",
"XXXXXXXXXXXXXXXXXXXXXXXXXXXX @@O XXXXXXXXXXXXXXXXXXXXXXXXXXXXXXX",
"XXXXXXXXXXXXXXXXXXXXXXXXXXXX OOO XXXXXXXXXXXXXXXXXXXXXXXXXXXXXXX",
"XXXXXXXXXXXXXXXXXXXXXXXX    ooo@@    XXXXXXXXXXXXXXXXXXXXXXXXXXX",
"XXXXXXXXXXXXXXXXXXXXXXXX    ooo@@    XXXXXXXXXXXXXXXXXXXXXXXXXXX",
"XXXXXXXXXXXXXXXXXXXXXXX #########@@@@ XXXXXXXXXXXXXXXXXXXXXXXXXX",
"XXXXXXXXXXXXXXXXXXXXXX @##oooooo####@@  XXXXXXXXXXXXXXXXXXXXXXXX",
"XXXXXXXXXXXXXXXXXXXX  @###@oo@@@#####@OO XXXXXXXXXXXXXXXXXXXXXXX",
"XXXXXXXXXXXXXXXXXXXX  @###@oo@@@#####@OO XXXXXXXXXXXXXXXXXXXXXXX",
"XXXXXXXXXXXXXXXXXXXX  @###@++@@######@OO XXXXXXXXXXXXXXXXXXXXXXX",
"XXXXXXXXXXXXXXXXXXX oo#...@++@@..#####OOo XXXXXXXXXXXXXXXXXXXXXX",
"XXXXXXXXXXXXXXXXXXX oo####@++@@#######OOo XXXXXXXXXXXXXXXXXXXXXX",
"XXXXXXXXXXXXXXXXXXX oo@###+++++######@OOo XXXXXXXXXXXXXXXXXXXXXX",
"XXXXXXXXXXXXXXXXXXX oo@###+++++######@OOo XXXXXXXXXXXXXXXXXXXXXX",
"XXXXXXXXXXXXXXXXXXXX  o@#####...###@@Oooo XXXXXXXXXXXXXXXXXXXXXX",
"XXXXXXXXXXXXXXXXXXXXXX o@@@######@@OOooo XXXXXXXXXXXXXXXXXXXXXXX",
"XXXXXXXXXXXXXXXXXXXXXXX ooOO@@@@@@@ooo  XXXXXXXXXXXXXXXXXXXXXXXX",
"XXXXXXXXXXXXXXXXXXXXXXX oooo@@@ooooooo  XXXXXXXXXXXXXXXXXXXXXXXX",
"XXXXXXXXXXXXXXXXXXXXXXX oooo@@@ooooooo  XXXXXXXXXXXXXXXXXXXXXXXX",
"XXXXXXXXXXXXXXXXXXXXXXX oo@@#########o  XXXXXXXXXXXXXXXXXXXXXXXX",
"XXXXXXXXXXXXXXXXXXXXXX  oo@##########@OO XXXXXXXXXXXXXXXXXXXXXXX",
"XXXXXXXXXXXXXXXXXXXX  o oo@######## ##@@o XXXXXXXXXXXXXXXXXXXXXX",
"XXXXXXXXXXXXXXXXXXXX  o oo@######## ##@@o XXXXXXXXXXXXXXXXXXXXXX",
"XXXXXXXXXXXXXXXXXXX ooO oo@o@####  o@###Oo  XXXXXXXXXXXXXXXXXXXX",
"XXXXXXXXXXXXXXXXXXX ooO oo@oO####  o@@##Oo  XXXXXXXXXXXXXXXXXXXX",
"XXXXXXXXXXXXXXXXXXXX  o oo@oO###### oo##o XXXXXXXXXXXXXXXXXXXXXX",
"XXXXXXXXXXXXXXXXXXXXXX  oo@oO######@ O## XXXXXXXXXXXXXXXXXXXXXXX",
"XXXXXXXXXXXXXXXXXXXXXX  oo@oO######@ O## XXXXXXXXXXXXXXXXXXXXXXX",
"XXXXXXXXXXXXXXXXXXXXXXX oo@o@@@@@##@ O## XXXXXXXXXXXXXXXXXXXXXXX",
"XXXXXXXXXXXXXXXXXXXXXXX oo@@#######@ @## XXXXXXXXXXXXXXXXXXXXXXX",
"XXXXXXXXXXXXXXXXXXXXXXX oo@@#######@ @## XXXXXXXXXXXXXXXXXXXXXXX",
"XXXXXXXXXXXXXXXXXXXXXXX oo@@#######@ @## XXXXXXXXXXXXXXXXXXXXXXX",
"XXXXXXXXXXXXXXXXXXXXXXX oo@@@######@ @## XXXXXXXXXXXXXXXXXXXXXXX",
"XXXXXXXXXXXXXXXXXXXXXXX oo@@@@@####@@ @@ XXXXXXXXXXXXXXXXXXXXXXX",
"XXXXXXXXXXXXXXXXXXXXXXX oo@@@@@#####@   XXXXXXXXXXXXXXXXXXXXXXXX",
"XXXXXXXXXXXXXXXXXXXXXXX oo@@@@@#####@ XXXXXXXXXXXXXXXXXXXXXXXXXX",
"XXXXXXXXXXXXXXXXXXXXXXX oo@@@@@#####@ XXXXXXXXXXXXXXXXXXXXXXXXXX",
"XXXXXXXXXXXXXXXXXXXXXXX oo@@@@@#####@ XXXXXXXXXXXXXXXXXXXXXXXXXX",
"XXXXXXXXXXXXXXXXXXXXXXX oo##########@ XXXXXXXXXXXXXXXXXXXXXXXXXX",
"XXXXXXXXXXXXXXXXXXXXXXX oo#o@#######@@  XXXXXXXXXXXXXXXXXXXXXXXX",
"XXXXXXXXXXXXXXXXXXXXXXX oo#o@#######@@  XXXXXXXXXXXXXXXXXXXXXXXX",
"XXXXXXXXXXXXXXXXXXXXXX @OO# o########@@@ XXXXXXXXXXXXXXXXXXXXXXX",
"XXXXXXXXXXXXXXXXXXXX  @@### o@@#######@@@ XXXXXXXXXXXXXXXXXXXXXX",
"XXXXXXXXXXXXXXXXXXX @@@####@ @@##@@o####@@  XXXXXXXXXXXXXXXXXXXX",
"XXXXXXXXXXXXXXXXX  @@@o###@ @####@@Oo####@  XXXXXXXXXXXXXXXXXXXX",
"XXXXXXXXXXXXXXXXX  @@@o###@ @####@@Oo####@  XXXXXXXXXXXXXXXXXXXX",
"XXXXXXXXXXXXXXXXX  @ooO### o@####@@Oo####@oo XXXXXXXXXXXXXXXXXXX",
"XXXXXXXXXXXXXXXXX  @ooO### o@############@oo XXXXXXXXXXXXXXXXXXX",
"XXXXXXXXXXXXXXXXX  @###o@@ o@oo@#########@oo XXXXXXXXXXXXXXXXXXX",
"XXXXXXXXXXXXXXXXX  O###o@@ o@oo@#########@oo XXXXXXXXXXXXXXXXXXX",
"XXXXXXXXXXXXXXXXX  O###o@@ o@oo@#########@oo XXXXXXXXXXXXXXXXXXX",
"XXXXXXXXXXXXXXXXX  o@@#### o@#######@Ooo#@oo XXXXXXXXXXXXXXXXXXX",
"XXXXXXXXXXXXXXXXX  oOO@@@@ o@@@#####@Ooo#@oo XXXXXXXXXXXXXXXXXXX",
"XXXXXXXXXXXXXXXXXXX ooOO@@o o@@@#####o@@@o  XXXXXXXXXXXXXXXXXXXX",
"XXXXXXXXXXXXXXXXXXX ooOO@@o o@@@#####o@@@o  XXXXXXXXXXXXXXXXXXXX",
"XXXXXXXXXXXXXXXXXXXX  ooooo oooo@@@@@@@@@ XXXXXXXXXXXXXXXXXXXXXX",
"XXXXXXXXXXXXXXXXXXXXXX     X    oooo@    XXXXXXXXXXXXXXXXXXXXXXX",
"XXXXXXXXXXXXXXXXXXXXXXXXXXXXXXXX     XXXXXXXXXXXXXXXXXXXXXXXXXXX",
"XXXXXXXXXXXXXXXXXXXXXXXXXXXXXXXX     XXXXXXXXXXXXXXXXXXXXXXXXXXX",
"XXXXXXXXXXXXXXXXXXXXXXXXXXXXXXXXXXXXXXXXXXXXXXXXXXXXXXXXXXXXXXXX",
"XXXXXXXXXXXXXXXXXXXXXXXXXXXXXXXXXXXXXXXXXXXXXXXXXXXXXXXXXXXXXXXX"
};
