/* XPM */
static char *gmonnier[] = {
/* columns rows colors chars-per-pixel */
"64 64 256 2 ",
"   c #0E0F0A",
".  c #0E1009",
"X  c #16180D",
"o  c #1C1C12",
"O  c #181914",
"+  c #221E14",
"@  c #231E19",
"#  c #1F2115",
"$  c #232215",
"%  c #24241B",
"&  c #2B2B1D",
"*  c #29271A",
"=  c #322D1C",
"-  c #362A1C",
";  c #2E311D",
":  c #34321D",
">  c #39371D",
",  c #38300B",
"<  c #2D2B23",
"1  c #292826",
"2  c #332D23",
"3  c #352D26",
"4  c #2E3123",
"5  c #333323",
"6  c #3B3424",
"7  c #3C3A25",
"8  c #35332B",
"9  c #3C352C",
"0  c #3C3B2C",
"q  c #363A27",
"w  c #393836",
"e  c #2E2C34",
"r  c #1F1E22",
"t  c #453A1E",
"y  c #433B2B",
"u  c #463A28",
"i  c #433C35",
"p  c #523C2F",
"a  c #6A3621",
"s  c #3D4127",
"d  c #3F4539",
"f  c #44432B",
"g  c #4A442C",
"h  c #4C4B2D",
"j  c #454426",
"k  c #55472B",
"l  c #494537",
"z  c #574836",
"x  c #535333",
"c  c #5D5C3C",
"v  c #595638",
"b  c #54522C",
"n  c #654D38",
"m  c #655739",
"M  c #74583A",
"N  c #704D31",
"B  c #66643E",
"V  c #736639",
"C  c #53552E",
"Z  c #3C3C45",
"A  c #3E3F51",
"S  c #423D48",
"D  c #3E404C",
"F  c #474749",
"G  c #595647",
"H  c #494A57",
"J  c #55555C",
"K  c #524F4E",
"L  c #685847",
"P  c #765B46",
"I  c #69564F",
"U  c #5F6247",
"Y  c #696946",
"T  c #766747",
"R  c #6D7149",
"E  c #76774C",
"W  c #6A6554",
"Q  c #776957",
"!  c #7A7D53",
"~  c #777755",
"^  c #6D7150",
"/  c #565865",
"(  c #525567",
")  c #727068",
"_  c #5F6366",
"`  c #88593A",
"'  c #83623A",
"]  c #BB6534",
"[  c #C1683C",
"{  c #855C46",
"}  c #995D4C",
"|  c #896846",
" . c #956849",
".. c #8A7347",
"X. c #98774B",
"o. c #886855",
"O. c #887656",
"+. c #987756",
"@. c #946E56",
"#. c #A97B59",
"$. c #A87255",
"%. c #897A66",
"&. c #967C63",
"*. c #92756B",
"=. c #A67B68",
"-. c #A86D69",
";. c #AD5F4B",
":. c #C6794D",
">. c #7D8153",
",. c #7D8458",
"<. c #7F826D",
"1. c #868859",
"2. c #98865A",
"3. c #8D925E",
"4. c #959359",
"5. c #94814B",
"6. c #A98859",
"7. c #B48D5C",
"8. c #B5885A",
"9. c #B8925E",
"0. c #A9995E",
"q. c #888A64",
"w. c #988768",
"e. c #8C9362",
"r. c #939463",
"t. c #9B9C6B",
"y. c #959969",
"u. c #9B8874",
"i. c #8D8F75",
"p. c #A88867",
"a. c #B58A67",
"s. c #AA9C67",
"d. c #BB9364",
"f. c #BD946A",
"g. c #B89866",
"h. c #A58B76",
"j. c #B68C76",
"k. c #A89678",
"l. c #B79679",
"z. c #9BA26D",
"x. c #9DA473",
"c. c #A5A46C",
"v. c #B7A36B",
"b. c #A2A574",
"n. c #A5AB7B",
"m. c #ABAD7C",
"M. c #A7A875",
"N. c #BBAB78",
"B. c #B4B27A",
"V. c #ACB177",
"C. c #C1956C",
"Z. c #C49A6C",
"A. c #C79A69",
"S. c #CC9C73",
"D. c #C79A78",
"F. c #D29C7A",
"G. c #CA8E6F",
"H. c #CCA374",
"J. c #CDA27A",
"K. c #C8A877",
"L. c #D2A475",
"P. c #D2A47B",
"I. c #D4A97B",
"U. c #C7B37B",
"Y. c #CDAA75",
"T. c #CCCA73",
"R. c #AB9983",
"E. c #BB9A85",
"W. c #B79A85",
"Q. c #ABAE83",
"!. c #A7A68A",
"~. c #BBA388",
"^. c #ADB384",
"/. c #AEB389",
"(. c #B7B887",
"). c #B5B499",
"_. c #B6B9A7",
"`. c #9B9E8E",
"'. c #C59B88",
"]. c #D29C85",
"[. c #D1918A",
"{. c #C4A38D",
"}. c #C8A887",
"|. c #D5A482",
" X c #D5A984",
".X c #D7A98B",
"XX c #C7B686",
"oX c #D5B38C",
"OX c #C4A492",
"+X c #CBA592",
"@X c #CCAC94",
"#X c #C9AB96",
"$X c #D4AC94",
"%X c #DBAC93",
"&X c #D4AD9B",
"*X c #D6A796",
"=X c #CCB396",
"-X c #D4B294",
";X c #DBB495",
":X c #D4B49B",
">X c #DCB49B",
",X c #DCBB9C",
"<X c #D8BB96",
"1X c #E1B49C",
"2X c #E1BB9C",
"3X c #E1AD97",
"4X c #DCBCA3",
"5X c #DCBCAA",
"6X c #D8B5A3",
"7X c #CCB0A9",
"8X c #E2BCA4",
"9X c #E3BDAA",
"0X c #E4B7A3",
"qX c #BDC293",
"wX c #BEC08E",
"eX c #C6C48C",
"rX c #C3C493",
"tX c #C8C898",
"yX c #D8C799",
"uX c #D5D399",
"iX c #D1CB90",
"pX c #E2C89C",
"aX c #CACAA5",
"sX c #DEC2A4",
"dX c #D8CAA9",
"fX c #CCD2A5",
"gX c #D8D6A6",
"hX c #D9D7B8",
"jX c #CAC9B7",
"kX c #E3C3A5",
"lX c #E4C3AC",
"zX c #E3C9AA",
"xX c #E3DFA9",
"cX c #E3C5B2",
"vX c #E7C8B6",
"bX c #E4DAB9",
"nX c #DDE1B3",
"mX c #E7E7B8",
"MX c #E9E7B3",
"NX c #DADCC7",
"BX c #D8DED3",
"VX c #DEE1CC",
"CX c #DDE1D5",
"ZX c #E7E6C7",
"AX c #F4F4CA",
"SX c #E9EAD7",
"DX c #F6F6D8",
"FX c #F0F0CC",
"GX c #EAEDE4",
"HX c #FBFBED",
"JX c #F6F6E6",
"KX c #FDFEF5",
"LX c #FFFFFE",
"PX c #F8F8F2",
"IX c #EEF0E2",
"UX c #ECD7C2",
/* pixels */
"* * & % & 7 j h x x x x x U c U B R R R >.! ,.,.,.,.3.3.3.3.e.e.y.y.z.y.z.z.z.x.z.b.n.V.n.m.V.^.^././.(.(.(.qXqXqXqXtXtXfXfXfXfX",
"& & & ; ; ; & & & ; & ; ; & ; q s s h C x x c B B R R R E ! >.,.,.1.1.3.3.e.z.y.z.z.x.x.x.x.n.b.x.n.n.n.Q.Q.^.^.^./././././.(.qX",
"4 & ; ; ; ; ; ; ; ; ; 5 4 : ; > ; s s j s h C C C c R B R E ! >.c.3.r.1.z.c.4.B.tXB.MXmXMXuXtX^.n.x.x.z.x.b.b.M.n.n.n.n.n.n.n.n.",
"4 q 4 4 4 : : q q s s s j f j j C C C C c c C B B B 1.E E >.t.4.1.E V T v v j 1.> u B.mXAXmXnXuXwX^.V.n.b.z.t.y.y.y.z.y.y.y.y.z.",
"7 7 s f f j C h x C C C x x x c c B B R R R R R 1.>.1.4.s.4.V E b j j j ; = G 7 g 2 > C m FXMXgXqX(.^.m.V.c.t.r.e.e.e.,.e.e.e.e.",
"x v c c B Y B B R R R R R R B >.>.>.,.3.3.4.c.4.C 1.v 1.: * o o = = $ # $ & $ & < & & m x 4.x.eX(.(.m.m.M.z.y.3.,.,.,.,.,.,.q.q.",
"E E ~ ! >.>.>.>.>.1.,.>.>.,.1.r.z.z.V.V.V.B.3.s C C j u 0 ; O X v O o $ X X O X * 5 & c * > t.B.V.V.c.b.t.y.r.3.,.,.,.^ ,.,.,.,.",
"3.3.3.r.e.y.y.z.z.x.z.c.V.V.V.wXwXeXwXeX4.c.j t B > = > l K % 7 $ o % X # o X X o o $ $ + & y g t.t.4.4.r.1.1.! >.,.>.^ U ,.,.,.",
"b.M.n.V.(.(.wXrXtXtXrXwX(.(.wXqXtXtXV.b : s s * o o G 5 f f o + o o O O < $ o O o o o $ $ & + - - r.r.! ! ! ! ,.,.,.1.,.,.,.e.z.",
"tXfXuXfXgXgXgXgXuXuXtXeXeXwXqXeXeX1.> C j > ; $ o O $ % ; * o $ # # o o o o @ $ o o % 2 o + + * $ 2 T q.,.1.q.3.z.z.t.y.e.y.y.x.",
"LXLXLXLXLXLXLXKXAXgXfXrX(.(.B.(...h > & o $ # # ; O % $ 4 * $ % $ $ $ 0 + & 4 % 4 $ 4 % 1 + % o o $ 5 x C t.k.n.n.^.V.n.n.x.x.x.",
"LXLXLXLXLXLXLXLXLXLXKXnXeXn.n.z.b & = ; $ # o o 4 O # + * % 9 + 4 % * ; < @ 1 < 3 1 < @ < 3 < % + # o $ m 1.t.Q.n.^./.Q.!.x.x.n.",
"LXLXLXLXLXLXLXLXLXLXLXDXeXV.V : = 7 * o + o o # o O $ & 3 * & 0 ; * % $ * + * $ o 8 < % 3 1 < @ % 3 l 1 + : q./././.Q.m.n.b.b.b.",
"LXLXLXLXLXLXLXLXLXLXLXnX(.c.j 5 g w $ 4 $ o $ o & o ; u 5 5 = y 9 - + 9 8 9 1 @ 8 # * 1 8 o 8 @ i < 8 3 w & - m.!.Q.Q./.Q.(.(.(.",
"iXiXxXMXDXHXLXLXLXDXiXM.0.m u u q 3 G l < & $ o + 7 > 6 y 3 l 6 & * < @ 8 < < e 3 1 9 < 8 3 8 < & i w l i 3 w 2.fXgXgXxXuXuXuXuX",
"B.V.V.V.m.m.m.m.M.b.b.V.0.g q h 8 4 l 8 4 < q + & l u p n z - l u 6 3 y 9 - p z < 6 3 w e w 9 9 i 3 9 q 9 g < : nXmXmXFXmXAXmXMX",
"/./././.qXqX(./.^.(.(.V.c 7 0 f 7 & 6 2 = 8 2 6 n T  .P @.{ n @.@.o.P k z i p z z n L z i i p y i = 2 6 0 q 9 G mXDXAXAXFXmXMXMX",
"qXqXqXqXqXqXtXqXqXqXtX5.u u 6 l 2 0 q 5 l z z n { p.a.l.D.l.a.#.l.'.=.a.#.o.@.P n P @.@.{ n L g p p = 5 6 0 i c , DXAXAXmXMXAXDX",
"tXqXfXqXqXaXaXtXtXtXXXn = < f z 7 - u t 6 M P  .6.D..X|..X:X}.'.D.'.*X'.].*X%X*X5X&XE.j.{.j.k.l.+.m M Q z 9 6 G k KXLXLXLXKXKXLX",
"aXaXfXfXfXfXfXfXfXfXb.j & = l f = t k N n ' | 6.D. X;X3X$X,X>X<X-X>X>X1X6X9X0XlXOX6X5XdX5X5X6X<X}.<X{.p.O.l l v h KXLXLXLXLXLXLX",
"nXZXDXIXJXJXHXHXHXPXhXb 7 = z k k ' 7.7.6.6.7.C.|..X X2X;X>X1X1X>X1X:X>X;X%X8X8X5XlXlXlX8XsX8X2X2XpX<XN.u.U l j ^ JXLXLXLXLXLXLX",
"JXHXLXLXLXLXLXLXLXLXKXm j k v L 6.H.Z.J.H.L.Z.F. XL..X.X%X1X%X3X%X>X>X2X1X1X0X2X4X2X4X2X4XkXsX,XpX2XoXl.2.L f z x V LXKXLXLXLXLX",
"KXLXLXLXLXLXLXLXLXKXLXV z g V X.g.J.Y.H.I.L.P.L.I..X;X3X>X;X>X>X0X>X1X3X1X3X0X9XkX8X8X,X8X8XzX8X;X2X<XD.u.m p v G B.KXAXT.4...R ",
"KXLXLXLXLXLXLXLXLXLXJXY u h Y X.g.H.H.Y.P.L.L.I.I..X%X1X2X1X1X1X>X1X1X2X0XlX9XlXlXcXlXkXkXsXkXkXsX<X<X<X}.E l x t L E B c c c v ",
"HXKXLXLXLXLXLXLXLXLXLXB x g T 6.K.H.Y.P.H.P.J. X.X.X<X>X0XvX9X8X0X8X9X9X9X9XlXvXvX5XcX5X5X6X6X,X<X<X<X<X<X}.m g > - c f h h h h ",
"LXLXLXLXLXLXLXLXLXLXLXB z k P g.H.Y.H.J.J.S.J.]..X-X>X>X8X9X9XlXlXlX8XlX9X9X9X9X7X&Xu.*.I %.*.@X<X<X<X<X<X<XQ s ; = j s 0 f y d ",
"LXLXLXLXLXLXLXLXLXLXLX~ v k 2.H.H.Y.Z.Z.f. .&.=.u.+.j.+X&X*X3X>X0X1X0X4X6X6X'.P i 2 3 i W %.) %.k.~.sX<XyX<Xu.j 6 > c 5 q q q 7 ",
"LXLXLXLXLXLXLXLXLXLXLXT v x 6.K.Y.S.v.X.m T n l 6 6 u z L o.j..X3X&X>X,Xl.o.o.P P { o.-.p.l.E.OX#X=X{.,XyXyXu.I 7 u m j = = 5 5 ",
"LXLXLXLXLXLXLXLXLXLXLXb.v g 2.K.K.U.5.+.u.l.l.j.=.$.@.{  .#.p.D.$X3X8X2X'.E.a.N o.=.) z i 7Xk.w.j.'.-X=XpXsXW.h h | f.;Xj > h h ",
"LXLXLXLXLXLXLXLXLXLXLXLXT k ..}.XXa.g.6.#.a.p.@.z = p P ` $.a.S.|.2X8XvX:XE.@.D.o.7XN r I jXi.n | D.}.<XsXsX}.f m G.'.] y.Y R E ",
"LXLXLXLXLXLXLXLXLXLXLXDXV j n K.P.g.d.8.` P u Q n 4 u.).{ #.8.S.L.%X2XkX&X+X*X&X7X7X*.n z 7X{.j.=.'.@X,XsXzX<XG P sX%X[ Q.! 1.q.",
"LXLXLXLXLXLXLXLXLXLXLXp.6.g b K.H.Z.f.6.M  .j.).L P h.j.=.G.d.S.L.I.%X2X-X6X+XOXj.D.[.OX'.#X:XcXlXvXdXzXzXpXpXL }.5XkX[ ~.q.y.y.",
"LXLXDXiXuXMXAXDXHXLXLX-XG.t n U.Y.H.S.Z.D.f.a.#.=.j.'.a.#.8.S.I.I.F.3X1X;X3X2XoX[.+X&X6X6X5XcXcX5XcXlXzXzXkXzXT #.:XkX:.!.i.x.`.",
"LXLXLXLXLXLXLXLXLXLXLXUXF.6.m I. XY.P.P.J.J.].}.*X].'.j.].F.I.L. XL.|.3X2XpXkXlXcX9X6X5X&X5X9X0XlXcXvXzXzXkXzXk.G.l.:XF.!.!.`.n.",
"LXLXLXLXLXLXLXLXLXLXLXLXG.L.P U.I.I.I.|.J..XJ..X$X*X|..X%X.XI. XL.|.3X1XpX2XkXzXvXcXvXcX5X6XcXvXUXvXvXzXlXkXdXp.kX#.G.|.qX_.).).",
"LXLXLXLXLXLXLXLXLXLXLXLXF.F...oXoXI. X|.|.|.%X;X%X.X.X3X|.I.I.I.L.I. X0X0X,X2X8XvXcXvXvXcXcXcXvXvXcXvXlXzXzXzXp.OX;.'.vXLXLXLXLX",
"LXLXLXLXLXLXLXLXLXLXLXLXvXG.D.U.U. X XoX.X.X%X%X>X%X*X.X.X|.F.S.J.L.|.1X0X2X2X,XvXcXvX5XvXvXvXvXcXvXcXlXsXyX<XN.d.-X$XKXLXLXLXLX",
"aXfXnXmXAXJXKXLXLXLXLXLXPXG.G.N.H.I.I. X X.X.X%X*X.X*X].|.G.G.L.S. X.X1X>X,X-X>X>XcX9X9X9XcXcXcXlXcXzXsX,X-X2.$X2X>X$XLXLXLXLXLX",
"FXFXFXJXHXKXKXLXLXLXLXLXLXP.S.| l.H.J.P.F.P.]..X.X].|.].F.G.G.S.S.H.1XzXcXkXoX,X*X>X0X0X9XvX8X5X4X4X8X4X=XoX2.*X].>XKXLXLXLXLXLX",
"KXKXKXKXLXLXLXLXLXLXLXLXKXXXoX8.v.v.S.Z.D.S.F.J.F.|.].].F.S.C.P.S.J.%X&X&X=X@X>XOX&X3X9X8X9XsX4X4XsX,X-XoX}.2.~.&XhXLXPXVXCXPXLX",
"KXLXKXLXLXLXLXLXLXLXLXLXLXLXL.G.X.g.f.Z.C.f.C.S.S.L.S.].F.F.a.d.#.6.#.p.W.R.a D.E.6X9X6XkXlX4X4X4X4X6X<X@XU.w._.LXi.KXPXNXNXGXLX",
"KXLXLXLXLXLXLXLXLXLXLXLXLXLXS.a.O.9.d.C.Z.C.C.Z.S.S.F.F.].F.F.G.` ' @.P o.R.=.'.&X5X9X9X9X9X4X4X,XyX=X=XoX=Xk.LXBXPXLXSXVXNXBXGX",
"LXLXKXKXLXLXLXLXLXLXKXLXLXLXKXJXb.7.7.f.C.d.f.A.H.S.S.F.S.S.F.C.6.P k I n I l OX:X=X&X4X4XzXsXpX4X-X=Xl.XX~.l.LXLXLXLXIXNXNXhXaX",
"KXKXKXLXKXKXLXLXLXLXLXLXLXKXLXJXaX+.g.0.9.C.S.A.A.L.S.D.a.D.@.P p 3 x 0 3 ) Q K *.w.u.%.&.6XsX<X,X-X=XOX@XN.gXLXLXLXKXGXNXNXNXhX",
"JXJXHXPXJXHXKXKXKXKXLXLXKXLXPXIXdX..0.g.d.A.A.A.A.A.7.z Q m p N Q o.I p p =.} o.&.O.*.o.) I p.<X-X=X=X}.{.k.JXLXLXLXLXJXNXNXVXbX",
"ZXZXSXSXSXIXIXIXHXPXPXKXKXPXIXZXjXE 6.6.6.7.9.A.A.6.O.n @.@.+.=.a.j.=.+X+X[.W.-.j.h.W.W.h.O.l.@XoX#XoX~.~.w.LXLXLXLXLXIXVXVXVXmX",
"tXaXfXdXjXdXhXbXVXZXSXFXSXSXbXjX(.! T 7.9.g.g.A.d.X.M X. .` } { $.} } ;.-.-.} -.-.-.-.OXW.O.W.XXoX~.}.~.O.w.LXLXLXLXLXJXVXZXVXZX",
"p.v.N.U.N.N.}.(.tXyXdXdXgXyXtX(.z.O.T 2.2.9.A.g.A.d.p.#.a.$.a.G.[.G.[.[.[.[.[.*X6X&X5X6X~.w.{.}.k.~.).u.&.%.LXLXLXLXLXGXVXVXZXNX",
"0.0.s.v.v.0.v.v.v.Y.U.U.U.XXB.c.y.O.T T 2.p.5.8.9.9.X.9.A.Z.S.D.'.[.*X[.+X*X*X5X4X:X=X#XdXu.}.XXOX~.w.~.O.k.LXLXLXPXGXhXNXhXNXnX",
"0.s.s.s.v.s.v.v.v.N.Y.U.U.U.N.s.4.O.R Y T X...8.9.g.6.A.A.d.g.p.&.%.o.I K O.u.h.{.OX}.<XOX%.p.}.W.k.w.w.*.}.CXGXBXjX_._._._.jXhX",
"N.N.U.v.c.s.s.s.v.v.v.K.N.K.N.s.4.~ R W V +.6.d.9.6.5.d.A.A.f.{ M q 9 9 i z L P +.E.-XOX~.%.~.u.s.w.&.v }.oXjX_.`.<.) <.i.`.(.tX",
"uXuXiXeXU.U.v.U.U.U.T.U.XX(.N.c.r.! U W p.M 6.0.6.6...d.9.d.d.7.6.#.P n I I p.'.@X$X#X=XXX~.k.%.u.u.Q &X@X@Xw.F J <.s q l W y.~.",
"xXxXxXgXuXiXT.oXiXiXiXeXeXXX(.c.y.q.E ^ r.7...+.5.8.g.6.7.X.A.A.D.C.P o.%.O.&.&X,X4X6X4X~.OXn.h.O.Q OX:X-X-Xp.% % F ) i.<.) n.y.",
"xXmXZXmXgXiXiXiXiXuXuXuXiXeX(.m.t.r.1.~ ! g.g.V X.6.g.7.g.g.H.C.+.p.@.W.&.W.&.h.#XyX6X=X=XR.%.k.^ &.OX@X:XoXp.O o K / Z _ _ _ _ ",
"nXZXZXZXmXMXxXxXxXxXuXiXeX(.V.c.3.q.! ~ ^ d.Z.X.b z ....g. .p.2.P @.Q R.*.=.*.`.R.R.!.R.!.%.Y K l.+X&X:X&X$Xl.o 0 F / 1 H / / ) ",
"gXbXnXmXZXnXxXiXuXiXeXM.4.O.! E E ^ Y U q.g.g.d.6.> m k T k M L h P ) Q I I Q W Q Q %.Q %.I I l.OX#X=X&X:X$Xf.* l H e H _ J / _ ",
"iXiXgXgXgXuXiXuXiXU.c.>.U s s q q q Y q.w ~ d.Z.Z.X.- g v L u L l i I G p I W L Q ) I G l z ~.OX#X#X*X7X&X.X=.S H H r Z ( H ( / ",
"V.B.V.V.V.V.V.M.0.1.B s $ O X O O Q q.q 1 W g.Z.Z.g.+.= 2 0 > u - & y z w q w i K d w 8 L R.W.OX+XOX+X&X&X*X6 Z ( r d H ( J J H ",
"> > ; * ; $ % # # o X X X O O 2 q.U U 1 l l 9.d.f.H.g.+.| + % & < < < 3 e r 1 9 1 % 9 h.{.OX'.OXOXOX&X+X&XR.i ( Z 1 H H ( ( H H ",
". X . . X X   X o * : > j g B W F w 8 r K 8 6.9.C.f.C.d.6.6.@.k * < - @ t n Q k.l.R.R.W.~.E.W.'.'.{.+X*XOXi ( H O e H H F H ( ( ",
". . . .   . G e.^.=XtXtXuXm.q.w 4 F 4 < l l | 9.C.C.C.f.7.7.p.g.X.| ' X.R.R.k.W.W.W.W.W.E.E.W.E.{.OX+X+Xi S ( 1 1 d H ( D D ( A ",
". .   .   q `.hXSXJXDXrXW w J i 1 w e < w w 3 8.f.C.f.D.f.7.6.9.6.g.a.a.~.{.R.R.W.W.E.W.W.W.E.E.'.+X+XI F ( A r H H D H D H Z Z ",
"    .     d _.CXSXjXU F S w K l < e e < e 8 e 6.7.C.C.D.C.7.g.f.l.d.p.j.~.OXOXOXOXOX'.W.E.[.E.OX[.+Xo.Z A H r D H D D Z e w D e ",
"        X w `.q.G G F w 8 4 K r w r 8 % r 4 w < 8.f.C.f.Z.f.7.f.f.f.a.p.W.OX#X#X+XOXOX&X+X+X*X&XOX{ S H A e e w Z Z e Z Z Z d D "
};
