/* XPM */
static char *ground[] = {
/* columns rows colors chars-per-pixel */
"64 64 7 1 ",
"  c #4C3D26",
". c #695433",
"X c #735E39",
"o c #7C623E",
"O c #9F844D",
"+ c #B4905A",
"@ c #BC9862",
/* pixels */
"@@@@OOOOOOOOOOOOOOOO@@@@@@@@++++OOOO@@@@@@@@@@@@@@@@@@@@@@@@OOOO",
"@@@@OOOOOOOOOOOOOOOO@@@@@@@@++++OOOO@@@@@@@@@@@@@@@@@@@@@@@@OOOO",
"@@@@OOOOOOOOOOOOOOOO@@@@@@@@++++OOOO@@@@@@@@@@@@@@@@@@@@@@@@OOOO",
"@@@@OOOOOOOOOOOOOOOO@@@@@@@@++++OOOO@@@@@@@@@@@@@@@@@@@@@@@@OOOO",
"@@@@@@@@++++XXXX++++++++OOOOOOOOOOOOOOOOOOOO++++OOOO++++@@@@OOOO",
"@@@@@@@@++++XXXX++++++++OOOOOOOOOOOOOOOOOOOO++++OOOO++++@@@@OOOO",
"@@@@@@@@++++XXXX++++++++OOOOOOOOOOOOOOOOOOOO++++OOOO++++@@@@OOOO",
"@@@@@@@@++++XXXX++++++++OOOOOOOOOOOOOOOOOOOO++++OOOO++++@@@@OOOO",
"@@@@@@@@OOOOOOOOOOOOOOOO++++++++XXXX@@@@@@@@++++@@@@@@@@@@@@OOOO",
"@@@@@@@@OOOOOOOOOOOOOOOO++++++++XXXX@@@@@@@@++++@@@@@@@@@@@@OOOO",
"@@@@@@@@OOOOOOOOOOOOOOOO++++++++XXXX@@@@@@@@++++@@@@@@@@@@@@OOOO",
"@@@@@@@@OOOOOOOOOOOOOOOO++++++++XXXX@@@@@@@@++++@@@@@@@@@@@@OOOO",
"............XXXXXXXXXXXXXXXXXXXXXXXXXXXX................XXXXXXXX",
"............XXXXXXXXXXXXXXXXXXXXXXXXXXXX................XXXXXXXX",
"............XXXXXXXXXXXXXXXXXXXXXXXXXXXX................XXXXXXXX",
"............XXXXXXXXXXXXXXXXXXXXXXXXXXXX................XXXXXXXX",
"@@@@OOOOOOOOOOOOOOOO@@@@@@@@OOOO@@@@OOOOOOOOXXXX++++++++++++@@@@",
"@@@@OOOOOOOOOOOOOOOO@@@@@@@@OOOO@@@@OOOOOOOOXXXX++++++++++++@@@@",
"@@@@OOOOOOOOOOOOOOOO@@@@@@@@OOOO@@@@OOOOOOOOXXXX++++++++++++@@@@",
"@@@@OOOOOOOOOOOOOOOO@@@@@@@@OOOO@@@@OOOOOOOOXXXX++++++++++++@@@@",
"OOOOOOOOXXXX++++++++++++@@@@OOOO++++++++++++++++OOOOOOOOOOOOOOOO",
"OOOOOOOOXXXX++++++++++++@@@@OOOO++++++++++++++++OOOOOOOOOOOOOOOO",
"OOOOOOOOXXXX++++++++++++@@@@OOOO++++++++++++++++OOOOOOOOOOOOOOOO",
"OOOOOOOOXXXX++++++++++++@@@@OOOO++++++++++++++++OOOOOOOOOOOOOOOO",
"@@@@@@@@@@@@++++@@@@@@@@@@@@OOOOOOOOOOOOXXXX@@@@@@@@@@@@@@@@@@@@",
"@@@@@@@@@@@@++++@@@@@@@@@@@@OOOOOOOOOOOOXXXX@@@@@@@@@@@@@@@@@@@@",
"@@@@@@@@@@@@++++@@@@@@@@@@@@OOOOOOOOOOOOXXXX@@@@@@@@@@@@@@@@@@@@",
"@@@@@@@@@@@@++++@@@@@@@@@@@@OOOOOOOOOOOOXXXX@@@@@@@@@@@@@@@@@@@@",
"XXXXXXXX....................XXXXXXXXXXXX................XXXXXXXX",
"XXXXXXXX....................XXXXXXXXXXXX................XXXXXXXX",
"XXXXXXXX....................XXXXXXXXXXXX................XXXXXXXX",
"XXXXXXXX....................XXXXXXXXXXXX................XXXXXXXX",
"@@@@@@@@@@@@@@@@@@@@XXXXOOOO@@@@@@@@++++++++++++@@@@@@@@@@@@OOOO",
"@@@@@@@@@@@@@@@@@@@@XXXXOOOO@@@@@@@@++++++++++++@@@@@@@@@@@@OOOO",
"@@@@@@@@@@@@@@@@@@@@XXXXOOOO@@@@@@@@++++++++++++@@@@@@@@@@@@OOOO",
"@@@@@@@@@@@@@@@@@@@@XXXXOOOO@@@@@@@@++++++++++++@@@@@@@@@@@@OOOO",
"OOOOOOOOOOOOOOOOOOOO@@@@++++++++OOOOOOOOOOOOXXXX@@@@OOOOOOOOOOOO",
"OOOOOOOOOOOOOOOOOOOO@@@@++++++++OOOOOOOOOOOOXXXX@@@@OOOOOOOOOOOO",
"OOOOOOOOOOOOOOOOOOOO@@@@++++++++OOOOOOOOOOOOXXXX@@@@OOOOOOOOOOOO",
"OOOOOOOOOOOOOOOOOOOO@@@@++++++++OOOOOOOOOOOOXXXX@@@@OOOOOOOOOOOO",
"@@@@++++++++++++@@@@@@@@OOOOOOOOOOOOOOOO++++++++++++++++++++OOOO",
"@@@@++++++++++++@@@@@@@@OOOOOOOOOOOOOOOO++++++++++++++++++++OOOO",
"@@@@++++++++++++@@@@@@@@OOOOOOOOOOOOOOOO++++++++++++++++++++OOOO",
"@@@@++++++++++++@@@@@@@@OOOOOOOOOOOOOOOO++++++++++++++++++++OOOO",
"XXXX....XXXXXXXX............XXXXXXXXXXXXXXXXXXXX............XXXX",
"XXXX....XXXXXXXX............XXXXXXXXXXXXXXXXXXXX............XXXX",
"XXXX....XXXXXXXX............XXXXXXXXXXXXXXXXXXXX............XXXX",
"XXXX....XXXXXXXX............XXXXXXXXXXXXXXXXXXXX............XXXX",
"@@@@@@@@@@@@@@@@@@@@OOOO@@@@OOOOOOOOXXXXOOOOOOOO++++@@@@@@@@@@@@",
"@@@@@@@@@@@@@@@@@@@@OOOO@@@@OOOOOOOOXXXXOOOOOOOO++++@@@@@@@@@@@@",
"@@@@@@@@@@@@@@@@@@@@OOOO@@@@OOOOOOOOXXXXOOOOOOOO++++@@@@@@@@@@@@",
"@@@@@@@@@@@@@@@@@@@@OOOO@@@@OOOOOOOOXXXXOOOOOOOO++++@@@@@@@@@@@@",
"++++OOOOXXXX@@@@@@@@@@@@@@@@OOOO@@@@++++++++OOOOOOOOOOOOOOOO++++",
"++++OOOOXXXX@@@@@@@@@@@@@@@@OOOO@@@@++++++++OOOOOOOOOOOOOOOO++++",
"++++OOOOXXXX@@@@@@@@@@@@@@@@OOOO@@@@++++++++OOOOOOOOOOOOOOOO++++",
"++++OOOOXXXX@@@@@@@@@@@@@@@@OOOO@@@@++++++++OOOOOOOOOOOOOOOO++++",
"@@@@@@@@OOOOOOOOOOOO@@@@@@@@OOOO@@@@@@@@OOOO++++@@@@@@@@@@@@@@@@",
"@@@@@@@@OOOOOOOOOOOO@@@@@@@@OOOO@@@@@@@@OOOO++++@@@@@@@@@@@@@@@@",
"@@@@@@@@OOOOOOOOOOOO@@@@@@@@OOOO@@@@@@@@OOOO++++@@@@@@@@@@@@@@@@",
"@@@@@@@@OOOOOOOOOOOO@@@@@@@@OOOO@@@@@@@@OOOO++++@@@@@@@@@@@@@@@@",
"XXXXXXXXXXXXoooo........oooo....XXXXXXXXXXXX....    ........XXXX",
"XXXXXXXXXXXXoooo........oooo....XXXXXXXXXXXX....    ........XXXX",
"XXXXXXXXXXXXoooo........oooo....XXXXXXXXXXXX....    ........XXXX",
"XXXXXXXXXXXXoooo........oooo....XXXXXXXXXXXX....    ........XXXX"
};
