/* XPM */
static char *roof[] = {
/* columns rows colors chars-per-pixel */
"64 64 154 2 ",
"   c gray10",
".  c gray11",
"X  c #1D1D1D",
"o  c #1E1E1E",
"O  c gray12",
"+  c #202020",
"@  c gray13",
"#  c #222222",
"$  c #232323",
"%  c gray14",
"&  c #252525",
"*  c gray15",
"=  c #272727",
"-  c #282828",
";  c gray16",
":  c #2A2A2A",
">  c gray17",
",  c #2C2C2C",
"<  c #2D2D2D",
"1  c gray18",
"2  c #2F2F2F",
"3  c gray19",
"4  c #313131",
"5  c #323232",
"6  c gray20",
"7  c #343434",
"8  c #353535",
"9  c gray21",
"0  c #373737",
"q  c gray22",
"w  c #393939",
"e  c #3A3A3A",
"r  c gray23",
"t  c #3C3C3C",
"y  c gray24",
"u  c #3E3E3E",
"i  c #3F3F3F",
"p  c gray25",
"a  c #414141",
"s  c gray26",
"d  c #434343",
"f  c #444444",
"g  c gray27",
"h  c #464646",
"j  c gray28",
"k  c #484848",
"l  c #494949",
"z  c gray29",
"x  c #4B4B4B",
"c  c #4C4C4C",
"v  c gray30",
"b  c #4E4E4E",
"n  c gray31",
"m  c #505050",
"M  c #515151",
"N  c gray32",
"B  c #535353",
"V  c gray33",
"C  c #555555",
"Z  c #565656",
"A  c gray34",
"S  c #585858",
"D  c gray35",
"F  c #5A5A5A",
"G  c #5B5B5B",
"H  c gray36",
"J  c #5D5D5D",
"K  c gray37",
"L  c #5F5F5F",
"P  c #606060",
"I  c gray38",
"U  c #626262",
"Y  c gray39",
"T  c #646464",
"R  c #656565",
"E  c gray40",
"W  c #676767",
"Q  c #686868",
"!  c DimGray",
"~  c #6A6A6A",
"^  c gray42",
"/  c #6C6C6C",
"(  c #6D6D6D",
")  c gray43",
"_  c #6F6F6F",
"`  c gray44",
"'  c #717171",
"]  c #727272",
"[  c gray45",
"{  c #747474",
"}  c gray46",
"|  c #767676",
" . c #777777",
".. c gray47",
"X. c #797979",
"o. c gray48",
"O. c #7B7B7B",
"+. c #7C7C7C",
"@. c gray49",
"#. c #7E7E7E",
"$. c gray50",
"%. c #808080",
"&. c #818181",
"*. c gray51",
"=. c #838383",
"-. c #848484",
";. c gray52",
":. c #868686",
">. c gray53",
",. c #888888",
"<. c #898989",
"1. c gray54",
"2. c #8B8B8B",
"3. c gray55",
"4. c #8D8D8D",
"5. c #8E8E8E",
"6. c gray56",
"7. c #909090",
"8. c gray57",
"9. c #929292",
"0. c #939393",
"q. c gray58",
"w. c #959595",
"e. c gray59",
"r. c #979797",
"t. c #989898",
"y. c gray60",
"u. c #9A9A9A",
"i. c #9B9B9B",
"p. c gray61",
"a. c #9D9D9D",
"s. c gray62",
"d. c #9F9F9F",
"f. c #A0A0A0",
"g. c gray63",
"h. c #A2A2A2",
"j. c gray64",
"k. c #A4A4A4",
"l. c #A5A5A5",
"z. c gray66",
"x. c #A9A9A9",
"c. c #AAAAAA",
"v. c gray67",
"b. c #ACACAC",
"n. c gray68",
"m. c #AFAFAF",
"M. c #B2B2B2",
"N. c #B4B4B4",
"B. c #B6B6B6",
"V. c gray72",
"C. c #BBBBBB",
"Z. c gray75",
"A. c #C0C0C0",
"S. c #C3C3C3",
/* pixels */
"P P #.O.) V ,.O.) ) 3.9.] J ] #.#.)  .S #.) R R  .;.P  .b ,.] R ,.) ) V S b R P ) J J B B V P i #.R )  .P 3. .b #.R R ) ] O.#.! ",
") R =.) ! b  .! P J R =.J  .;.J B R V ) V  .)  .R =. .,.!  .J =.R #.3.] P b b R P b S S S l 9 S ] ! ,.] ) =.P ! #.3.! ! O.V R O.",
"J l e s s V 9 5 i i i s * 5 * e V l b B S 2 l e i b l R V P R J J b l B l b 2 + * h + i * 2 5 5 R i l B s h h 5 l e s h h i V l ",
"=.;.] ] #.,.#.e.,.#.,.O.! P J #.i b S ] =.h ! B O.)  .! P ! P ,.! ] R ) ) ) V #.#.! ! ] ) ! J #.) P O.3.O.R ! b ] S P )  .R ] #.",
" .9.] O.;.;.) #.O.9.O.! ) ] 3.=.R ,.R ) ) l P b  .=.B  .,. .h.] S ] R O.] ) B ) ] ] ) P ! J 3.] ) ! 9.P ! P ] J ! ,.;.]  .V ] ! ",
"#.z.=.9.] ,.;.z.R ,.O.O.R ! ! ]  .=.B ) O.V ] P  .] ] ! J O.9.P R ) ! ) ! #.=.#.R P ;.V  .C. .P ;.,.] P B  .P S ) ! =.=.) B  .! ",
"#.,.3.;.] #. . .#. .#.,.] #.] =.#.P ! ! 3.b 9. .R ]  .#.=.#. . .) #.=.! =.=.) V ] =.R S ] P V z.R #.) S ;.O.] ] ) J  .J R ! ,.] ",
"3.O.;.,. .l.u.,.;.e.=.! O.#.! B ] ! S  .P J ;.B ! R  .) P #.#.3. .! =.S V R #. .9.P  .b #.J 9. .=.] ! ] ! 3.! P  .! ) ]  . .l.,.",
"S ] ] R O.V P #.R O.J S P P l b V J h b J V S s ] V B V l S s b * l s 2 2 2 9 b e i 9 s 5 9 e 2 e 9 * 9 2 P b h l ) b i h S h B ",
"s h R S O.b i ! P S ! ,.) =.P =.! 3.#.! R ,.P R P ! R  .#.O.) ;.J ;.=.;.u.#.S ) !  .O.] #. . .#.R  .O.V !  .) O.e.;.9. .B ] S R ",
"! R b b J S ; l O.O. .O.l P R =.,.] R R =.] #.b  .R ] R ]  . .) ) O.B ] O.P ! S b !  .) V #.)  .R #.! ) ! ] P #.! ] 3.i l B S J ",
"P B b S B J   #.O.,.3.#.J S J ) N.) V ) ,.3. . .P ! ;.) #.]  .=.h.N.,.O.#.O.J 3.P  .O.J B  .;.,.b.R  .R  .,.#.;.P ) ] =.J R l J ",
"S ! b h h l 5 ! O.P ] ! R P J ,.;.R S b l P R P ] B !  .] ) 9.] u.;.#.O.) #.! ! R  .! =.;.) ! ! R h B P ! ! ,.! ] P J ] V J s S ",
") J b P V S ; ! #.] R #.! O.R ] ) #.] P ) ! h.R J #.O.#. .] h. .J ;.] =.=.! R #.=. .B O.) ! ] R !  .) ! =.] u.! ] ) #.S ] V ! i ",
"b ] P ,.S B 5 R #.;.S ) !  . .P R ,.R ] #.9.) ! S ) ! O.! O.=.s ) B  .3.#.) S ) #.! R ] ] ) 9.=.] P ) ] =.z.J S =.) R ) V S ) b ",
"P h 9 b B b s O.B B s V 3.=.] ;.B =.B ) 3.! #.O.;.] ! ] P  .J  .! 5 l R ! J S ,.S ! P O. .! S =.B B s B ! V ! #.V b R P ] O.P #.",
";.V b h B J V h b S P B P ;.! J )  .] ! ! ] ) ]  .R 9.R V #.P J ] e b P P ) #.P ! R R =.b b P S J ) ] S i S b ] 3.) ! P #.#.B s ",
"#.S i h S V S V b S l J ! ] #.O.;.R 3.] ;.J P =.#.;.;.! =.P ;. .u.l B ! ] ) 3.S ) S J R V B R b J s R S J J P O.=.#.#.) S B ) ! ",
") s b J B l S P b l l J ! ! ) ] V #.9.#.S ,.) R ) l P J B ] O.] S 9 J P  .J ] ! b l J P V l S J J P P V V P b ! P P ;.! )  .P ) ",
"=.s b J b B V B l b h S ) R ] )  .V ] )  .P ,.;.R R #.b ,.O.#.R ,.s P V S R P ) ! R P ) S B h J b J  .V  .V l P ;.O.R S #.#.O.! ",
"! b i b B b B l h i l V O.] ] =.R ) O.] ! ;.9.) B ,.J  .) #.] ) #.h B S S #.S R ] P V J P R B ! i P B S s ] ! #.=.P J P O.)  .) ",
"9 5 5 9 ; 9 e s 5 X 2 + s s i ) B 5 5 2 ; 2 + 9 h 9 l 5 i h V b V P h e 5 e e B 2 e s 9 B b B P e 5 5 h s i 9 h b e l ; 9 9 9 h ",
"3. . .R P #.O.=.B !  .! =.! ] R R S ! l S l s b V P V e V ) l J P  .) J R P 9.,.=.3.3. .,.;.;.;.=.,.! ] S R B P ] 3. .S ] b S B ",
") #.P V P ) ) =. .3.;.B ! O.9.] S S V h h b b B s B ] e  .#.#.] B S R h  .B =.9.e.a.=.)  .#.] ] ] ! ) P h b ) ! ) J R b S B P ! ",
"! ) R ! 3.R ] R =.;.O.J ) ] #.=.P h J P J B b P R b h 2 ) ) O.O.P B O.S #.) 9.,.#.O.=.3.a.,.) e.=.=.3.! ] O.R S V ] ] l ! P ! P ",
"R O.] #.O.J R P #.O.O. .R #.) ] O.b R S S J J s l s P l ] ) R ! e.O.B.) V =.#.3.;.;.l.#.#.u.N.,.;.#.#.] ;.O.S R ] ) R B P J ,.] ",
"! ! V #. .V #.! J R R =.,.=.! =.S l l S S B l S b s P 9 J O.! ] #.9. .#.B ] h.! ] u.u.,.O.J !  .e.O.P =.#.B ! S ) 9.! i ! !  .) ",
"R B b h l B =.P R  .l.O.R #.) P O.e ; s s 2 2 2 * 2 i ; e e * e 9 i i 5 e 2 e.O.! ] ;.) R =.) #.=.S J J b h h S l b B 9 b b s b ",
" .B V s B l B R ! V R =.) b R ;.! P ,. .=.B ) V  .! B S ) V J  .#.! ] ) ) ] V ) ) J #.R R =.;.,.) R O.e.O.) =.V J J ] R  .! R O.",
"s P b l S B s P B S B P P ;.]  .] #.R J ) J R b #.O.S ) =.#.=.R P ] R R O. .B #.P  .J R =. .) O.#.#.O.S R O.R ! ! ;.#.) ! S ! ] ",
"h ] S R R l l J ! R l ;.O.O.O.! O. .R #.P B P V ] #.] S V R O.R V ! V V ! 3.R 9.P O.P P =.l.) P J O.P P O.] ] l #.!  .;.! J 3.O.",
"V V ) B B P S l s S V O.O.P ] #. .R R ! 9.B ) V B V  .O.O.) ) ) J ] O.R #.) ) V ! ) ! R  .J J Z. .;.S B O.R ] S ) ) O.] ! ! O.! ",
"V ! S l V ! J S h b b S ] ) B O.! ) ! ) O.! ) B ) J ) ) S R !  .#.O.O.V V  .R ;.a.#.V V P  .3.] #.;.) =.J e.) B =.P  .R ;.9.3.u.",
"i V s 5 5 h s S h b h ! J S l h V h h B B V V h ] B b l h B l i 2 h h e s s h B i b e e s 9 X * 5 s * ; 9 R S B s ) s 9 B P S V ",
"P ! R ,.#.P h ;.9.=.a.3.a.b.9.l.h.) R ] R ] P P R l V R ! R ! ! V ,. .,.R =.V B V ! P e J ) J P V O.O.) ! ) R O.,. .) O.J 3.) R ",
" .O.J  . . .l =.;.3.;.9.;.u.3.u.u.R  .R R ,.O.S =. . . .#.=.3. .B ) ! R B =.b h S S P J b R P ! R ] J ) P  .] =.l J =.#.P ) J ) ",
"u.=.J O. . .J b.h.h.h.l.e.;.b.9.A.S  .) O.R R R P R O.3.;.) O.O.,.u.=.=.J =.J ! J h b l V J ] ! ! O. .O.) ;.O.b V ) V =.! ,.) ! ",
"] 9.#.) P =.! 9.9.,.e.3. .a.9.l.3.S =.P  .#.9.) ! ! J R J ) ] S ! ;.! ;.J ] P  .5 S J R S S V R ) S J J ! S  . .O.u.R #.J J ) ) ",
"O.=.]  .R ) B ;.e.a.u.#.;.9.#.,.e.J ] R  .! =.P P ! ! ,.! #. .] S R R ]  .J P J b V S J ) b l P P  .O.V  .] O.h #.)  . .O.J S.P ",
"] ;.,.3.) P b ;.3.h.9.;.=.9.;.] a.J P #.,.] O.R R ] R  .l ) ) ! ] S V ] #. .S P J J J J V B B b R O.] ) =.O.O.J ) b R O.] ] =.O.",
"] O.R J R B ] ] P P i )  .! =.) ! ;.P R ,.b V h B b B B B l h !  .! J S R J ! S ) R b V R S ;.J V S l ] P  .O.S ] h ! S ] ) P R ",
"] ,.) !  .) R J =.! S ! #.R =.V ! ;.;.] ;.b h b l B J s b S s S R  .#.,.R J J ! ) ] S l ! =.,.] S 9.;.#. .#.S b J P  . .P J ! ] ",
"R #.J V  .! R ]  .9. .) S J R  .;.O.3.V P P b V J b h B l l J P O.=. .,.) #.! =.) ,.#.O.! ] ) S P  .R =.9.O.l ) J ] ! S ! =.B ! ",
"S ] V ) =.3. .;.! =.R J ) ! R ) J ;.=.!  .V P s l b B l s P ] P R ;.R b P P b 3.) S J ) J #.O.,.S ) ! ! J ) O.#.J R ] ! ] e.;.3.",
")  .=.! ;. .#. .O.J S b ) P ) h u.l P #.O.b S s B V h l J l b  .#.h ;.=.S P 9.S  .) b O.] ] ;.,. .] ) #.] ) O.S ;.R e.) ! O. . .",
"P P ;.! ;.) 9.,.R ] V #.J #.]  .B R R B R B V l B ] b l b s V S S J =.) #.R ;.) P ) J ! ! ] ! ,.R =.O.] ) ) ] B J ) =.) ) l =.=.",
"R P R ] ! R s 9 l l ! b ] S J B  .R P l R b l P R S J ) P l V S J S l B R S V 2 l J S !  .] J ! 9.V 9 e s 5 5 s h 2 e h S S ) V ",
"] ! ] ] e.9.] V O.O.O.) V  .! ]  .#.! ! ] V ;. .J  .P  .] J  .P ] ] i J P )  .R  .R ,.=.J P R ,.#.h b h e s s l V V i V =.9. . .",
"O.e. .u.O.=.l ! ! =.=.] ] R 9.P ]  .S J  .!  .a.) #.] ;.) O.R ] ! ! ! ;.O.u.R B ) ;.) =.=.) =.b P l B i h h B l b i h e ,.3.,.3.",
"=.#.;.u.=.;.P  .S ) ) ) R B B J ) O.V B ) ! J ! O.) #.=.J ;.J R P ,.] ) J ! h P ] 9.! S ! ] ! O.] B l 9 l h s B b e V V =.=.9.,.",
"#.3.a.=.;.3.) ) ;.! ) R ,.J R  .] ] R R P ]  .R ) #.,.=.] u.J P ) #.P V ) ;.b ] ) P O.B.#. .=.P ] s h i h l h B i l h l 3.;.#.#.",
"=.e.,.#.#.O.V S ) ]  .;.;.R ! P ] #.O.] J ! #.! S =.#.;.=.e. .] J ) R #.,.;.] R  .=.9.]  .3.! u.O.B b B l l b h l ! ! J ] ) ;.u.",
"e l e V h l i ; * 2 5 5 e ; 5 2 + b i 9 e ; e 9 * 5 + e * X 9 5 e   2 ; + e e e 5 2 B S h 9 e * + ; X ; * + ; * 9 9 + 2 S P S b ",
";.9.l V h V P B V h J l =.] J ) S ] ) ) O.!  .V ] #.J J O.B J 3.) P R  .R J  . .R ! 3.J ) O.P P S R R ] R  .;.;.9.;.;.3.=.=.9.h.",
" .) i V R B l h S V S b ! ) J 9.,. .;.O.O. .;.l ,.P ] O.) V #.P #.V V V ! P J S B P P P O.! ! ] ,.] =. .B  .#.,.9.=.#.3.u.9.R =.",
"e.O.J V ] P ) l l h S V O.O. .#.] S ] J ! ] 3.P ! P ! ) =.R #.B ) S R )  .J ! ) V ) R ) O.) V ) #.! =.R B O.R ;.b.#.3.u.#.;.) #.",
" .] P B l S P b h b S ] ) l S ] ,.,.P ! #.,. .) ;.P J S #.P  . .e.B R P  .R =.S #.V S P R ] P ] P ,.) ] J  .! O.h.O.u.3.=.,.=.;.",
";.! ! b B l B P J b b l ,.#.] P ] =.P J ] 9.,. . .O.] !  .P ;.9.=.P S ] R ] ;.R P P ! =.a.! ! P ;. .] ,.,.3.9.z.=.;.e.a.;.#.3.u.",
"R S J V J h V B V V l B s l 2 B 5 l ; 9 s e s 5 e s 2 2 2 + 2 e 5 * ] P J h l b V  .b J O.h h S ) b l s b b B J #.P V R J #.3.,.",
"V S ! S ;.#.l ! R P #.=.P R ! O.#.! ;.P ] 9.P  .R ! J ]  . .R O.O.] R ] ] P ) R ] O. .3.! O.) O.) #.;.J R ! P O.O. .#.! ! 3.V S ",
"=.] S ] ) P 9 B P ) ) ! J ] #.) #.! R R =.#.) J O.O. .) J ) J ] !  .S J ! R P l P =.=.O. .#.!  . . . .J P ] ! ;. .P  .V B 9.) ! ",
"R P R ! P #.5  .! 3.#.#.P ! J #.3.R ) R ,.#.] #.P ] ,.) P #.O.! 9.h. . .J P P O. .#.] B ! V 9.#.u.! ) ] O.=.#. .V ! O.O.;.#.P ] ",
"! P R ! B ) V ;.P ! O.R ;.S R e.! R O.s V P R ! R ! #.R P ) ;.V #.! ] ! O.! b ! P #.) ! ,.P  .R  .S ) R  .] ;.] ] V b S  .R R ! ",
"#.R ] ] ! ! i 3.) J ] ] ;.#.R 3.B =.O.) #.S e.) ) ) O. .R l ;.V b  .B e.=.! J ] ] ) B #.R #.] =.B J ;.R #.R ;.R O.] O.J #.) J ) "
};
