/* XPM */
static char *wall_brick[] = {
/* columns rows colors chars-per-pixel */
"64 64 256 2 ",
"   c #0C0601",
".  c #120B02",
"X  c #180D03",
"o  c #1C140B",
"O  c #181307",
"+  c #1A1613",
"@  c #221B0C",
"#  c #241807",
"$  c #231C12",
"%  c #281B14",
"&  c #301F16",
"*  c #2A230E",
"=  c #2C2314",
"-  c #2C251B",
";  c #2C291C",
":  c #262215",
">  c #32251B",
",  c #342C1C",
"<  c #372A19",
"1  c #37331D",
"2  c #372308",
"3  c #2D2A21",
"4  c #342C22",
"5  c #3B2E24",
"6  c #382D2A",
"7  c #343124",
"8  c #3C3324",
"9  c #3C342A",
"0  c #3E3929",
"q  c #3E3B31",
"w  c #2F3028",
"e  c #40371D",
"r  c #423525",
"t  c #42362B",
"y  c #433B2C",
"u  c #4A3C2C",
"i  c #473B24",
"p  c #443C32",
"a  c #493E33",
"s  c #483F38",
"d  c #533E33",
"f  c #4A3727",
"g  c #45412E",
"h  c #4C422D",
"j  c #4F492C",
"k  c #53452B",
"l  c #4C4334",
"z  c #4C443A",
"x  c #4E4B3D",
"c  c #494434",
"v  c #534534",
"b  c #534B34",
"n  c #534B3C",
"m  c #5A4C3C",
"M  c #584937",
"N  c #5C533C",
"B  c #595438",
"V  c #57552F",
"C  c #644C38",
"Z  c #65523C",
"A  c #68563B",
"S  c #76573C",
"D  c #70663C",
"F  c #4C4842",
"G  c #544D42",
"H  c #5B4D43",
"J  c #554A46",
"K  c #565344",
"L  c #5C5343",
"P  c #5D544B",
"I  c #5B594A",
"U  c #5D5853",
"Y  c #654E43",
"T  c #635444",
"R  c #645A45",
"E  c #6C5B43",
"W  c #63554A",
"Q  c #645B4C",
"!  c #6B5C4C",
"~  c #6A5547",
"^  c #735D4B",
"/  c #765B45",
"(  c #655C52",
")  c #6C5D54",
"_  c #645A56",
"`  c #735E51",
"'  c #634F51",
"]  c #6B614D",
"[  c #676248",
"{  c #74624D",
"}  c #7C644C",
"|  c #776648",
" . c #656153",
".. c #6C6354",
"X. c #6C645A",
"o. c #6D6A5C",
"O. c #696557",
"+. c #736454",
"@. c #7A6553",
"#. c #746A53",
"$. c #7B6B54",
"%. c #72655B",
"&. c #7A665A",
"*. c #746B5C",
"=. c #7C6C5C",
"-. c #7C725C",
";. c #7C7258",
":. c #6E6662",
">. c #746C63",
",. c #7A6E63",
"<. c #766B67",
"1. c #7B7364",
"2. c #7C746B",
"3. c #7A7568",
"4. c #7B7772",
"5. c #815A3C",
"6. c #84644B",
"7. c #856949",
"8. c #8B7548",
"9. c #94734E",
"0. c #846C54",
"q. c #826D5B",
"w. c #896C57",
"e. c #916F58",
"r. c #837255",
"t. c #8C7255",
"y. c #83735B",
"u. c #8B755D",
"i. c #887A5B",
"p. c #95785A",
"a. c #956C45",
"s. c #836C61",
"d. c #827464",
"f. c #8A7565",
"g. c #847965",
"h. c #8C7B64",
"j. c #83756B",
"k. c #897668",
"l. c #847B6C",
"z. c #8C7C6B",
"x. c #947D65",
"c. c #927D6C",
"v. c #987C67",
"b. c #817671",
"n. c #847C73",
"m. c #8B7C73",
"M. c #847C78",
"N. c #937E74",
"B. c #926A53",
"V. c #9A855E",
"C. c #8F8055",
"Z. c #8D826D",
"A. c #8B8367",
"S. c #94836C",
"D. c #9C846C",
"F. c #958B6D",
"G. c #9C8A6E",
"H. c #978366",
"J. c #868175",
"K. c #8C8373",
"L. c #8C847B",
"P. c #8B8679",
"I. c #938473",
"U. c #9A8574",
"Y. c #938A76",
"T. c #9B8B74",
"R. c #93867A",
"E. c #948B7C",
"W. c #9B8C7B",
"Q. c #998779",
"!. c #9D927C",
"~. c #9A9378",
"^. c #99946E",
"/. c #A4886A",
"(. c #A28C74",
"). c #A18D7B",
"_. c #AB8C73",
"`. c #AA9374",
"'. c #A3937D",
"]. c #AB957C",
"[. c #A79877",
"{. c #B39779",
"}. c #AF926B",
"|. c #B3A477",
" X c #8B8882",
".X c #958B82",
"XX c #9B8D83",
"oX c #9B8F89",
"OX c #948A88",
"+X c #969183",
"@X c #9C9383",
"#X c #9D948B",
"$X c #99958B",
"%X c #9A9896",
"&X c #A39484",
"*X c #A49A85",
"=X c #AB9B84",
"-X c #A2948B",
";X c #A49A8B",
":X c #AB9B8B",
">X c #A99688",
",X c #B29D84",
"<X c #B59B87",
"1X c #A49C92",
"2X c #AA9D93",
"3X c #A49D9B",
"4X c #B19F91",
"5X c #ABA28D",
"6X c #A9A186",
"7X c #B4A38B",
"8X c #B8A688",
"9X c #ACA394",
"0X c #ACA39A",
"qX c #AEA99B",
"wX c #A7A297",
"eX c #B2A493",
"rX c #B9A593",
"tX c #B5A994",
"yX c #BBAB94",
"uX c #B2A499",
"iX c #B4AB9C",
"pX c #BBAB9B",
"aX c #B8A698",
"sX c #BBB29D",
"dX c #B6B199",
"fX c #ABA8A4",
"gX c #B4ABA2",
"hX c #B7ABA5",
"jX c #BCB2A3",
"kX c #BDB5AB",
"lX c #B8B5A8",
"zX c #B7B3B2",
"xX c #C2AD99",
"cX c #C4B39B",
"vX c #C8B79C",
"bX c #D3BD9A",
"nX c #C3A889",
"mX c #C2B4A4",
"MX c #C3B6AA",
"NX c #C4BAAB",
"BX c #C9BAA6",
"VX c #C8BCB4",
"CX c #D3BDAB",
"ZX c #CBC2AB",
"AX c #D6C6AC",
"SX c #CDC3B4",
"DX c #CBC5B9",
"FX c #D6C7B7",
"GX c #E3CCB3",
"HX c #B4B7C0",
"JX c #C2BDC1",
"KX c #D4CAC2",
"LX c #D7D1C6",
"PX c #C6C5C0",
"IX c #E3D4C5",
"UX c #ECE0C8",
/* pixels */
"dX~.$.y l.;.l 1.v Q &X9 L + 2XW b.W g g.*.1.O.o T y o v P Y C %.; . J 3X%XO. Xm.Z.L._ 2XE. Xb.G t z : mXl ] 9 K f.+.#.J.Y.K y c ",
", = t b , T d.v ,.#.` Z m > ,.gXZ.y 8 l z.c.Q t 0 4 j G * # ; + _ -  X:.9 E.zX$XOXOX) ( E.2.b.. R XXW ) 1.z.O.L.<.y 3.;.R H *.k ",
"d.*.*Xk.m ( %.( >.Y.y u r l c 3 $ w z ; ; $ r #X1X1XdXcX!.hX*.- P K c + . : $ ,.%.o.F % - z a z H #X#Xj.n.f Z #.o c ( A.2.J.p W ",
"=.%XzX9XK -Xg.:X8XS.R wXP.g..Xj.:X1.lX*.fX#X;.U 0 1.7XsX;XA.R  .4.<.q + _  .n.3 ; p ..b.) $ b.5 W.s s b.<.2.P.#X0 * X.D.+.-.<.@ ",
"7 + < g , Z.'.d.N R.L - o - O y 5 h.* $ c *.@X1.-.1 y 1 R H jXD l.6 $ R O.:.j.M.z 4.J U z U P.F G : K P K - :.+X!.G.K.l.SX5XB T.",
"[ P W +.m 8 P Q X.X.J.Z.] [ #.&X'.~.BXA.x y N 2XNXm.NXA.Q K n l.' c.*.l.g @ 4 a 2.4. XwXF _  .X.#X0XfX3X] y K ) 1.r.j v N k A.X.",
"M m W m r *.Q *.l z.3.W X.y V m j 9 O X !.9XR W...2.;.jX-.d.v j.( ` o.>.J z OX%XoX:. X4.OXx - b 9 + 3X4.3X%XU $XoXl.MX@XZXW.F _ ",
"T.&.c.y.@.j.( z N.c.0 : ; n 1.K.y.u.[.5X8.| F.T.A.L.AXy.V E @X1 4 4   8 gXJ _ K 0 4 6 c g J.U H p o DXfX%XzXfX2.n.G I Q J.a 9 O.",
" .3 ^ ] 3.&.k.( K 4.P.1.,.;., 1 [ 7XY._.|.V < D =.-XsXFXBXrXtX@X!.m n ; w x n F 4.U >.Q l.m.P p <.N.hXM._ X.' m J ! Y ` *.+.l.l.",
"n.iXm.Z y.v h 1 v P.@XSXA K c +.H tXz.D.}.; r F.&.qXpX7XxXtXNXmXiXdXeX0X*.7 2. Xz J x O.5 9 h n t 3 X.S %X3XM.M W ^ Y &.B W.,.2.",
"h t P K.%.! { c.mXW  XM.2.B b E.G.T.,X'.i.8X|.|.[.jX>X^.E ~.eXNXhXNXjX%XkXZ.t p z.2XK..X1.+.<.%.X.- %XN.zXHXR.).2Xd u.e.L.%.n 2.",
"P -.^ @ U d 5 z y 9 F q 5 ^ 1 8 1 0 g b | ;.j k N ..*XcX[.^.T.SXmXVXI.kXuXG n R $.I.! X..X4.1.! ,.M.JXk.R.MXL.k.Q.W.c.).R L k.W.",
"+.) d.M E.wXfX0XzXVXb.qX:X*X5X,XK.L.i.{ 7X} { [ O { -XgX9X*X$XKXiXJ.DXdX9XfXp 5 = = , ; @ 5 n @ c , zX-XfXzXc.XX2.XX&Xj.d.*.Z.MX",
"A.n I -.x.4XmXW.!.'.E..XE.L I.1.p b x h x , N S.-.#.5X+X@X9X<.#XkXL.1X&X!.2XQ T n.Z.~ Z.#.$.I.) ,.L.- $ Q 2.O._ I : b ^.9Xn.] [ ",
"-.` uX9XmXiX&XG ..0XXXz.I.] T. .2.@X2Xh.G.).5X$.t.k m *.H *.M.3.#X0XiXhXiX0X= N.m.XX&Xc.c.=.+.X oX*.>.5 u p z X.K c.y H K >.@XG ",
"y.+.=.rXs.7X&XuXXXuXiXvXT.pX!.E.,X:XP 1.L...S.@X[.D.m -.n.] >._ lXb.@XE..Xo.- %.{ H.{.m r x <.o 4 F :.K b.%.m.) 3.@Xy ; z B -.n.",
"f.I.,X=.XXsX;XjX&X=XaX&Xj.d.d.X m &X* *.X.@X1.W F.p.M 1.l.P.-.%.U >.l.gX2.K x r O.y p %.X.H ' Q b.fX_ kX1X*.;.$.!.# 1.  E.eXMX@.",
"W 2.2.Q.I.I.>.] a { W.{ @.T *.H x -.< R [ { k b m A | Z E.! 3.1.,.K.3.$X( _ k 1.l N.l.P - .. . X9 p .X@ s 2.B {.`.pX< r X # +.=.",
"3.hXG m.Q.,.Q 1.T m.W =.T +.5 K.1.l.G.< h.+.*Xg.g W.#.4 h L 1.*.1.j.Z.4 m O 8.) ..I.[.0 ' >..X2.%.2.b.X.Q.9 q.& IXIXmXrXCX8X` ~ ",
"d.d.I.Q ,.*.=.Z.%.=.W.d.Z.'.l 1 c n E.N @ - 7 4 i y.| (.!.r h ] r < n -.m 1.. *.4 =.-X] m.P % c  .g v Q OX Xl M r M k Y.X r.d.&.",
"3.tX%.z 9 G p l p Q N l 0 n 2XNXD i.7.V.K.SX3.qXJ.5X9XAX;X1X .gXwXL.;Xn >.,Xz.v z [ M.1.%.; 7 J.y g s r 7 u DXS.T./.* | 0._.d.E ",
">.n n.2XI ( L.1.Q %.l.y 1.@X@Xn k y g #Xq I O.[ F.m.2.s.NXX.3XjXgXn.rX+.T { =.!.b.v $.#.m.; 4.OX%X%X%XfX%X X-X).c.;.H.y.d.&.l 3 ",
"b r p y t g g.Q | y.h.+X$X+X2.I   x z j p.dXgXJ.eX:X7XV.p.c.*.y.'.cX(.z.c.y.-.U...l.g.K.! Q 2.o.J q p F  X2.G E Z [ aX=XQ FXDXmX",
"9X#X9XuX6X<.%.P *._ X.r N j.+.&.eXcXAX[.[.P.P $Xt BXQ @ U.5XC Z 9XE z.8 B l e J ; 4 q y 9 K.9Xv.n.s.G.C ,.^ ` &.! Y Z ..U ;.CX1X",
"n c U J R o.c K X.U 1.Z.m.,.l.r.l.d.U.-X!.3XK P.y r z z.R *.g.] Q R #.|.^.F.*XiX:X=.W.q q K.{ H.} p.E +.Z ` H v @.^ H ~ 1XI.K.@X",
"!.l.-Xl.>.x I y H *.L.g.O K u H n 0 5 l 0 e ) ).>X=X9XM #.<.o.j.A.P.g.9XA.K.P ^ E.=X,XY x._ / u.q.D.6.p.A =.{ q.S.).=.T *.& 2Xg.",
"r oX.Xo O - P 9 Q 5 >X#.( #.1.) ^.j *X5 s 3 L x.c.:Xr Z.( E.*X5X*.+.d.2XXXZX. ..W.=Xn.Y.!.i x.e.f.T.S./.6.~ t.G.s.r.6.^ +.E.mX!.",
"s.1X2.f.S y.{ U.i.1.m.,.R 9 g P.@ ,X<X].x.z.{.vXxX'.(.o , X ,.S.R { y , W T |.V 3.>XAXxXmXyX/ '.-X!.2.XXf.+.d.z.I.'.uXO + R 0.I.",
"..l ] X { d.z.u.y.D.r.o l p L.;X< '.x.f.^ *.2.!.Y.3.=X! I.y.*XW.t.|.y.F./._.$.0.xXAXmXVXdXa '.,.&X;.d.=.^ t.} D.u.w * SXFX#Xu l ",
"uXjXuXT '.#.I.$.{._.I.. l 9 P x P &Xr.T <.+.L.2.2.I.&X6X-.} D.h.=.0.N D y.d.[.) r 9 4 @ H 2.k.k.@X^ g.1.$.Z.7.] Q d.l l.pX#X1XiX",
"@ O   VX$XZXz 9 2XjX&XmXQ 1XZ.T.>Xu.y.T I ..=.1Xb.W @XS.V.$.r.y.A x.b J..XJ.eXA 5XQ.l.&XgXiXd 9 t 9 z l.L.OXs.l ! O.J c X.X.x .X",
"H >Xn.R K > - W.#.u.$.>X~.fX. .X^ -.S.0.2.C J.` J..X! 6.t.o.T.$.i.m # 1.H ( ( c = I.4X*.5 * R.VX4.>.G 2.2.L l ,.-X0X( ) KXVX~ m ",
"d.y H =.T.z.( T l.#X$ 4.$X8 X.c.S d.u.x.+.} Y.^ M Z [ v = 7Xh.tXc.#.vXbXuX'.9XW.:.d.G y 2.n.P y a y 2XC jXoXgXjX,.! L H ] ) H h ",
"H =.uXDXgX4.KX:.o.n.Q !.*.E.5 u.7.N.r.D.Z y.@.! r.! / 0.v P.I.S.H.'.k ; M @XrXE.K H N 3.T t yXAXbX7X) 0X&Xl.Z.d.=.W.=.{ *.=.q.P ",
"7 ,...l.l.j.0 z 4.%XoXVXDXE.- (.A %.q.].A =.z.W.f.} M e.U.; n c n y.#XDXAX-XSXtXY.L.<.G 5 p u y 0 *.=.m..XW.S.f.eXE.:XP..X>XeXc.",
": Q 2XK.$XgXX.( ..o.p wXG o.OX[.6.=.-.q.! 0.@X>X.X` =.| S G ..2XkXoXgXiXE.U qX.X#X*.l I..X0X,.y `.S.:XE.) j.oXu 2XL.0X*XF.X.z p ",
",.;XL.Q 1.jXqXgXt Q.r I.3.h.dX& v u @ y T N % r r.h 3 4 @ VX1X0X,., :X2.L.P.U  Xo.E.3.T.,.' @.T pXX.:Xs.:Xk.*Xd.y u c 2.G E..X%.",
"eXyXMXGXGX4XsX^.yXD.Q # 5 5 >.i E.,Xd -X2X! :Xz./ ,XT.1XhXdX#XoXL.0Xc r 0 w .XM.L.m m.r.@.H +...4 L. X! XX1.J.=Xg.^.@Xj.W.l.kXE.",
"mX`.W.eXQ.E.I.N.&X(.6Xp z 1.X.l <.!.lX)./.8X|.8Xh.UXZ.!.k { ! B [.yXP.] #XjX0XoX1X] 0 w ' ~.*XNXJ.wXP k.k.*.+X&XW.l 2X*XK.I Q *X",
"k A T.K.T.=X-X*Xu.S.'.h #X=XT b R |.-.- = 8X@XG.].!.GX(.}.}.*.,.R.1.I.iXiXiX2XjX0 2X%X X%X:.<.3XKX2.X.*.E..X1X1.k.Z 2X0XLXLXlXh.",
"D.` h.v.I.f.=.f.{.yXz.; - K kXU c M.] =X2...).] X.1.y N C S n 1X*.T.l.(.h.h.x.uXn F o.U M.4.4.F oX* Q.I.v W +.^ n z.6 6 DXzX<X$.",
"jXW.I E ).S.:X+.d.H < y R.pXK.E.#.n ; U [ 1.d.W.tX&X! &X&X#.W.j.2XQ h 0.I.$.!.s.E.Q F z I K g X.o o yX{.'.,XuXV.9.p.xXS.~ ).pXCX",
"o % ] Q j m m l.1.9X=.1.@Xp ..BXZXo.AX9 o.y , m $ F.Q '.(.u.q.u.} '.E.%.4.*.%.p ( G *.G g.3.;.VX1XP.@XtXK.K {.9.V.}.U.<XaXNXFXLX",
"'.).3X-./ :.P P L.-.2.wXm.yX@X-X>.Y.K y ` +.$.-.L AX'.} S.I.$.v.u.,XN.P $XkX0Xg.*XkXjXDXjXNXg = G 4 9 9 1 *.a.0.e.a.:XIXNXFXqX# ",
"F l z b v #.Z [ h $.8 ( gXI A ;.{ 1.mX*X..C F n.K Z u.h.g.'.tXxX_.rXT.W I.q.n W.c 4 , 5 9 5 *.,XU.$.=.W k.7XE.M c.Q.~.l.Q & S.=.",
"7XS.Z.h.U.A H.-.3.c.z.>X{ rX1X:X2XK.J +Xh.~./.`.h.Z F.i.;.y.y.S / h.[.W.&.T F.=XtX7XrX#XW.h.i.a , { -.+.=.,.1.l.( F l.I.-.dXT I.",
"m I.E.c.eX{ 8 1 < = l k.d.P w $ @ v 4 x cX{.[.{.gX, 4 4 5 { h.i M ! g.=.(.I.W Q C D.aX>X< ;X$.M l...1.Q v K  .l 8 #.W q.eXk.c.I.",
"=.v &X>.*.2.# o u ! oXd.d.yX,Xp.GXY.= B t._.{.V.NXAXpXZXiXc.*.=.&XpX&.f.KXW.0XiX!.G A 3.I.NXjXI.&.&X).T.S.,XyXpX4X+.G ) =.! c.i ",
"f.S.9 .XM.b.l.%.d.5 9.G.k p.| B.S a.&X=.! c r 6 l.eX#X7 K T Q ..H J.J.( gX-XX.2.1.{.}./.f &.k.` ).! N.x.@.D.D.x.v.*XAXV.; = +.,.",
"1 J.Q 4 y < y % d 6 5._.v.v.6.0.7.C 1.{ r.].l.&Xh.R T  .$.y E.K KXgXmXn.:.z X.P 2X.X% z.y T ) H S.@.I.q.^ } / } S.k D.h.cXK.%.*.",
"eXl.K.W.k < I.L 1 k S 7.v.f.e.9.7.} ..L +.d.$.(.] 5X8X'.2.jX`.+.@X2X@XiXE.) P L 2...b.jX.X2XI.%.k.0.+.! s.0.S 0.w.T ! 0.U.L +.N.",
"N.#.K.U.p.{.nX}.`.CX} 7.7.^ w.A 6.S.$X9XdXg.{ R ..+.8 1X1Xx ] ; , = iX[.E.' y p  .p W R.P.` { r.0.S.m ~ %.! ~ $.{ !.I.S.z.1 N.u ",
"%.- g.l Z 8X8XvXGX7 5.v.(.].| 0.6.v S.H n l.H ~.S.yXJ.P c K R 9XSX1XkXZ.SXaXcXxX<.,.Y.d.l.Q K p s % ( 9XFXP 6 . $ @ BXD.q.B.>XT ",
"dXjX@X#.n m ^ @ $.h.p.A q.p.a.D.0.Q ) 5 G n X.b 5X.Xy.tXa 2XO.zX1.X.%.R.( T 1.7XZ.*.o.1.v &X@X.XQ.3.2.@X3.:XK.|.m 7XeX9.G.w.=.:X",
"* B &XtX> T -.r [.  2Xw.0.m } U.8X# Z pXT.rXvX].#.+.> 9 L.K i wX@Xo.M.J.I.Y.l.&.;X1Xl.:XL.K.g 5X,.E.wXdXd.7X].'.@X'.tXw.7.nXV.G.",
") W H -X=X).y.F.W K CXw.} p.FXCX8X{ u.= r.p.nXvX7XeXqX@XKXb.FX1.l.4.3.L.0.@.z.'.c > b = f H 3.] 4.sXQ , # nXbX}.|.Z.A 7.B.e.q.5.",
"u > = & ..! &.3.; 2 U.e.} / rX7.y.DXIX*X'.C 1 8 2.R.*Xg.1. .( ,.Q.2.O.I.=.I.q.<X@XrX=X].9XW.CX+.n.tX).8XcX[.S.<XgX&X]./.B./.5.A ",
"h.T.1.m.&.K.Q I.&XQ G { m ! v._.@ SXL.$X4.NX, d.n dXz.] E.n.1.( iX0XOXy.=.W.{ %.. c.q.'.,X_.T l.=.k.c.i.1.9Xx.<X'.&XZ.O 6 P.) C ",
"s.N.F.&X1.I.^ mXI.#.y 8 X.p y H.l.+Xc sX5XiXAXQ ) ..gXLXLXlX( #.O.K.*X9 ,.W < > p O 6 # 8 W u ( 2.oXP W >.2 ! 1 ! 6X&Xl.3 Z.Q.).",
"dX! < jXU.*.I.F.h.2XxXNXBX!.*.f.T.R T L l ;.9 1.] 5X2XeX, b z.Z.g.P P y.x.y.].(.D.) 8X{ pX5X=XG.) R u.rX].(.=.C p.q.z.7X'.$ &.u ",
"z.f [ G.'.<X'.xXi l.u.Y.*.l.+X2XE.@XJ...$.0.h.~.[.].-., n 0 , h kXjXP ; = l = * b 5 ` =.k.` S _._._.p.B.p.<XW ^ $.r.{ { q.` I qX",
"Q b R.a r @ n ] ,XB vXE.*X4X].g.1.Z.P.z.8X&.T k Z.l.{ =XE.-.l.3.#.g.Y.kXVXfXNX@X1XA.0 v f C v.5.9.0./ p.6.| f 5 $ ( = j e ,.2.P ",
"*.P ! ] ] a Q c.! . : * * b p E.g.O.*.} 6X#.Z.`.I.d.n = 4.0X@X3.E.qXmXv u < > N ) k ..z.%.pXC D.D.& < r > #.* X.4X;XuXlX@XNXjX1X",
"=.7XE Z.! y h o.W ] jXFX-X9XpXjX*XT.z.#.+.$.V.|.b L `.yXP 3.3.*.J. X1.BXoXR.g.-XaXR.b.E.n ,.t X.2.uXaXxXNXeXR.5 , H T !.FXgX#.AX"
};
