/* XPM */
static char *wnoth[] = {
/* columns rows colors chars-per-pixel */
"64 64 256 2 ",
"   c #0E0E0A",
".  c #0C0E07",
"X  c #0F100A",
"o  c #11120D",
"O  c #1A1B0D",
"+  c #141511",
"@  c #1A1B15",
"#  c #1C1D1B",
"$  c #181712",
"%  c #221E18",
"&  c #1E201C",
"*  c #1E2112",
"=  c #232115",
"-  c #23231D",
";  c #2A251A",
":  c #2B2B1D",
">  c #2A2516",
",  c #322B1D",
"<  c #352B1B",
"1  c #36321D",
"2  c #2A2916",
"3  c #1E1E21",
"4  c #1F2221",
"5  c #232423",
"6  c #2B2B24",
"7  c #2B2B2A",
"8  c #262727",
"9  c #342E22",
"0  c #372C24",
"q  c #2F3126",
"w  c #333324",
"e  c #3B3523",
"r  c #34342C",
"t  c #3C342A",
"y  c #3B3B2C",
"u  c #383A26",
"i  c #383834",
"p  c #2D3130",
"a  c #231E22",
"s  c #453514",
"d  c #433C2B",
"f  c #453A26",
"g  c #463B34",
"h  c #533527",
"j  c #3E4129",
"k  c #3E4235",
"l  c #48432B",
"z  c #57492C",
"x  c #434334",
"c  c #4C4334",
"v  c #4A4738",
"b  c #564A36",
"n  c #585637",
"m  c #57542F",
"M  c #665838",
"N  c #77583A",
"B  c #674C33",
"V  c #66643D",
"C  c #78683A",
"Z  c #766D36",
"A  c #54511C",
"S  c #4D4A42",
"D  c #564B44",
"F  c #5A5546",
"G  c #655648",
"H  c #6D594D",
"J  c #676646",
"K  c #796745",
"L  c #6C734A",
"P  c #76764C",
"I  c #6C6459",
"U  c #786858",
"Y  c #787B55",
"T  c #776D64",
"R  c #7A7364",
"E  c #7C7875",
"W  c #866E3C",
"Q  c #8F523B",
"!  c #856C4A",
"~  c #8A7848",
"^  c #897655",
"/  c #967656",
"(  c #927051",
")  c #A57857",
"_  c #877968",
"`  c #8A7D72",
"'  c #957867",
"]  c #A67A65",
"[  c #B0756C",
"{  c #8F5B49",
"}  c #7D8358",
"|  c #7D824C",
" . c #82845B",
".. c #87895A",
"X. c #9A8858",
"o. c #89915E",
"O. c #99965D",
"+. c #8D814F",
"@. c #A6875C",
"#. c #A5975B",
"$. c #888D64",
"%. c #988568",
"&. c #8D9364",
"*. c #959B6C",
"=. c #9B9D6C",
"-. c #969766",
";. c #968778",
":. c #9A9A74",
">. c #898876",
",. c #A88768",
"<. c #B78D6B",
"1. c #A79768",
"2. c #B7976A",
"3. c #A78876",
"4. c #B68A78",
"5. c #A59679",
"6. c #B89974",
"7. c #9BA26B",
"8. c #9DA377",
"9. c #BAA36C",
"0. c #A2A67B",
"q. c #A5AA7B",
"w. c #A9A978",
"e. c #BCA577",
"r. c #B7B57C",
"t. c #A9A973",
"y. c #C59977",
"u. c #C89575",
"i. c #C2A375",
"p. c #C3A47A",
"a. c #C9A87A",
"s. c #D1A67D",
"d. c #C5B176",
"f. c #BBC07D",
"g. c #C4C47E",
"h. c #9B9283",
"j. c #A89788",
"k. c #B89987",
"l. c #A99B92",
"z. c #B89C93",
"x. c #AA8B84",
"c. c #9DA488",
"v. c #98A593",
"b. c #AAAD83",
"n. c #A5AA87",
"m. c #BCA388",
"M. c #ADB183",
"N. c #ADB28B",
"B. c #B3B484",
"V. c #B3B58B",
"C. c #B9BB89",
"Z. c #A8A894",
"A. c #B9A898",
"S. c #B7B996",
"D. c #ACB294",
"F. c #BDBAA7",
"G. c #B4AFA3",
"H. c #C39A86",
"J. c #CC988F",
"K. c #C4AC83",
"L. c #CDAA85",
"P. c #C8A688",
"I. c #D3AA88",
"U. c #C8B788",
"Y. c #D4B58B",
"T. c #CCAE9A",
"R. c #C8A996",
"E. c #D4AC93",
"W. c #D6AB99",
"Q. c #C7B69B",
"!. c #D5B294",
"~. c #D4B39B",
"^. c #DAB39B",
"/. c #D8B898",
"(. c #C9ACA4",
"). c #D8A9A5",
"_. c #C5B2A4",
"`. c #CCB4A4",
"'. c #CDBAA3",
"]. c #CBB5AA",
"[. c #CDBAAC",
"{. c #C4B7AA",
"}. c #D3B4A3",
"|. c #DBB4A2",
" X c #DCBBA3",
".X c #D4BBAC",
"XX c #DBBCAC",
"oX c #D4B9A7",
"OX c #CCBBB2",
"+X c #D3BDB2",
"@X c #DBBCB5",
"#X c #DFAEB4",
"$X c #E1BAA9",
"%X c #E3A9A7",
"&X c #BCC294",
"*X c #BAC18E",
"=X c #BEC4A9",
"-X c #C4C288",
";X c #C3C59C",
":X c #C5CA9C",
">X c #CBCC9C",
",X c #C8C694",
"<X c #D3C698",
"1X c #D7D59C",
"2X c #D1C896",
"3X c #CACEA3",
"4X c #C6C9A6",
"5X c #D5C2AB",
"6X c #DBC4AE",
"7X c #D9C8A8",
"8X c #CCD1A6",
"9X c #CDD4AA",
"0X c #DCDBA4",
"qX c #D6D6A8",
"wX c #C6C8B4",
"eX c #D4C3B3",
"rX c #DBC3B4",
"tX c #DECAB3",
"yX c #DBC5BB",
"uX c #DDCBBB",
"iX c #D6C7B8",
"pX c #D8DAB6",
"aX c #CDD1B0",
"sX c #E1C4AB",
"dX c #E3CCBC",
"fX c #E2C6B7",
"gX c #E3DAB6",
"hX c #E1DCAD",
"jX c #DDE1B7",
"kX c #E5E3AA",
"lX c #E4E5BD",
"zX c #E7E6B5",
"xX c #F2F2B6",
"cX c #BDC4C3",
"vX c #DCCBC3",
"bX c #CCD3C7",
"nX c #DAD9C5",
"mX c #D9DBD5",
"MX c #E4CDC3",
"NX c #E6CCC6",
"BX c #E3D1C4",
"VX c #E5D5C9",
"CX c #EAD6D3",
"ZX c #DDE2CD",
"AX c #E8E9C6",
"SX c #E8E9D7",
"DX c #F5F6DB",
"FX c #F1F0CF",
"GX c #ECEDE5",
"HX c #EEF0E3",
"JX c #EDF3EB",
"KX c #F5F6E7",
"LX c #FCFDF4",
"PX c #FEFFFE",
"IX c #F5F7F3",
"UX c #F0EFEB",
/* pixels */
"PXPXPXPXPXPXPXPXPXPXPXPXPXPXPXPXPXPXPXPXPXLX8Xt.-.&.o.o.o.o.o.o.} $.} } } } } } } o.&.o.&.o.-.*.7.q.M.b.w.0.8.8.8.q.q.M.N.D.D.N.",
"LXLXPXPXPXPXPXPXPXPXPXPXPXPXPXPXPXPXPXPXPXDX-X*.&.o...} } } ..o.&.*.*.7.7.7.8.7.q.M.M.M.q.q.8.0.q.q.q.q.w.:.=.*.*.:.8.c.n.D.D.D.",
"0XqX>X>X:X:X>X:X:X;X;X,X,X2X0XkXxXKXDXxX-X=.-.*.7.8.8.q.0.q.q.b.M.C.C.C.C.w.q.q.r.B.M.b.q.7.=.*.*.*.-.-.&.o...&.&.*.h.c.D.D.S.=X",
"C.C.S.C.*XB.C.q.M.r.q.M.r.q.b.r.B.q.q.8.8.0.M.C.*X&X&X9X:X;X&XC.*X*X1.+.^ K C t.~ -.=.-...} }  ... . . .$.$.&.&.:.:.n.D.S.4XaXjX",
"V.V.N.*XM.M.N.N.N.N.V.D.S.S.*X&X*X&X&X*X*X*X,X>X:Xt.K s l M +.r.~ C W M ! C z n B K ..}  .} ..O.8.o.o.o.-.-.*.:.8.8.n.S.=X3XpXlX",
":X:X:X:X:X:X:X:X:X:X3X9X8X3X3X3X3X8X8X:X:X>X>Xd.e O.! V V n t u 2 u e = x f v g x m b e l t.X.P ~ O.-.-.-.=.7.7.7.8.n.N.D.S.;X9X",
"pXjXpX9XpXpX9X9X9X4X9X4X8X8X:X3X8X8X8X>X:X>XA f 7.o.A t u D - > e > @ : 6 0 g S f 1 e e J B -.r.U.#.X.O.X.t.O.&.-.-.*.*.7.8.r.DX",
"AXZXjXpX9X9X9X9X:X:X:X4X9XpXpXjXAXAXSXDXDXm 2 e O * ; w c ; d 9 ; d g : t - - p v 2 2 < e l b b -Xf.+.#.X.1.| P Y L P | 7.DXPXPX",
"jXpX9X3X;X4X;X&X&X=XqXAXKXLXLXPXPXPXPXPX<Xg b c < * e g - % @ O > O w 9 g 0 - 9 g 0 t d d S F z z K C #.+.#.P V J V J } M.IXIXPX",
":XS.S.N.N.N.V.V.V.3XDXPXPXPXPXPXPXLXPXPXQ.m Y u v w f = r u O 9 9 - % g D i i g d t S g f 0 - ; ; e b N ~ @.#.m k n J } *.0XPXPX",
"0.n.0.n.n.n.N.V.&X9XLXPXPXPXPXPXPXPXPXLXm l g 1 - = f q < ; = ; w t @ > f g i b 6 ; 0 r % % 9 , ; > = z N Z Z +.u j n } } $.$. .",
"3X3XS.S.b.q.n.n.D.3XKXLXPXPXPXLXPXLXLX,Xf d : : > = 9 q < w y , 9 ; O ; g + S % F t a i < O $ + ; , d s f M Z s m m u v F J J V ",
":X4XQ.M.n.8.8.8.0.&XDXPXPXPXPXPXPXPXIX,Xf : : : : > 2 u F l u c g 9 ; = = = > , a $ 9 , > > $ + + % 6 , > % B Z ~ J n u q j j j ",
"3XqXqX,XB.0.0.n.8XPXPXPXPXPXPXPXPXPXmXJ y y : < d f l D G c d c c g d f % = ; 9 : 9 6 6 r 0 y = $ $ , , O < 1 B V j l V n n n n ",
",X8XqXjXpXaXpXpXLXPXPXPXPXPXPXPXPXPXK m i u l G Y ^ %.%.%.%.%.3.U _ F g f % , D I T I U I x v 9 0 7 r o @ = , s Z ~ +.| L Y L L ",
"PXPXPXPXPXPXPXPXPXPXPXPXPXPXPXPXPXPXm c 9 v ! @.@.2.y.L.!.~.T.~.T.k.%.I c d g f U .XG.z.l.j.T H g g g 0 6 > f < A W X.#.X.=.} } ",
"PXPXPXPXPXPXPXPXPXPXPXPXPXPXPXPXPXPXl u l ^ X.( i.a.s././.^.~.m.T. Xk.D S H x.U j.OXBXuXuXeX{.R.x.U c d g F c l x c G $.:.8.c.c.",
"PXPXPXPXPXPXPXPXPXPXPXPXPXPXPXPXPXiXl j J 2.9.i.s.s.Y./.|.,. X}.6.Q b 5.oXR.XX.X{.eXiXuXdXtX7X6X}.z.H g , 0 b z f M #.:.0.c.c.n.",
"PXPXPXPXPXPXPXPXPXPXPXPXPXPXPXPXIX:.l z ~ 9.i.s.I.I.Y./.^./.sXy.9 dX.XrXtXeX[.[.iXvXBXBXgXtXtX7X6X_.;.G F t u b M B ^ 0.D.F.F.S.",
"PXPXPXPXPXPXPXPXPXPXPXPXPXLX8.:.8.kXM M #.i.a.s.s.I.Y.!. X XsXsXdXtXfXrX[.'.rXdXdXBXVXBXdXuX7XtX7X5Xl.I I v v 1 e V O.;X4X8X4XwX",
"PXPXPXPXPXPXPXPXPXPXPXPXPXPXPXPXPX1.z M 2.d.a.s.s.I.Y./. XsXsXsX^.~.~.[.fXrXtXMXBXdXdXdXdXdXdXtXtX5Xj.R v f e , f n B.PXPXPXPXPX",
"PXPXPXPXPXDXzX,Xq.n.LXPXPXPXPXPXPXP l C 2.s.s.s.I.Y.!. XsXsX$XsXsXdXBXMXdXfXfXMXdXVXVXdXuXdXdXtX7X X5.U G c 9 2 0 Z LXPXPXPXPXPX",
"Z.v.v.v.v.D.G.D.Z.n.KXPXPXPXPXPXPXz A 9.U.s.s.Y.Y././.sXsXfXfXdXfXgXdXBXNXBXVXVXVXVXVXVXMXvXMXfX7X7XT.' F l 9 : b C.PXPXPXPXPXPX",
"4XwXwXwXwXwXwXwXwXwXwXpXKXLXPXPXKXz #.2XY.Y.s.Y.!. X X XXXsXfXdXfXfXNXdXdXBXMXVXNXuXvXvX+XMXuXyXtX7X'.A.B M e > z FXLXPXPXPXPXPX",
"LXKXHXHXHXHXHXHXHXHXHXHXKXHXKXLXFXz U.2XU.Y.6./ B 0 d H ' x.k.}.^.$XfX6X}.x.;.' G g g g G h.' z.6X7X<X~.;.f f y l hXJXPXPXPXPXPX",
"LXPXLXLXPXPXLXLXPXLXPXLXPXPXPXPXFXz Y.Y.~ N z b 6 g 0 , h c U [ P.^.(.}.4.' I F 0 g i g S T U D U 5XrX7XR.v f l m =.IXPXPXPXPXPX",
"PXPXPXPXPXPXPXPXPXPXPXPXPXPXPXPXKXM 2XY.( B N ^ _ ( ! N N B N ) u.I.E.~.k.3.] ] x.J.J.z.z.z.` ` j.'.rX6X7X>.b l ^ j.mXPXPXPXPXPX",
"PXPXPXPXPXPXPXPXPXPXPXPXPXPXPXPXU.+.Y.Y.9.@./ W [ ) N b ! / ( ) u.^.XXuXH.k.<.] g D i g x.H 4.z.R.'.7XtX7XA.F e M e.wXJXPXPXPXPX",
"PXPXPXPXPXPXPXPXPXPXPXPXPXPXPXIX..1.Y.d.i.@.Q B N ] h.; f l.{ u.u.I.sXXX].$XJ.].vXh h cXx.D ( z.Q.XXuXdXsXQ.F c 0 B wXSXPXPXPXPX",
"PXPXPXPXPXPXPXPXPXPXPXPXPXPXPXPXV ,.Y.Y.s.s.u.2.<.4.] [ 3.[ u.<.u.I.J.|.T.].(.4.4.[ k.(.(.).R.oXoXtXtXtX7X}.b n h 0 / GXIXPXPXPX",
"PXPXLXPXPXPXPXPXPXPXPXPXPXPXPXGXQ.<.Y.s.s.Y.E.I.y.<.<.4.4.k.u.u.s.I.W.|.oX~.).).k.k.J.R.(.).$X^. XtXtXsX5X'.G D ^.Q u.PXPXPXPXPX",
"HXHXHXHXHXHXHXKXKXUXUXIXIXLXLXmXZX2.Y.U.Y.^.^.^.W.~.W.P.I.I.u.s.u.E.|.|.XXXXfXrX$X|.}.^.|.XX$XtXdXtXtXtXoX(.U B W.[ BXIXPXPXPXPX",
"nXnXgXpXnXpXpXBXpXnXnXZXZXSXGXSX:.6.Y.!.Y.E.^.|.^.E.I.I.I.s.s.u.I.).#X@X|.XXfXfX$X$X$XfXNXfXMXvXvXuXtXtX5XQ.' G ].[ SXIXPXPXPXPX",
"K.U.P.K.K.P.P.K.e.e.m.e.K.U.>X7X7XK.d.Y.I.!.W.^.^.$X%X^.W.E.u.u.E.|.yXvX}.(.#XfXNXfXNXNXNXCXMXVXdXBXuX6X~.S.U { ).oXZXLXPXPXPXPX",
"i.9.e.i.i.a.d.e.p.K.K.m.U.Y.Y.<X<X/.U.Y.!.!./.^.$X^.$X%X^.u.u.W.|.MXvXvX.X).z.XXyXNXNXNXCXCXCXNXBXuXuX'.'.A.m.[.z.4XZXIXPXPXPXPX",
"9.9.9.e.p.a.K.a.K.L.U.U.U.Q.<X<X<X<XK.I.Y.!./. X^.$X^.W.E.I.) s <.J.R.j.h H.x.@X#XyXMXNXNXCXNXNXiXiX5X5X_.Q.}.].S.'.ZXIXPXPXIXPX",
"2.1.2.1.9.9.e.e.e.p.U.U.U.<X<X<X<X5X9.L.L.!.!.^.^.!.E.^.E.I.J.<.4.( ] x.x.(.@XyX@X@XfXMXNXVXvXvXiXeX{.A.Q.m..XS.D.=XmXIXPXIXUXPX",
"r.w.=.%.%.e.U.2X2X1X<X<X7X0XqX7X,XU.+.e.Y.L.E.!.^.^.^.I.I.J.u.<.J.z.z.(.(.(.@XyX@XfXyXyXvXvXyXyXeXOX_.[.A.%.T.A.D.wXmXGXJXUXmXbX",
"<XV.=.R -.B.>XhXzXhX0XqXhXlXzXjXqX>XK.e.L.I.Y.!.Y.^.E.H.P.P.W.H.(.(.).@X#XOX@XOX(.@XdXyXyXiXeXeX_.].[.S.Q.7.r.B.n.F.mXGXJXHXmXpX",
"aXS.0.&.&.C.0XlXFXAXgXzXjXxXzXlXzX0X1X1.5.2.L.E.!.E.E.<.e.[ [ [ [ [ x.x.[ x.{.A.A._.rXyXyXOX(.OX{.F.].A.5.8.=.=.8.D.aXSXSXAXlXSX",
"wX'.n.$.o.b.3XjXlXhX0X,XC.1X0XhX0X8X1XO.1.2.2.p.H.K.m.! { 4.J.%X%X%X%X#X#X(.x.x.] 4._.iXiXOX_.G.{._.A.D.%.-.&... .c.;XqXlXAXlXAX",
"v.h.$.} Y ..=.M.*XB.q.t.t.r.r.-Xg.g.2X,XX.( ,.e.4.m.k.y.u.u.u.J.).W.).).).(.].@X].R.z.A.OX{.G.].{._.A.h.5...+.} Y *.B.:X3X1X1X3X",
"C.C.r.B.r.r.r.r.r.f.f.g.U.-X-X-X-X2X1X1X1.@.,.@.6.4.P.L.P.H.u.4.k.3.k.J.).+X+XOX.X}.]._.A.{.G.OXF.z.c.3.U.B.r.t.t.w.r.w.r.q.w.w.",
"qX0X1X1X>X1X1X1X0X0X0XkXkXkXkXkXzXxXzXkX1XX.X.1.<.6.y.s.I.E.J.E.).R.W.)..X.X+X].].`._.].].A._.l.l.h.:.R.1XqX>X2X,X,X,XC.C.&XU.C.",
"SXDXFXlXhX0X1X1X1X1X1X1X0X0X0X0X0X1X1X,Xr.=.%.~ @.@.2.y.I.E.~.W.%X|.XX@XfXfX@X#X(.A.OX_.z.j.l.A.h.:.l.'.gXlXgXzXhXpXqXhXqXqXqXqX",
"SXKXFXgX>Xw.7.7.7.7.#.7.O.O.O.O.O.o.| L n V ~ ~ / / @.,.u.P.).^.).}.@X@X].+X(.l.l._.z.l.h.j.h.>.;.j._.'.AXFXAXlXAXlXAXlXAXlXzXlX",
"DXDXAX8X8.l o X o o o o O o o + O o + + O < @.K ^ m ! @.( <.H.W.T.].@X+XA.l.l.x.` ` h.' h.;.;._ ;.A.Q.'.J N.FXAXlXlXlXlXlXlXlXjX",
"HXFXAX3X*.u X X . X X o o o o o o X o o $ j e.@.K ! B M ' ! ] k.4.z.z.z.;.l.x.` T U ` ` T R _ Z.Z.].'.'.n r r jX8X:X>X3X8X>X>X;X",
"DXFXjXQ.$.u         o   o o   o o o r R >.8.e.2.X.! W ! f f z b G B D D T D F I I ;._ _ >.;.j.l.A.{.'.5XR.v y k k } L } } L L L ",
"jX9X:Xb. .w   .         o o o o o @ D.bXSXSXe.e.i./ / M ! C B z 0 g D v S T T I T T _ T ;.;.l.{.5XeX5X'.P.u p u p i i p F * + + ",
"..} o.} J q o .         . o   o + i bXJXIXPXe.p.p.2.@.~ ! h d z M H G n D G G G I R R ` ;._._.].eXiX5XQ.j.y p 6 p q u q 5 q 7 F ",
"o X v J J q .   .     o o   . o + k bXJXPXIXe.p.6.y.2.@.( ~ ! z f 1 0 i g F I T ` ` >.l.z._..X[.6X6X5XT.7 7 7 6 6 8 p 8 8 8 8 4 ",
"  $ n J J :     X   X X   o   o $ S cXv.b 9.i.i.i.e.2.6.@.) ~ ^ ^ K U H T ` _ ;.h.x.A.A.{.[..XiXtXeX].r 7 7 8 8 8 4 4 6 4 4 5 q ",
"  * J L L :   .   X X   o . o   u v j n z g.9.i.i.y.6.y.6.,.,.@.%.) %.3.k.j.l.A.l.`.+X.X.X6XfXuXrX[.r 8 r 8 8 8 4 @ 5 8 8 8 4 4 ",
". : J Y P w .   X . . X o o y v x u u w l a.e.i.a.L.P.p.K.H.P.R.H.k.m.z.A.R.`.(.}.[.+XrX6XiXuXiXOXp 8 7 8 5 8 8 4 * 4 8 4 8 5 5 ",
"  w L } P 6     .   X . j v v j w 6 : , - 5.9.i.p.a.a.P.L.L.P.P.L.!.W.T.T.`.~.~.[.rXXX6XrXiXeXl.6 8 5 8 5 a 5 5 4 * : 8 4 5 4 4 ",
"  j P | P w X     * F j k q * 4 = 8 - & & = 3.e.e.y.a.P.L.L.P.R.T.T.T.'.`.oX[.XXOXrXyXeXeXF.7 5 8 5 5 7 3 5 8 4 4 # 5 5 5 5 4 4 ",
"  j Y ..P u X O F k k : q - 4 & - & & = & = @ J 9.e.i.P.P.K.R.R.R.T.R.Q.`.[..X.X+XeXeXOXp 5 4 5 8 5 5 # 4 7 5 4 @ # 5 8 5 5 5 4 ",
"  x } o. .n F x j & & & @ @ * & - # - # # & @ @ a _ 6.e.6.P.H.P.R.R.R.Q.(.'.].].].` 5 3 3 3 5 8 5 8 3 @ 8 5 4 4 @ & 8 5 5 4 5 4 ",
"wXwXbXG.n w 6 5 & # * # & @ & * # # # - - * & # $ $ $ # 6 I 5.k.m.A.h.E i 5 # $ $ # 3 3 5 5 7 8 5 3 # 5 8 5 4 # & 4 4 8 4 4 4 4 ",
"GXbXx u 5 4 @ # @ # # @ @ @ & & 3 # # # - # 5 @ @ # $ @ $ $ $ # # # # $ # $ # $ a # 4 5 8 5 5 8 # @ & 8 5 5 5 + # 5 5 8 5 4 & 4 ",
"y q & & @ # @ # # + @ @ @ & # # # # - # 3 & 5 % % 5 # # # # # # # # # & # # 5 - # 5 & 4 8 8 5 # @ @ 5 5 5 5 # @ 3 5 5 8 4 4 # & ",
"4 # @ @ 3 3 # 3 + 3 @ @ @ # # # # # 5 & 3 & 3 # a % - # # a 5 - # a 8 8 # & # 3 8 5 5 3 5 5 # # # # 5 8 5 3 @ @ 5 5 5 4 5 3 4 3 ",
"# # @ # + # + 3 + # # @ @ # 3 # # # # 3 & 4 & # # & # - & - 5 5 5 8 5 5 5 a - 5 # & & 5 a 3 # @ $ 5 8 8 3 # @ & 5 5 5 5 # 5 # 3 "
};
